<svg width="24" height="24" viewBox="0 0 24 24" fill="none" xmlns="http://www.w3.org/2000/svg">
<path d="M12 9.75C12.531 9.74971 13.045 9.93722 13.451 10.2794C13.8571 10.6215 14.129 11.0962 14.2188 11.6196C14.3086 12.1429 14.2104 12.6811 13.9416 13.139C13.6728 13.5969 13.2507 13.945 12.75 14.1217V19.5H16.5V21H7.50001V19.5H11.25V14.1225C10.7496 13.9454 10.328 13.5971 10.0595 13.1393C9.791 12.6814 9.69296 12.1434 9.78269 11.6202C9.87242 11.0971 10.1442 10.6225 10.5499 10.2803C10.9556 9.93806 11.4692 9.75024 12 9.75ZM12 3C16.9703 3 21 7.02975 21 12C21 14.0273 20.3265 15.9532 19.11 17.5185L18.4703 18.3045C18.0814 17.9907 17.6919 17.6777 17.3018 17.3655L17.7848 16.7738C18.8962 15.4315 19.503 13.7427 19.5 12C19.5 7.85775 16.1423 4.5 12 4.5C7.85776 4.5 4.50001 7.85775 4.50001 12C4.50001 13.68 5.05351 15.273 6.05476 16.5728L6.69301 17.3655L5.53951 18.3045L5.06026 17.7308C3.72585 16.1194 2.99702 14.0921 3.00001 12C3.00001 7.02975 7.02976 3 12 3ZM12 6.75C14.9025 6.75 17.25 9.141 17.25 12.084C17.2524 13.2398 16.8818 14.3656 16.1933 15.294C15.9345 15.615 15.7283 15.867 15.573 16.0515C14.9423 15.5438 14.5545 15.234 14.4105 15.1215L14.8883 14.5297C15.4483 13.8382 15.7526 12.9746 15.75 12.0848C15.75 9.963 14.0678 8.25 12 8.25C9.93226 8.25 8.25001 9.96375 8.25001 12.084C8.25001 12.9915 8.55751 13.8472 9.11251 14.5305L9.60001 15.1215L8.42401 16.0515L7.94776 15.4755C7.17031 14.5164 6.74729 13.3186 6.75001 12.084C6.75001 9.141 9.09751 6.75 12 6.75ZM12 11.25C11.8011 11.25 11.6103 11.329 11.4697 11.4697C11.329 11.6103 11.25 11.8011 11.25 12C11.25 12.1989 11.329 12.3897 11.4697 12.5303C11.6103 12.671 11.8011 12.75 12 12.75C12.1989 12.75 12.3897 12.671 12.5303 12.5303C12.671 12.3897 12.75 12.1989 12.75 12C12.75 11.8011 12.671 11.6103 12.5303 11.4697C12.3897 11.329 12.1989 11.25 12 11.25Z" fill="#686C78"/>
</svg>
