<svg width="24" height="24" viewBox="0 0 24 24" fill="none" xmlns="http://www.w3.org/2000/svg">
<path d="M20.083 9.81563V12.1129C20.8306 12.7886 21.3013 13.7654 21.3013 14.8502C21.3013 16.885 19.646 18.5402 17.6113 18.5402H10.9147C8.87997 18.5402 7.22469 16.885 7.22469 14.8502C7.22469 12.8155 8.87997 11.1602 10.9147 11.1602H14.5029V9.24023H10.9147C7.82133 9.24023 5.30469 11.7569 5.30469 14.8502C5.30469 17.9436 7.82133 20.4602 10.9147 20.4602H17.6113C20.7046 20.4602 23.2213 17.9436 23.2213 14.8502C23.2213 12.6436 21.9402 10.7311 20.083 9.81563Z" fill="#686C78"/>
<path d="M13.2285 3.54004H6.53188C3.43852 3.54004 0.921875 6.05668 0.921875 9.15004C0.921875 11.161 1.98603 12.9274 3.58024 13.9179V11.3619C3.10027 10.7244 2.84107 9.94797 2.84187 9.15004C2.84187 7.11532 4.49715 5.46004 6.53188 5.46004H13.2285C15.2632 5.46004 16.9185 7.11532 16.9185 9.15004C16.9185 11.1848 15.2632 12.84 13.2285 12.84H9.16023V14.76H13.2285C16.3218 14.76 18.8385 12.2434 18.8385 9.15004C18.8385 6.05668 16.3218 3.54004 13.2285 3.54004Z" fill="#686C78"/>
</svg>
