<svg width="24" height="24" viewBox="0 0 24 24" fill="none" xmlns="http://www.w3.org/2000/svg">
<path fill-rule="evenodd" clip-rule="evenodd" d="M18.6259 3.01367H3.44882C2.3772 3.01367 1.50781 3.8832 1.50781 4.95468V19.0076C1.50781 20.0791 2.37734 20.9486 3.44882 20.9486H18.6259C19.6976 20.9486 20.5671 20.0791 20.5671 19.0076V16.1707C20.5671 15.9335 20.3651 15.7316 20.1191 15.7316C19.8731 15.7316 19.68 15.9335 19.68 16.1795V18.8935C19.68 19.5347 19.1529 20.0616 18.5118 20.0616H3.54542C2.90431 20.0616 2.37722 19.5347 2.37722 18.8935V5.06896C2.37722 4.42773 2.90434 3.90076 3.54542 3.90076H18.5206C19.1617 3.90076 19.6888 4.42775 19.6888 5.06896V7.94977C19.6888 8.19562 19.8907 8.39769 20.1278 8.39769C20.3738 8.39769 20.5758 8.19562 20.5758 7.94977V4.96345C20.5758 3.89198 19.6976 3.01367 18.6259 3.01367ZM19.2344 12.0698C19.2344 12.3772 19.489 12.632 19.7964 12.632C20.1038 12.632 20.3585 12.3772 20.3585 12.0698C20.3585 11.7625 20.1038 11.5078 19.7964 11.5078C19.489 11.5077 19.2344 11.7536 19.2344 12.0698ZM20.5235 9.34668C21.5951 9.34668 22.4646 10.2162 22.4646 11.2878V12.8687C22.4646 13.9403 21.5951 14.8098 20.5235 14.8098H12.7066C11.6352 14.8098 10.7656 13.9403 10.7656 12.8687V11.1735V11.1384L10.7832 11.1033V11.0682C10.8973 10.0845 11.723 9.34668 12.7066 9.34668H20.5235ZM20.4094 13.9315C21.0506 13.9315 21.5775 13.4044 21.5775 12.7633L21.5863 11.3932C21.5863 10.7521 21.0593 10.225 20.4181 10.225H12.812C12.1709 10.225 11.6439 10.7521 11.6439 11.3932V12.7633C11.6439 13.4044 12.1709 13.9315 12.812 13.9315H20.4094Z" fill="#3F4664"/>
</svg>
