<svg width="24" height="24" viewBox="0 0 24 24" fill="none" xmlns="http://www.w3.org/2000/svg">
<path d="M14.8458 10.0551C15.6129 10.8224 16.0439 11.863 16.0439 12.948C16.0439 14.033 15.6129 15.0736 14.8458 15.8408L11.2058 19.4808C10.7998 19.8892 10.3173 20.2134 9.78591 20.4349C9.25447 20.6564 8.68455 20.7709 8.10879 20.7717C7.53304 20.7726 6.96278 20.6598 6.43069 20.4399C5.8986 20.2199 5.41514 19.8971 5.00802 19.49C4.6009 19.0829 4.27812 18.5994 4.05818 18.0674C3.83825 17.5353 3.72547 16.965 3.72632 16.3892C3.72718 15.8135 3.84164 15.2436 4.06315 14.7121C4.28466 14.1807 4.60887 13.6982 5.01719 13.2923L6.80976 11.4991L8.02233 12.7117L6.22919 14.5048C5.97752 14.751 5.77717 15.0446 5.63975 15.3687C5.50232 15.6928 5.43056 16.0409 5.4286 16.393C5.42665 16.745 5.49454 17.0939 5.62835 17.4195C5.76216 17.7451 5.95924 18.041 6.20816 18.2899C6.45708 18.5388 6.75291 18.7359 7.07852 18.8697C7.40412 19.0035 7.75304 19.0714 8.10506 19.0694C8.45709 19.0675 8.80523 18.9957 9.12933 18.8583C9.45343 18.7209 9.74705 18.5205 9.99319 18.2688L13.6332 14.6288C14.0788 14.1831 14.3291 13.5786 14.3291 12.9483C14.3291 12.318 14.0788 11.7135 13.6332 11.2677L14.8458 10.0551ZM19.7349 4.76256C20.5556 5.58322 21.0166 6.69627 21.0166 7.85685C21.0166 9.01743 20.5556 10.1305 19.7349 10.9511L17.9429 12.7443L16.7303 11.5323L18.5235 9.73913C18.7752 9.49299 18.9755 9.19937 19.1129 8.87527C19.2503 8.55117 19.3221 8.20303 19.3241 7.85101C19.326 7.49898 19.2581 7.15007 19.1243 6.82446C18.9905 6.49885 18.7934 6.20302 18.5445 5.9541C18.2956 5.70518 17.9998 5.5081 17.6742 5.37429C17.3485 5.24048 16.9996 5.17259 16.6476 5.17454C16.2956 5.1765 15.9474 5.24827 15.6233 5.38569C15.2992 5.52311 15.0056 5.72346 14.7595 5.97513L11.1195 9.61513C10.6739 10.0609 10.4235 10.6654 10.4235 11.2957C10.4235 11.926 10.6739 12.5305 11.1195 12.9763L9.9069 14.1888C9.13975 13.4216 8.70877 12.381 8.70877 11.296C8.70877 10.211 9.13975 9.17041 9.9069 8.40313L13.5469 4.76313C14.3676 3.94248 15.4806 3.48145 16.6412 3.48145C17.8018 3.48145 18.9148 3.94248 19.7355 4.76313L19.7349 4.76256Z" fill="#3F4664"/>
</svg>
