<svg width="16" height="16" viewBox="0 0 16 16" fill="none" xmlns="http://www.w3.org/2000/svg">
<g clip-path="url(#clip0_1348_207)">
<path d="M7.99992 14.6667C4.31792 14.6667 1.33325 11.682 1.33325 8C1.33325 4.318 4.31792 1.33333 7.99992 1.33333C11.6819 1.33333 14.6666 4.318 14.6666 8C14.6666 11.682 11.6819 14.6667 7.99992 14.6667ZM7.99992 13.3333C9.41441 13.3333 10.771 12.7714 11.7712 11.7712C12.7713 10.771 13.3333 9.41449 13.3333 8C13.3333 6.58551 12.7713 5.22896 11.7712 4.22876C10.771 3.22857 9.41441 2.66667 7.99992 2.66667C6.58543 2.66667 5.22888 3.22857 4.22868 4.22876C3.22849 5.22896 2.66659 6.58551 2.66659 8C2.66659 9.41449 3.22849 10.771 4.22868 11.7712C5.22888 12.7714 6.58543 13.3333 7.99992 13.3333ZM7.33325 4.66667H8.66658V6H7.33325L7.33325 4.66667ZM7.33325 7.33333H8.66658V11.3333L7.33325 11.3333V7.33333Z" fill="#7F8792"/>
</g>
<defs>
<clipPath id="clip0_1348_207">
<rect width="16" height="16" fill="white"/>
</clipPath>
</defs>
</svg>
