<svg width="24" height="24" viewBox="0 0 24 24" fill="none" xmlns="http://www.w3.org/2000/svg">
<rect width="24" height="24" rx="12" fill="url(#paint0_linear_1063_192)" fill-opacity="0.1"/>
<path fill-rule="evenodd" clip-rule="evenodd" d="M11.9633 13.1937C12.3793 13.594 12.8705 13.9077 13.4086 14.1166C14.4791 14.5323 15.6704 14.5089 16.7242 14.0515C17.7779 13.5941 18.6091 12.7396 19.0375 11.6734C19.4658 10.6071 19.4568 9.41501 19.0123 8.35575C18.5678 7.29648 17.7237 6.45543 16.6631 6.01503C16.1301 5.79367 15.5583 5.68036 14.9811 5.68165C14.4038 5.68295 13.8325 5.79882 13.3002 6.02257C12.768 6.24631 12.2853 6.57348 11.8802 6.98511C11.4752 7.39674 11.1557 7.88466 10.9404 8.42061C10.7251 8.95655 10.6183 9.52986 10.626 10.1073C10.6337 10.6848 10.7559 11.2549 10.9855 11.7847C11.215 12.3145 11.5474 12.7934 11.9633 13.1937ZM15.077 13.276C14.6541 13.2763 14.2354 13.1926 13.8452 13.0297C13.0708 12.7063 12.455 12.0909 12.1309 11.3165C11.8069 10.5421 11.8007 9.67111 12.1137 8.89193C12.4267 8.11275 13.0338 7.48808 13.8035 7.15309C14.5732 6.8181 15.4436 6.79974 16.2265 7.10198C16.621 7.25428 16.9812 7.48348 17.2864 7.77627C17.5915 8.06907 17.8355 8.41963 18.004 8.80758C18.1726 9.19554 18.2624 9.61317 18.2683 10.0362C18.2741 10.4593 18.1959 10.8793 18.0382 11.2719C17.8805 11.6646 17.6464 12.022 17.3495 12.3234C17.0526 12.6248 16.6988 12.8642 16.3087 13.0278C15.9186 13.1913 15.4999 13.2757 15.077 13.276ZM8.83478 15.1816C9.05962 14.9518 9.23704 14.68 9.3569 14.3816C9.47676 14.0832 9.53671 13.7642 9.53334 13.4427C9.52997 13.1212 9.46333 12.8036 9.33724 12.5079C9.21115 12.2122 9.02808 11.9443 8.79847 11.7195C8.56886 11.4946 8.29721 11.3172 7.99903 11.1975C7.70085 11.0777 7.38199 11.0178 7.06064 11.0213C6.73929 11.0249 6.42176 11.0917 6.12616 11.2179C5.83056 11.3442 5.5627 11.5275 5.33786 11.7573C5.11301 11.9871 4.9356 12.259 4.81574 12.5573C4.69588 12.8557 4.63592 13.1747 4.63929 13.4962C4.64267 13.8177 4.7093 14.1354 4.83539 14.431C4.96148 14.7267 5.14456 14.9946 5.37417 15.2195C5.60378 15.4443 5.87543 15.6217 6.1736 15.7415C6.47178 15.8613 6.79065 15.9211 7.11199 15.9176C7.43334 15.9141 7.75088 15.8473 8.04647 15.721C8.34207 15.5947 8.60994 15.4114 8.83478 15.1816ZM17.3781 18.4848C17.2167 18.8866 16.9024 19.2078 16.5043 19.3779C16.1063 19.5479 15.6571 19.5528 15.2556 19.3915C14.8541 19.2302 14.5331 18.9159 14.3633 18.5178C14.1935 18.1196 14.1888 17.6702 14.3502 17.2685C14.5116 16.8667 14.8259 16.5455 15.224 16.3754C15.622 16.2054 16.0712 16.2005 16.4727 16.3618C16.8742 16.5231 17.1952 16.8374 17.365 17.2355C17.5348 17.6337 17.5395 18.0831 17.3781 18.4848ZM8.02194 8.3111C8.22088 8.22612 8.37796 8.06557 8.45862 7.86477C8.53929 7.66396 8.53693 7.43936 8.45207 7.24037C8.36721 7.04138 8.2068 6.8843 8.00613 6.80368C7.80545 6.72307 7.58095 6.72552 7.38202 6.81051C7.18308 6.89549 7.026 7.05604 6.94533 7.25684C6.86467 7.45765 6.86702 7.68225 6.95188 7.88124C7.03674 8.08023 7.19715 8.23731 7.39783 8.31793C7.5985 8.39854 7.823 8.39609 8.02194 8.3111Z" fill="url(#paint1_linear_1063_192)"/>
<defs>
<linearGradient id="paint0_linear_1063_192" x1="-1.07288e-06" y1="-18" x2="12" y2="24" gradientUnits="userSpaceOnUse">
<stop stop-color="#09F7F9"/>
<stop offset="1" stop-color="#0038F5"/>
</linearGradient>
<linearGradient id="paint1_linear_1063_192" x1="4.63916" y1="-4.68893" x2="11.1944" y2="19.7242" gradientUnits="userSpaceOnUse">
<stop stop-color="#09F7F9"/>
<stop offset="1" stop-color="#0038F5"/>
</linearGradient>
</defs>
</svg>
