<svg width="24" height="24" viewBox="0 0 24 24" fill="none" xmlns="http://www.w3.org/2000/svg">
<g clip-path="url(#clip0_3694_1472)">
<path d="M23.6393 14.9031C22.0365 21.3317 15.5254 25.2441 9.09602 23.641C2.66927 22.0382 -1.2431 15.5267 0.360399 9.09847C1.9624 2.6691 8.47352 -1.24365 14.901 0.359098C21.33 1.96185 25.242 8.4741 23.6393 14.9031Z" fill="url(#paint0_linear_3694_1472)"/>
<path d="M17.2906 10.2899C17.5295 8.69316 16.3137 7.83479 14.6513 7.26216L15.1906 5.09916L13.874 4.77104L13.349 6.87704C13.0028 6.79079 12.6473 6.70941 12.2941 6.62879L12.8228 4.50891L11.507 4.18079L10.9673 6.34304C10.6808 6.27779 10.3996 6.21329 10.1266 6.14541L10.1281 6.13866L8.31233 5.68529L7.96208 7.09154C7.96208 7.09154 8.93896 7.31541 8.91833 7.32929C9.45158 7.46241 9.54796 7.81529 9.53183 8.09504L8.91758 10.5592C8.95433 10.5685 9.00196 10.582 9.05446 10.603C9.01058 10.5922 8.96371 10.5802 8.91533 10.5685L8.05433 14.0204C7.98908 14.1824 7.82371 14.4254 7.45096 14.3332C7.46408 14.3523 6.49396 14.0943 6.49396 14.0943L5.84033 15.6014L7.55371 16.0285C7.87246 16.1084 8.18483 16.192 8.49233 16.2708L7.94746 18.4585L9.26258 18.7867L9.80221 16.6222C10.1615 16.7197 10.5102 16.8097 10.8515 16.8944L10.3137 19.0488L11.6303 19.3769L12.1752 17.1933C14.4203 17.6182 16.1086 17.4468 16.8192 15.4162C17.3918 13.7812 16.7907 12.838 15.6095 12.223C16.4697 12.0247 17.1177 11.4588 17.2906 10.2899ZM14.2823 14.5083C13.8755 16.1433 11.1226 15.2594 10.2301 15.0378L10.9531 12.1394C11.8456 12.3622 14.7076 12.8032 14.2823 14.5083ZM14.6896 10.2663C14.3183 11.7535 12.0271 10.9979 11.2838 10.8127L11.9393 8.18391C12.6826 8.36916 15.0762 8.71491 14.6896 10.2663Z" fill="white"/>
</g>
<defs>
<linearGradient id="paint0_linear_3694_1472" x1="0.000983863" y1="0.499998" x2="24.0012" y2="24.4974" gradientUnits="userSpaceOnUse">
<stop stop-color="#3F8BE6"/>
<stop offset="1" stop-color="#66F1BF"/>
</linearGradient>
<clipPath id="clip0_3694_1472">
<rect width="24" height="24" fill="white"/>
</clipPath>
</defs>
</svg>
