<svg width="24" height="24" viewBox="0 0 24 24" fill="none" xmlns="http://www.w3.org/2000/svg">
<g clip-path="url(#clip0_3694_1497)">
<path d="M12 0C18.628 0 24 5.37305 24 12C24 18.628 18.628 24 12 24C5.37305 24 0 18.6275 0 12C0 5.37305 5.37305 0 12 0Z" fill="url(#paint0_linear_3694_1497)"/>
<path d="M12.4417 12.8475H17.0015C17.0987 12.8475 17.1446 12.8475 17.1516 12.72C17.1889 12.2562 17.1889 11.7896 17.1516 11.3252C17.1516 11.235 17.1068 11.1978 17.0091 11.1978H7.93428C7.82196 11.1978 7.79172 11.235 7.79172 11.3403V12.6752C7.79172 12.8475 7.79172 12.8475 7.97154 12.8475H12.4417ZM16.6424 9.6377C16.6554 9.60368 16.6554 9.56642 16.6424 9.53294C16.5663 9.36715 16.4761 9.20893 16.3713 9.06043C16.2136 8.80663 16.0279 8.57281 15.8162 8.36274C15.7163 8.23584 15.6007 8.1219 15.4711 8.02524C14.8221 7.47282 14.0504 7.08185 13.2209 6.88529C12.8024 6.79133 12.3747 6.74651 11.946 6.75029H7.91862C7.8063 6.75029 7.79118 6.79511 7.79118 6.89285V9.55508C7.79118 9.6674 7.79118 9.69764 7.93374 9.69764H16.5884C16.5884 9.69764 16.6635 9.68252 16.6786 9.6377H16.6419H16.6424ZM16.6424 14.4076C16.515 14.3935 16.3864 14.3935 16.259 14.4076H7.94184C7.82952 14.4076 7.79172 14.4076 7.79172 14.5577V17.1605C7.79172 17.2804 7.79172 17.3106 7.94184 17.3106H11.7818C11.9654 17.3247 12.149 17.3117 12.3288 17.2734C12.8861 17.2334 13.4342 17.1125 13.957 16.9132C14.147 16.8473 14.3306 16.7614 14.504 16.6583H14.5564C15.4566 16.1901 16.1877 15.4546 16.6489 14.5517C16.6489 14.5517 16.7013 14.4383 16.6424 14.4086V14.4076ZM6.28457 18.6601V18.6153V16.8678V16.2754V14.5129C6.28457 14.4151 6.28457 14.4005 6.16469 14.4005H4.53711C4.44693 14.4005 4.40967 14.4005 4.40967 14.2807V12.8556H6.14957C6.24677 12.8556 6.28457 12.8556 6.28457 12.7281V11.3182C6.28457 11.228 6.28457 11.2059 6.16469 11.2059H4.53711C4.44693 11.2059 4.40967 11.2059 4.40967 11.086V9.76622C4.40967 9.6836 4.40967 9.66146 4.52955 9.66146H6.14201C6.25433 9.66146 6.28457 9.66146 6.28457 9.5189V5.47642C6.28457 5.35653 6.28457 5.32629 6.43469 5.32629H12.0594C12.4676 5.34249 12.8732 5.38731 13.2744 5.4613C14.1011 5.61412 14.8955 5.9095 15.6218 6.33124C16.1035 6.61475 16.5468 6.95711 16.9416 7.35131C17.2386 7.65966 17.5064 7.99338 17.744 8.3487C17.98 8.70889 18.176 9.09391 18.3299 9.49622C18.3488 9.60098 18.4493 9.67172 18.554 9.6539H19.8965C20.0687 9.6539 20.0687 9.6539 20.0763 9.81914V11.0493C20.0763 11.1692 20.0315 11.1994 19.9111 11.1994H18.8759C18.7711 11.1994 18.7409 11.1994 18.7484 11.3344C18.7895 11.7912 18.7895 12.2497 18.7484 12.7065C18.7484 12.834 18.7484 12.8491 18.8915 12.8491H20.0758C20.1281 12.9166 20.0758 12.9841 20.0758 13.0522C20.0833 13.1391 20.0833 13.2271 20.0758 13.3141V14.2218C20.0758 14.3492 20.0385 14.387 19.9256 14.387H18.5081C18.4093 14.3681 18.3132 14.4313 18.2905 14.5296C17.953 15.4071 17.413 16.1939 16.7153 16.8246C16.4604 17.0541 16.1926 17.2701 15.9129 17.4694C15.6126 17.6422 15.3205 17.822 15.0127 17.9646C14.4462 18.2195 13.8522 18.4074 13.2425 18.5267C12.6637 18.6304 12.0767 18.6774 11.4875 18.6693H6.28241V18.6617L6.28457 18.6601Z" fill="#FEFEFD"/>
</g>
<defs>
<linearGradient id="paint0_linear_3694_1497" x1="7.30106e-06" y1="0.499993" x2="24" y2="24.5" gradientUnits="userSpaceOnUse">
<stop stop-color="#3F8BE6"/>
<stop offset="1" stop-color="#66F1BF"/>
</linearGradient>
<clipPath id="clip0_3694_1497">
<rect width="24" height="24" fill="white"/>
</clipPath>
</defs>
</svg>
