<svg width="24" height="24" viewBox="0 0 24 24" fill="none" xmlns="http://www.w3.org/2000/svg">
<g clip-path="url(#clip0_3694_1488)">
<path d="M12 24C18.65 24 24 18.65 24 12C24 5.34996 18.65 0 12 0C5.34996 0 0 5.34996 0 12C0 18.65 5.34996 24 12 24Z" fill="url(#paint0_linear_3694_1488)"/>
<path fill-rule="evenodd" clip-rule="evenodd" d="M5.00053 9.55016C3.55045 13.4002 5.55049 17.7502 9.45049 19.1502C9.60049 19.2502 9.75049 19.4502 9.75049 19.6002V20.3002C9.75049 20.4002 9.75049 20.4502 9.70045 20.5002C9.65053 20.7002 9.45049 20.8002 9.25045 20.7002C6.45049 19.8002 4.30045 17.6502 3.40045 14.8502C1.90045 10.1002 4.50049 5.05016 9.25045 3.55016C9.30049 3.50024 9.40045 3.50024 9.45049 3.50024C9.65053 3.55016 9.75049 3.70016 9.75049 3.9002V4.60016C9.75049 4.85024 9.65053 5.00024 9.45049 5.1002C7.40053 5.8502 5.75053 7.45016 5.00053 9.55016ZM14.3005 3.7502C14.3504 3.55016 14.5505 3.4502 14.7505 3.55016C17.5004 4.45016 19.7005 6.6002 20.6005 9.4502C22.1005 14.2002 19.5005 19.2502 14.7505 20.7502C14.7005 20.8002 14.6005 20.8002 14.5505 20.8002C14.3504 20.7502 14.2505 20.6002 14.2505 20.4002V19.7002C14.2505 19.4502 14.3504 19.3002 14.5505 19.2002C16.6004 18.4502 18.2504 16.8502 19.0004 14.7502C20.4505 10.9002 18.4505 6.55016 14.5505 5.15024C14.4005 5.05016 14.2505 4.85024 14.2505 4.6502V3.95024C14.2505 3.85016 14.2505 3.80024 14.3005 3.7502ZM12.1504 11.3C14.2504 11.55 15.3004 12.15 15.3004 13.8999C15.3004 15.2499 14.3004 16.2999 12.8004 16.55V17.75C12.7504 18 12.6004 18.15 12.4003 18.15H11.6503C11.4004 18.0999 11.2504 17.9499 11.2504 17.75V16.55C9.60035 16.2999 8.80031 15.3999 8.60039 14.15V14.1C8.60039 13.8999 8.75039 13.7499 8.95031 13.7499H9.80039C9.95039 13.7499 10.1004 13.85 10.1503 14.0499C10.3003 14.7999 10.7503 15.35 12.0504 15.35C13.0003 15.35 13.7004 14.8 13.7004 14C13.7004 13.2 13.2504 12.9 11.8504 12.65C9.75035 12.3999 8.75039 11.75 8.75039 10.1C8.75039 8.84995 9.70031 7.84999 11.2003 7.64995V6.49999C11.2504 6.24991 11.4004 6.09991 11.6004 6.09991H12.3504C12.6004 6.14995 12.7504 6.29995 12.7504 6.49999V7.69999C13.9003 7.79995 14.8003 8.64991 15.0004 9.74995V9.79999C15.0004 9.99991 14.8504 10.1499 14.6503 10.1499H13.8504C13.7004 10.1499 13.5504 10.05 13.5004 9.89995C13.2504 9.14995 12.7504 8.84995 11.8504 8.84995C10.8504 8.84995 10.3504 9.29983 10.3504 9.99991C10.3504 10.7 10.6504 11.1 12.1504 11.3Z" fill="white"/>
</g>
<defs>
<linearGradient id="paint0_linear_3694_1488" x1="7.30106e-06" y1="0.499993" x2="24" y2="24.5" gradientUnits="userSpaceOnUse">
<stop stop-color="#3F8BE6"/>
<stop offset="1" stop-color="#66F1BF"/>
</linearGradient>
<clipPath id="clip0_3694_1488">
<rect width="24" height="24" fill="white"/>
</clipPath>
</defs>
</svg>
