<svg width="24" height="24" viewBox="0 0 24 24" fill="none" xmlns="http://www.w3.org/2000/svg">
<g clip-path="url(#clip0_3694_1480)">
<path d="M23.6393 14.9031C22.0365 21.3317 15.5254 25.2441 9.09602 23.641C2.66927 22.0382 -1.2431 15.5267 0.360399 9.09847C1.9624 2.6691 8.47352 -1.24365 14.901 0.359098C21.33 1.96185 25.242 8.4741 23.6393 14.9031Z" fill="url(#paint0_linear_3694_1480)"/>
<path fill-rule="evenodd" clip-rule="evenodd" d="M13.58 12.6648C13.4916 12.6714 13.035 12.6987 12.0164 12.6987C11.2062 12.6987 10.631 12.6743 10.4292 12.6648C7.29817 12.527 4.96116 11.982 4.96116 11.3294C4.96116 10.6769 7.29817 10.1326 10.4292 9.99265V12.122C10.6339 12.1367 11.2202 12.1713 12.0304 12.1713C13.0026 12.1713 13.4894 12.1308 13.5771 12.1227V9.99412C16.7014 10.1333 19.0333 10.6784 19.0333 11.3294C19.0333 11.9805 16.7022 12.5256 13.5771 12.664L13.58 12.6648ZM13.58 9.7739V7.8685H17.9403V4.96289H6.0689V7.8685H10.4284V9.77316C6.88498 9.93593 4.22021 10.6378 4.22021 11.479C4.22021 12.3201 6.88498 13.0213 10.4284 13.1848V19.2906H13.5793V13.1826C17.1146 13.0198 19.775 12.3186 19.775 11.4782C19.775 10.6378 17.1168 9.93667 13.5793 9.77316L13.58 9.7739Z" fill="white"/>
</g>
<defs>
<linearGradient id="paint0_linear_3694_1480" x1="0.000983863" y1="0.499998" x2="24.0012" y2="24.4974" gradientUnits="userSpaceOnUse">
<stop stop-color="#3F8BE6"/>
<stop offset="1" stop-color="#66F1BF"/>
</linearGradient>
<clipPath id="clip0_3694_1480">
<rect width="24" height="24" fill="white"/>
</clipPath>
</defs>
</svg>
