<svg width="20" height="20" viewBox="0 0 20 20" fill="none" xmlns="http://www.w3.org/2000/svg">
<circle cx="10" cy="10" r="10" fill="#EAF8EC"/>
<circle cx="10" cy="10" r="10" fill="#DEF8E0"/>
<g clip-path="url(#clip0_229_2519)">
<path fill-rule="evenodd" clip-rule="evenodd" d="M10.7124 5.88873C10.8389 5.65085 10.7486 5.35549 10.5107 5.22901C10.2729 5.10253 9.9775 5.19283 9.85102 5.43071L5.22881 14.1238C5.10233 14.3617 5.19264 14.6571 5.43051 14.7835C5.66838 14.91 5.96375 14.8197 6.09022 14.5818L10.7124 5.88873ZM10.7827 10.17C10.9092 9.9321 10.8189 9.63674 10.5811 9.51026C10.3432 9.38378 10.0478 9.47408 9.92133 9.71196L7.57621 14.1225C7.44973 14.3604 7.54003 14.6557 7.77791 14.7822C8.01578 14.9087 8.31114 14.8184 8.43762 14.5805L10.7827 10.17ZM12.7319 8.84477C12.8584 8.6069 13.1537 8.51659 13.3916 8.64307C13.6295 8.76955 13.7198 9.06492 13.5933 9.30279L10.7873 14.5802C10.6608 14.8181 10.3654 14.9084 10.1275 14.7819C9.88966 14.6554 9.79936 14.36 9.92584 14.1222L12.7319 8.84477ZM14.3296 12.334C14.4561 12.0962 14.3658 11.8008 14.1279 11.6743C13.8901 11.5478 13.5947 11.6381 13.4682 11.876L12.273 14.1238C12.1466 14.3617 12.2369 14.6571 12.4747 14.7835C12.7126 14.91 13.008 14.8197 13.1344 14.5818L14.3296 12.334Z" fill="url(#paint0_linear_229_2519)"/>
</g>
<defs>
<linearGradient id="paint0_linear_229_2519" x1="10.1666" y1="5.87942" x2="15.5288" y2="15.8503" gradientUnits="userSpaceOnUse">
<stop stop-color="#3F3CFF"/>
<stop offset="0.520833" stop-color="#6BBEE1"/>
<stop offset="1" stop-color="#8AE899"/>
</linearGradient>
<clipPath id="clip0_229_2519">
<rect width="10" height="10" fill="white" transform="translate(5 5)"/>
</clipPath>
</defs>
</svg>
