<svg width="24" height="25" viewBox="0 0 24 25" fill="none" xmlns="http://www.w3.org/2000/svg">
<circle cx="12" cy="12.5" r="12" fill="url(#paint0_linear_499_821)" fill-opacity="0.1"/>
<g clip-path="url(#clip0_499_821)">
<path fill-rule="evenodd" clip-rule="evenodd" d="M12.9593 6.96593C13.1293 6.64623 13.0079 6.24926 12.6882 6.07927C12.3685 5.90929 11.9716 6.03065 11.8016 6.35035L5.58934 18.0339C5.41935 18.3536 5.54071 18.7506 5.86041 18.9206C6.18012 19.0905 6.57709 18.9692 6.74707 18.6495L12.9593 6.96593ZM13.0542 12.7189C13.2242 12.3992 13.1029 12.0022 12.7832 11.8322C12.4635 11.6622 12.0665 11.7836 11.8965 12.1033L8.74466 18.031C8.57468 18.3507 8.69604 18.7477 9.01574 18.9177C9.33544 19.0877 9.73241 18.9663 9.9024 18.6466L13.0542 12.7189ZM15.6707 10.9404C15.8407 10.6207 16.2377 10.4993 16.5574 10.6693C16.8771 10.8393 16.9985 11.2362 16.8285 11.5559L13.0571 18.6488C12.8872 18.9685 12.4902 19.0898 12.1705 18.9198C11.8508 18.7498 11.7294 18.3529 11.8994 18.0332L15.6707 10.9404ZM17.8214 15.628C17.9914 15.3083 17.8701 14.9114 17.5504 14.7414C17.2306 14.5714 16.8337 14.6928 16.6637 15.0125L15.0574 18.0335C14.8874 18.3532 15.0088 18.7502 15.3285 18.9202C15.6482 19.0902 16.0451 18.9688 16.2151 18.6491L17.8214 15.628Z" fill="url(#paint1_linear_499_821)"/>
</g>
<defs>
<linearGradient id="paint0_linear_499_821" x1="-1.07288e-06" y1="-17.5" x2="12" y2="24.5" gradientUnits="userSpaceOnUse">
<stop stop-color="#09F7F9"/>
<stop offset="1" stop-color="#0038F5"/>
</linearGradient>
<linearGradient id="paint1_linear_499_821" x1="17.2302" y1="-3.85947" x2="15.1367" y2="21.3468" gradientUnits="userSpaceOnUse">
<stop stop-color="#09F7F9"/>
<stop offset="1" stop-color="#0038F5"/>
</linearGradient>
<clipPath id="clip0_499_821">
<rect width="13.44" height="13.44" fill="white" transform="translate(5.28027 5.7793)"/>
</clipPath>
</defs>
</svg>
