<svg width="25" height="25" viewBox="0 0 25 25" fill="none" xmlns="http://www.w3.org/2000/svg">
<circle cx="12.5" cy="12.5" r="12.5" fill="url(#paint0_linear_3682_7562)" fill-opacity="0.1"/>
<g clip-path="url(#clip0_3682_7562)">
<path fill-rule="evenodd" clip-rule="evenodd" d="M13.4977 6.43172C13.6747 6.0987 13.5483 5.68519 13.2153 5.50811C12.8823 5.33104 12.4688 5.45747 12.2917 5.79049L5.8206 17.9608C5.64353 18.2939 5.76995 18.7074 6.10297 18.8844C6.43599 19.0615 6.8495 18.9351 7.02657 18.6021L13.4977 6.43172ZM13.5963 12.4239C13.7734 12.0909 13.6469 11.6774 13.3139 11.5003C12.9809 11.3232 12.5674 11.4497 12.3903 11.7827L9.10715 17.9574C8.93008 18.2904 9.0565 18.704 9.38952 18.881C9.72254 19.0581 10.1361 18.9317 10.3131 18.5987L13.5963 12.4239ZM16.3229 10.5717C16.5 10.2387 16.9135 10.1123 17.2465 10.2894C17.5796 10.4664 17.706 10.8799 17.5289 11.213L13.6005 18.6013C13.4234 18.9343 13.0099 19.0608 12.6769 18.8837C12.3438 18.7066 12.2174 18.2931 12.3945 17.9601L16.3229 10.5717ZM18.5621 15.463C18.7392 15.1299 18.6128 14.7164 18.2797 14.5394C17.9467 14.3623 17.5332 14.4887 17.3561 14.8217L15.6829 17.9687C15.5058 18.3017 15.6322 18.7152 15.9653 18.8923C16.2983 19.0693 16.7118 18.9429 16.8889 18.6099L18.5621 15.463Z" fill="url(#paint1_linear_3682_7562)"/>
</g>
<defs>
<linearGradient id="paint0_linear_3682_7562" x1="25" y1="11" x2="-13.1507" y2="4.16277" gradientUnits="userSpaceOnUse">
<stop stop-color="#F73B47"/>
<stop offset="1" stop-color="#FF7E35"/>
</linearGradient>
<linearGradient id="paint1_linear_3682_7562" x1="17.0612" y1="7.55303" x2="9.9489" y2="20.9294" gradientUnits="userSpaceOnUse">
<stop stop-color="#FF6060"/>
<stop offset="1" stop-color="#FF2E2E"/>
</linearGradient>
<clipPath id="clip0_3682_7562">
<rect width="14" height="14" fill="white" transform="translate(5.5 5.19531)"/>
</clipPath>
</defs>
</svg>
