<svg width="24" height="24" viewBox="0 0 24 24" fill="none" xmlns="http://www.w3.org/2000/svg">
<rect width="24" height="24" rx="12" fill="url(#paint0_linear_856_1764)" fill-opacity="0.1"/>
<path fill-rule="evenodd" clip-rule="evenodd" d="M11.9631 13.1937C12.379 13.594 12.8703 13.9077 13.4083 14.1166C14.4788 14.5323 15.6702 14.5089 16.7239 14.0515C17.7777 13.5941 18.6089 12.7396 19.0372 11.6734C19.4656 10.6071 19.4565 9.41501 19.012 8.35575C18.5676 7.29648 17.7235 6.45543 16.6629 6.01503C16.1298 5.79367 15.5581 5.68036 14.9808 5.68165C14.4036 5.68295 13.8323 5.79882 13.3 6.02257C12.7677 6.24631 12.2851 6.57348 11.88 6.98511C11.4749 7.39674 11.1555 7.88466 10.9402 8.42061C10.7249 8.95655 10.618 9.52986 10.6257 10.1073C10.6335 10.6848 10.7557 11.2549 10.9852 11.7847C11.2148 12.3145 11.5472 12.7934 11.9631 13.1937ZM15.0768 13.276C14.6539 13.2763 14.2352 13.1926 13.845 13.0297C13.0706 12.7063 12.4547 12.0909 12.1307 11.3165C11.8066 10.5421 11.8005 9.67111 12.1135 8.89193C12.4265 8.11275 13.0335 7.48808 13.8032 7.15309C14.5729 6.8181 15.4434 6.79974 16.2262 7.10198C16.6207 7.25428 16.981 7.48348 17.2861 7.77627C17.5913 8.06907 17.8352 8.41963 18.0038 8.80758C18.1723 9.19554 18.2622 9.61317 18.268 10.0362C18.2739 10.4593 18.1957 10.8793 18.038 11.2719C17.8802 11.6646 17.6461 12.022 17.3492 12.3234C17.0523 12.6248 16.6986 12.8642 16.3084 13.0278C15.9183 13.1913 15.4997 13.2757 15.0768 13.276ZM8.83453 15.1816C9.05938 14.9518 9.23679 14.68 9.35665 14.3816C9.47651 14.0832 9.53647 13.7642 9.53309 13.4427C9.52972 13.1212 9.46309 12.8036 9.337 12.5079C9.21091 12.2122 9.02783 11.9443 8.79822 11.7195C8.56861 11.4946 8.29696 11.3172 7.99879 11.1975C7.70061 11.0777 7.38174 11.0178 7.0604 11.0213C6.73905 11.0249 6.42151 11.0917 6.12592 11.2179C5.83032 11.3442 5.56245 11.5275 5.33761 11.7573C5.11277 11.9871 4.93535 12.259 4.81549 12.5573C4.69563 12.8557 4.63568 13.1747 4.63905 13.4962C4.64242 13.8177 4.70906 14.1354 4.83514 14.431C4.96123 14.7267 5.14431 14.9946 5.37392 15.2195C5.60353 15.4443 5.87518 15.6217 6.17336 15.7415C6.47154 15.8613 6.7904 15.9211 7.11175 15.9176C7.4331 15.9141 7.75063 15.8473 8.04623 15.721C8.34183 15.5947 8.60969 15.4114 8.83453 15.1816ZM17.3778 18.4848C17.2164 18.8866 16.9022 19.2078 16.5041 19.3779C16.1061 19.5479 15.6569 19.5528 15.2553 19.3915C14.8538 19.2302 14.5329 18.9159 14.3631 18.5178C14.1933 18.1196 14.1886 17.6702 14.35 17.2685C14.5114 16.8667 14.8257 16.5455 15.2237 16.3754C15.6218 16.2054 16.071 16.2005 16.4725 16.3618C16.874 16.5231 17.195 16.8374 17.3647 17.2355C17.5345 17.6337 17.5392 18.0831 17.3778 18.4848ZM8.02169 8.3111C8.22063 8.22612 8.37771 8.06557 8.45838 7.86477C8.53904 7.66396 8.53669 7.43936 8.45183 7.24037C8.36697 7.04138 8.20656 6.8843 8.00588 6.80368C7.80521 6.72307 7.58071 6.72552 7.38177 6.81051C7.18283 6.89549 7.02575 7.05604 6.94509 7.25685C6.86442 7.45765 6.86678 7.68225 6.95164 7.88124C7.0365 8.08023 7.19691 8.23731 7.39758 8.31793C7.59826 8.39854 7.82276 8.39609 8.02169 8.3111Z" fill="url(#paint1_linear_856_1764)"/>
<defs>
<linearGradient id="paint0_linear_856_1764" x1="0" y1="0" x2="23.9511" y2="24.0487" gradientUnits="userSpaceOnUse">
<stop stop-color="#6BBEE1"/>
<stop offset="1" stop-color="#8AE899"/>
</linearGradient>
<linearGradient id="paint1_linear_856_1764" x1="4.63892" y1="5.68164" x2="18.4081" y2="20.3926" gradientUnits="userSpaceOnUse">
<stop stop-color="#6BBEE1"/>
<stop offset="1" stop-color="#8AE899"/>
</linearGradient>
</defs>
</svg>
