<svg width="25" height="26" viewBox="0 0 25 26" fill="none" xmlns="http://www.w3.org/2000/svg">
<g clip-path="url(#clip0_3707_487)">
<path fill-rule="evenodd" clip-rule="evenodd" d="M4.57761 3.10681L0.0192288 12.6817C0.00188286 12.7173 -0.00361396 12.7575 0.0035422 12.7965C0.0106984 12.8355 0.0301321 12.8711 0.0590014 12.8982L12.3701 24.6952C12.4051 24.7287 12.4516 24.7475 12.5001 24.7475C12.5485 24.7475 12.5951 24.7287 12.6301 24.6952L24.9412 12.899C24.97 12.8718 24.9895 12.8362 24.9966 12.7972C25.0038 12.7583 24.9983 12.718 24.9809 12.6824L20.4226 3.10755C20.4078 3.07539 20.3842 3.04815 20.3544 3.02908C20.3246 3.01001 20.29 2.99992 20.2546 3.00001H4.74701C4.71148 2.99957 4.67658 3.00942 4.64652 3.02837C4.61646 3.04732 4.59253 3.07456 4.57761 3.10681Z" fill="url(#paint0_linear_3707_487)" fill-opacity="0.1"/>
<path fill-rule="evenodd" clip-rule="evenodd" d="M14.0815 13.6648C13.9931 13.6714 13.5365 13.6987 12.5178 13.6987C11.7077 13.6987 11.1324 13.6743 10.9306 13.6648C7.79963 13.527 5.46263 12.982 5.46263 12.3294C5.46263 11.6769 7.79963 11.1326 10.9306 10.9926V13.122C11.1354 13.1367 11.7217 13.1713 12.5318 13.1713C13.5041 13.1713 13.9909 13.1308 14.0785 13.1227V10.9941C17.2029 11.1333 19.5347 11.6784 19.5347 12.3294C19.5347 12.9805 17.2036 13.5256 14.0785 13.664L14.0815 13.6648ZM14.0815 10.7739V8.8685H18.4417V5.96289H6.57037V8.8685H10.9299V10.7732C7.38644 10.9359 4.72168 11.6378 4.72168 12.479C4.72168 13.3201 7.38644 14.0213 10.9299 14.1848V20.2906H14.0808V14.1826C17.6161 14.0198 20.2764 13.3186 20.2764 12.4782C20.2764 11.6378 17.6183 10.9367 14.0808 10.7732L14.0815 10.7739Z" fill="url(#paint1_linear_3707_487)"/>
</g>
<defs>
<linearGradient id="paint0_linear_3707_487" x1="-3.99736" y1="17.2134" x2="9.76177" y2="1.89665" gradientUnits="userSpaceOnUse">
<stop stop-color="#6BBEE1"/>
<stop offset="1" stop-color="#8AE899"/>
</linearGradient>
<linearGradient id="paint1_linear_3707_487" x1="5.77939" y1="6.93718" x2="19.2272" y2="21.5966" gradientUnits="userSpaceOnUse">
<stop stop-color="#3F3CFF"/>
<stop offset="0.520833" stop-color="#6BBEE1"/>
<stop offset="1" stop-color="#8AE899"/>
</linearGradient>
<clipPath id="clip0_3707_487">
<rect width="25" height="21.7475" fill="white" transform="translate(0 3)"/>
</clipPath>
</defs>
</svg>
