<svg width="25" height="25" viewBox="0 0 25 25" fill="none" xmlns="http://www.w3.org/2000/svg">
<circle cx="12.5" cy="12.5" r="12.5" fill="url(#paint0_linear_3682_7532)" fill-opacity="0.1"/>
<g clip-path="url(#clip0_3682_7532)">
<path fill-rule="evenodd" clip-rule="evenodd" d="M13.4977 6.73641C13.6747 6.40338 13.5483 5.98987 13.2153 5.8128C12.8823 5.63573 12.4688 5.76216 12.2917 6.09518L5.8206 18.2655C5.64353 18.5986 5.76995 19.0121 6.10297 19.1891C6.43599 19.3662 6.8495 19.2398 7.02657 18.9068L13.4977 6.73641ZM13.5963 12.7286C13.7734 12.3956 13.6469 11.9821 13.3139 11.805C12.9809 11.6279 12.5674 11.7543 12.3903 12.0874L9.10715 18.2621C8.93008 18.5951 9.0565 19.0086 9.38952 19.1857C9.72254 19.3628 10.1361 19.2364 10.3131 18.9033L13.5963 12.7286ZM16.3229 10.8764C16.5 10.5434 16.9135 10.417 17.2465 10.5941C17.5796 10.7711 17.706 11.1846 17.5289 11.5177L13.6005 18.906C13.4234 19.239 13.0099 19.3655 12.6769 19.1884C12.3438 19.0113 12.2174 18.5978 12.3945 18.2648L16.3229 10.8764ZM18.5621 15.7598C18.7392 15.4268 18.6128 15.0133 18.2797 14.8362C17.9467 14.6592 17.5332 14.7856 17.3561 15.1186L15.6829 18.2655C15.5058 18.5986 15.6322 19.0121 15.9653 19.1891C16.2983 19.3662 16.7118 19.2398 16.8889 18.9068L18.5621 15.7598Z" fill="url(#paint1_linear_3682_7532)"/>
</g>
<defs>
<linearGradient id="paint0_linear_3682_7532" x1="-1.11759e-06" y1="-18.75" x2="12.5" y2="25" gradientUnits="userSpaceOnUse">
<stop stop-color="#09F7F9"/>
<stop offset="1" stop-color="#0038F5"/>
</linearGradient>
<linearGradient id="paint1_linear_3682_7532" x1="17.9465" y1="-4.54006" x2="15.7658" y2="21.7165" gradientUnits="userSpaceOnUse">
<stop stop-color="#09F7F9"/>
<stop offset="1" stop-color="#0038F5"/>
</linearGradient>
<clipPath id="clip0_3682_7532">
<rect width="14" height="14" fill="white" transform="translate(5.5 5.5)"/>
</clipPath>
</defs>
</svg>
