<svg width="25" height="26" viewBox="0 0 25 26" fill="none" xmlns="http://www.w3.org/2000/svg">
<g clip-path="url(#clip0_3707_212)">
<path d="M12.5 0.5C19.4042 0.5 25 6.09693 25 13C25 19.9042 19.4042 25.5 12.5 25.5C5.59693 25.5 0 19.9036 0 13C0 6.09693 5.59693 0.5 12.5 0.5Z" fill="url(#paint0_linear_3707_212)" fill-opacity="0.1"/>
<path d="M12.9605 13.8834H17.7103C17.8115 13.8834 17.8593 13.8834 17.8666 13.7507C17.9054 13.2675 17.9054 12.7815 17.8666 12.2977C17.8666 12.2038 17.8199 12.165 17.7181 12.165H8.26522C8.14822 12.165 8.11672 12.2038 8.11672 12.3135V13.704C8.11672 13.8834 8.11672 13.8834 8.30404 13.8834H12.9605ZM17.3362 10.5399C17.3497 10.5044 17.3497 10.4656 17.3362 10.4307C17.2569 10.2581 17.1629 10.0932 17.0538 9.93855C16.8896 9.67418 16.6961 9.43061 16.4756 9.2118C16.3715 9.07961 16.2511 8.96092 16.1161 8.86023C15.44 8.28479 14.6362 7.87753 13.7722 7.67278C13.3362 7.57491 12.8907 7.52822 12.4441 7.53216H8.24891C8.13191 7.53216 8.11616 7.57884 8.11616 7.68066V10.4538C8.11616 10.5708 8.11616 10.6023 8.26466 10.6023H17.2799C17.2799 10.6023 17.3581 10.5866 17.3739 10.5399H17.3356H17.3362ZM17.3362 15.5085C17.2034 15.4939 17.0696 15.4939 16.9368 15.5085H8.2731C8.1561 15.5085 8.11672 15.5085 8.11672 15.6649V18.3761C8.11672 18.501 8.11672 18.5325 8.2731 18.5325H12.2731C12.4643 18.5471 12.6556 18.5336 12.8429 18.4937C13.4234 18.4521 13.9943 18.3261 14.5388 18.1185C14.7369 18.0499 14.9281 17.9604 15.1087 17.853H15.1632C16.1009 17.3653 16.8626 16.5992 17.3429 15.6587C17.3429 15.6587 17.3975 15.5405 17.3362 15.5096V15.5085ZM6.54677 19.9382V19.8915V18.0713V17.4542V15.6182C6.54677 15.5164 6.54677 15.5012 6.42189 15.5012H4.7265C4.63256 15.5012 4.59375 15.5012 4.59375 15.3763V13.8918H6.40614C6.50739 13.8918 6.54677 13.8918 6.54677 13.7591V12.2904C6.54677 12.1965 6.54677 12.1734 6.42189 12.1734H4.7265C4.63256 12.1734 4.59375 12.1734 4.59375 12.0485V10.6737C4.59375 10.5877 4.59375 10.5646 4.71863 10.5646H6.39827C6.51527 10.5646 6.54677 10.5646 6.54677 10.4161V6.20521C6.54677 6.08033 6.54677 6.04883 6.70315 6.04883H12.5622C12.9875 6.0657 13.4099 6.11239 13.8278 6.18945C14.689 6.34864 15.5165 6.65633 16.2731 7.09565C16.7748 7.39097 17.2366 7.7476 17.6478 8.15822C17.9572 8.47942 18.2362 8.82704 18.4837 9.19717C18.7295 9.57236 18.9337 9.97343 19.094 10.3925C19.1137 10.5016 19.2183 10.5753 19.3275 10.5567H20.7258C20.9053 10.5567 20.9053 10.5567 20.9132 10.7289V12.0103C20.9132 12.1351 20.8665 12.1666 20.741 12.1666H19.6627C19.5536 12.1666 19.5221 12.1666 19.53 12.3073C19.5727 12.7831 19.5727 13.2607 19.53 13.7366C19.53 13.8693 19.53 13.8851 19.679 13.8851H20.9126C20.9672 13.9554 20.9126 14.0257 20.9126 14.0966C20.9205 14.1872 20.9205 14.2788 20.9126 14.3694V15.315C20.9126 15.4477 20.8738 15.4871 20.7562 15.4871H19.2796C19.1767 15.4674 19.0766 15.5332 19.053 15.6356C18.7014 16.5497 18.1389 17.3693 17.4121 18.0263C17.1466 18.2653 16.8676 18.4903 16.5762 18.6979C16.2635 18.8779 15.9592 19.0652 15.6385 19.2137C15.0485 19.4792 14.4297 19.675 13.7947 19.7993C13.1916 19.9073 12.5802 19.9562 11.9665 19.9478H6.54452V19.9399L6.54677 19.9382Z" fill="url(#paint1_linear_3707_212)"/>
</g>
<defs>
<linearGradient id="paint0_linear_3707_212" x1="-3.99798" y1="16.8392" x2="11.9018" y2="1.44165" gradientUnits="userSpaceOnUse">
<stop stop-color="#6BBEE1"/>
<stop offset="1" stop-color="#8AE899"/>
</linearGradient>
<linearGradient id="paint1_linear_3707_212" x1="5.70507" y1="6.99403" x2="18.6215" y2="22.2431" gradientUnits="userSpaceOnUse">
<stop stop-color="#3F3CFF"/>
<stop offset="0.520833" stop-color="#6BBEE1"/>
<stop offset="1" stop-color="#8AE899"/>
</linearGradient>
<clipPath id="clip0_3707_212">
<rect width="25" height="25" fill="white" transform="translate(0 0.5)"/>
</clipPath>
</defs>
</svg>
