<svg width="25" height="26" viewBox="0 0 25 26" fill="none" xmlns="http://www.w3.org/2000/svg">
<circle cx="12.5" cy="13" r="12.5" fill="url(#paint0_linear_3707_225)" fill-opacity="0.1"/>
<g clip-path="url(#clip0_3707_225)">
<path fill-rule="evenodd" clip-rule="evenodd" d="M12.4992 4.87555L12.4995 4.875V4.8761L17.4973 13.1687L17.4888 13.1738L17.4984 13.1782L12.5 16.1328V16.1227L12.4995 16.123V16.1234L12.4994 16.1234V16.1328L7.50098 13.1782L7.51002 13.1741L7.50098 13.1688L12.4982 4.87715L12.4988 4.875L12.4992 4.87555ZM12.4967 21.157L7.50098 14.1172L12.4988 17.0699L17.4995 14.1172L12.4995 21.1589V21.1609L12.4988 21.1599L12.498 21.1609L12.4967 21.157Z" fill="url(#paint1_linear_3707_225)"/>
</g>
<defs>
<linearGradient id="paint0_linear_3707_225" x1="-3.99798" y1="16.8392" x2="11.9018" y2="1.44165" gradientUnits="userSpaceOnUse">
<stop stop-color="#6BBEE1"/>
<stop offset="1" stop-color="#8AE899"/>
</linearGradient>
<linearGradient id="paint1_linear_3707_225" x1="8.18087" y1="5.98246" x2="21.8881" y2="14.4324" gradientUnits="userSpaceOnUse">
<stop stop-color="#3F3CFF"/>
<stop offset="0.520833" stop-color="#6BBEE1"/>
<stop offset="1" stop-color="#8AE899"/>
</linearGradient>
<clipPath id="clip0_3707_225">
<rect width="10" height="16.2891" fill="white" transform="translate(7.49902 4.875)"/>
</clipPath>
</defs>
</svg>
