<svg width="25" height="26" viewBox="0 0 25 26" fill="none" xmlns="http://www.w3.org/2000/svg">
<g clip-path="url(#clip0_3707_257)">
<path d="M12.5 25.5C19.4271 25.5 25 19.9271 25 13C25 6.07288 19.4271 0.5 12.5 0.5C5.57288 0.5 0 6.07288 0 13C0 19.9271 5.57288 25.5 12.5 25.5Z" fill="url(#paint0_linear_3707_257)" fill-opacity="0.1"/>
<path fill-rule="evenodd" clip-rule="evenodd" d="M5.20841 10.4485C3.69791 14.459 5.78129 18.9902 9.84379 20.4485C10 20.5527 10.1563 20.761 10.1563 20.9172V21.6465C10.1563 21.7506 10.1563 21.8027 10.1042 21.8547C10.0522 22.0631 9.84379 22.1672 9.63541 22.0631C6.71879 21.1256 4.47916 18.886 3.54166 15.9694C1.97916 11.0215 4.68754 5.76098 9.63541 4.19848C9.68754 4.14648 9.79166 4.14648 9.84379 4.14648C10.0522 4.19848 10.1563 4.35473 10.1563 4.56311V5.29223C10.1563 5.55273 10.0522 5.70898 9.84379 5.81311C7.70841 6.59436 5.98966 8.26098 5.20841 10.4485ZM14.8959 4.40686C14.9479 4.19848 15.1563 4.09436 15.3647 4.19848C18.2292 5.13598 20.5209 7.37561 21.4584 10.3444C23.0209 15.2922 20.3125 20.5527 15.3647 22.1152C15.3125 22.1672 15.2084 22.1672 15.1563 22.1672C14.9479 22.1152 14.8438 21.959 14.8438 21.7506V21.0215C14.8438 20.761 14.9479 20.6047 15.1563 20.5006C17.2917 19.7194 19.0104 18.0527 19.7917 15.8652C21.3022 11.8547 19.2188 7.32348 15.1563 5.86523C15 5.76098 14.8438 5.55273 14.8438 5.34436V4.61523C14.8438 4.51098 14.8438 4.45898 14.8959 4.40686ZM12.6564 12.2703C14.8439 12.5306 15.9376 13.1556 15.9376 14.9785C15.9376 16.3848 14.896 17.4785 13.3335 17.739V18.989C13.2814 19.2494 13.1251 19.4056 12.9167 19.4056H12.1355C11.8751 19.3535 11.7189 19.1973 11.7189 18.989V17.739C10.0001 17.4785 9.16675 16.541 8.9585 15.239V15.1869C8.9585 14.9785 9.11475 14.8223 9.323 14.8223H10.2085C10.3647 14.8223 10.521 14.9265 10.573 15.1348C10.7292 15.916 11.198 16.489 12.5522 16.489C13.5417 16.489 14.271 15.9161 14.271 15.0828C14.271 14.2494 13.8022 13.9369 12.3439 13.6765C10.1564 13.416 9.11475 12.739 9.11475 11.0203C9.11475 9.71814 10.1042 8.67652 11.6667 8.46814V7.27027C11.7189 7.00977 11.8751 6.85352 12.0835 6.85352H12.8647C13.1251 6.90564 13.2814 7.06189 13.2814 7.27027V8.52027C14.4792 8.62439 15.4167 9.50977 15.6251 10.6556V10.7078C15.6251 10.916 15.4689 11.0723 15.2605 11.0723H14.4272C14.271 11.0723 14.1147 10.9681 14.0626 10.8119C13.8022 10.0306 13.2814 9.71814 12.3439 9.71814C11.3022 9.71814 10.7814 10.1868 10.7814 10.916C10.7814 11.6453 11.0939 12.0619 12.6564 12.2703Z" fill="url(#paint1_linear_3707_257)"/>
</g>
<defs>
<linearGradient id="paint0_linear_3707_257" x1="-3.99798" y1="16.8392" x2="11.9018" y2="1.44165" gradientUnits="userSpaceOnUse">
<stop stop-color="#6BBEE1"/>
<stop offset="1" stop-color="#8AE899"/>
</linearGradient>
<linearGradient id="paint1_linear_3707_257" x1="4.37805" y1="5.37191" x2="21.3368" y2="23.1374" gradientUnits="userSpaceOnUse">
<stop stop-color="#3F3CFF"/>
<stop offset="0.520833" stop-color="#6BBEE1"/>
<stop offset="1" stop-color="#8AE899"/>
</linearGradient>
<clipPath id="clip0_3707_257">
<rect width="25" height="25" fill="white" transform="translate(0 0.5)"/>
</clipPath>
</defs>
</svg>
