<svg width="25" height="26" viewBox="0 0 25 26" fill="none" xmlns="http://www.w3.org/2000/svg">
<g clip-path="url(#clip0_3707_187)">
<path d="M24.6242 16.0241C22.9547 22.7205 16.1723 26.7959 9.47498 25.126C2.78045 23.4565 -1.29494 16.6737 0.375375 9.97758C2.04413 3.28031 8.82655 -0.79547 15.5219 0.874061C22.2187 2.54359 26.2937 9.32719 24.6242 16.0241Z" fill="url(#paint0_linear_3707_187)" fill-opacity="0.1"/>
<path d="M18.0108 11.2191C18.2597 9.55586 16.9933 8.66172 15.2616 8.06523L15.8233 5.81211L14.4519 5.47031L13.905 7.66406C13.5444 7.57422 13.1741 7.48945 12.8062 7.40547L13.3569 5.19727L11.9862 4.85547L11.4241 7.10781C11.1257 7.03984 10.8327 6.97266 10.5483 6.90195L10.5499 6.89492L8.6585 6.42266L8.29365 7.8875C8.29365 7.8875 9.31123 8.1207 9.28975 8.13516C9.84521 8.27383 9.94561 8.64141 9.92881 8.93281L9.28896 11.4996C9.32725 11.5094 9.37686 11.5234 9.43154 11.5453C9.38584 11.534 9.33701 11.5215 9.28662 11.5094L8.38975 15.1051C8.32178 15.2738 8.14951 15.527 7.76123 15.4309C7.7749 15.4508 6.76436 15.182 6.76436 15.182L6.0835 16.752L7.86826 17.1969C8.20029 17.2801 8.52568 17.3672 8.846 17.4492L8.27842 19.7281L9.64834 20.0699L10.2104 17.8152C10.5847 17.9168 10.9479 18.0105 11.3034 18.0988L10.7433 20.343L12.1147 20.6848L12.6823 18.4102C15.021 18.8527 16.7796 18.6742 17.5198 16.559C18.1163 14.8559 17.4901 13.8734 16.2597 13.2328C17.1558 13.0262 17.8308 12.4367 18.0108 11.2191ZM14.8772 15.6133C14.4534 17.3164 11.5858 16.3957 10.6562 16.1648L11.4093 13.1457C12.339 13.3777 15.3202 13.8371 14.8772 15.6133ZM15.3015 11.1945C14.9147 12.7438 12.528 11.9566 11.7538 11.7637L12.4366 9.02539C13.2108 9.21836 15.7042 9.57852 15.3015 11.1945Z" fill="url(#paint1_linear_3707_187)"/>
</g>
<defs>
<linearGradient id="paint0_linear_3707_187" x1="-3.99657" y1="16.8393" x2="11.9033" y2="1.44352" gradientUnits="userSpaceOnUse">
<stop stop-color="#6BBEE1"/>
<stop offset="1" stop-color="#8AE899"/>
</linearGradient>
<linearGradient id="paint1_linear_3707_187" x1="6.89667" y1="5.93187" x2="21.2575" y2="16.8255" gradientUnits="userSpaceOnUse">
<stop stop-color="#3F3CFF"/>
<stop offset="0.520833" stop-color="#6BBEE1"/>
<stop offset="1" stop-color="#8AE899"/>
</linearGradient>
<clipPath id="clip0_3707_187">
<rect width="25" height="25" fill="white" transform="translate(0 0.5)"/>
</clipPath>
</defs>
</svg>
