<svg width="25" height="25" viewBox="0 0 25 25" fill="none" xmlns="http://www.w3.org/2000/svg">
<circle cx="12.5" cy="12.5" r="12.5" fill="url(#paint0_linear_3682_7607)" fill-opacity="0.1"/>
<g clip-path="url(#clip0_3682_7607)">
<path fill-rule="evenodd" clip-rule="evenodd" d="M13.4977 6.35359C13.6747 6.02057 13.5483 5.60706 13.2153 5.42999C12.8823 5.25292 12.4688 5.37934 12.2917 5.71236L5.8206 17.8827C5.64353 18.2157 5.76995 18.6293 6.10297 18.8063C6.43599 18.9834 6.8495 18.857 7.02657 18.5239L13.4977 6.35359ZM13.5963 12.3458C13.7734 12.0128 13.6469 11.5992 13.3139 11.4222C12.9809 11.2451 12.5674 11.3715 12.3903 11.7046L9.10715 17.8793C8.93008 18.2123 9.0565 18.6258 9.38952 18.8029C9.72254 18.98 10.1361 18.8536 10.3131 18.5205L13.5963 12.3458ZM16.3229 10.4936C16.5 10.1606 16.9135 10.0342 17.2465 10.2112C17.5796 10.3883 17.706 10.8018 17.5289 11.1348L13.6005 18.5232C13.4234 18.8562 13.0099 18.9826 12.6769 18.8056C12.3438 18.6285 12.2174 18.215 12.3945 17.882L16.3229 10.4936ZM18.5621 15.3848C18.7392 15.0518 18.6128 14.6383 18.2797 14.4612C17.9467 14.2842 17.5332 14.4106 17.3561 14.7436L15.6829 17.8905C15.5058 18.2236 15.6322 18.6371 15.9653 18.8141C16.2983 18.9912 16.7118 18.8648 16.8889 18.5318L18.5621 15.3848Z" fill="url(#paint1_linear_3682_7607)"/>
</g>
<defs>
<linearGradient id="paint0_linear_3682_7607" x1="22.0395" y1="24.9999" x2="0.82247" y2="-0.616861" gradientUnits="userSpaceOnUse">
<stop stop-color="#3DD5D5"/>
<stop offset="1" stop-color="#5CE7A4"/>
</linearGradient>
<linearGradient id="paint1_linear_3682_7607" x1="13.3442" y1="22.6565" x2="6.87984" y2="7.59655" gradientUnits="userSpaceOnUse">
<stop stop-color="#3DD5D5"/>
<stop offset="1" stop-color="#5CE7A4"/>
</linearGradient>
<clipPath id="clip0_3682_7607">
<rect width="14" height="14" fill="white" transform="translate(5.5 5.11719)"/>
</clipPath>
</defs>
</svg>
