<svg width="25" height="26" viewBox="0 0 25 26" fill="none" xmlns="http://www.w3.org/2000/svg">
<circle cx="12.5" cy="13" r="12.5" fill="url(#paint0_linear_3684_8870)" fill-opacity="0.1"/>
<g clip-path="url(#clip0_3684_8870)">
<path d="M6.05743 17.1782C6.03842 16.929 6.12072 16.704 6.22598 16.4863C6.79806 15.3021 7.37123 14.1184 7.9455 12.9351C8.71498 11.3434 9.48348 9.75125 10.251 8.15852C10.393 7.8634 10.5159 7.56403 10.7625 7.32925C11.4101 6.71181 12.5545 6.87543 12.9726 7.66699C13.2182 8.13524 13.392 8.63824 13.5956 9.12485C14.1832 10.5224 14.7681 11.9214 15.3502 13.322C15.3965 13.4335 15.4348 13.426 15.5257 13.382C16.252 13.0295 16.9825 12.6849 17.7088 12.3327C18.1204 12.1324 18.5073 12.1662 18.8486 12.4639C19.1677 12.7423 19.2421 13.1099 19.1277 13.5089C18.7191 14.9333 18.307 16.3567 17.8915 17.7789C17.7462 18.2763 17.3603 18.595 16.8963 18.6163C16.3828 18.6403 15.9782 18.3721 15.7726 17.8805C14.805 15.5598 13.8365 13.2398 12.867 10.9204C12.5221 10.0952 12.1768 9.27022 11.8312 8.44543C11.8108 8.3969 11.8066 8.33231 11.7377 8.32509C11.66 8.31722 11.659 8.39067 11.6374 8.43494C10.8941 9.96691 10.1516 11.4992 9.40992 13.0318C8.79936 14.2943 8.1899 15.5573 7.58153 16.8211C7.5412 16.9044 7.50414 16.9896 7.4648 17.0736C7.44151 17.1231 7.40774 17.1782 7.45627 17.2241C7.5048 17.27 7.54841 17.2195 7.59006 17.1995C8.17569 16.919 8.76089 16.6377 9.34565 16.3555C10.6354 15.7364 11.9238 15.1169 13.211 14.4969C13.311 14.4487 13.3589 14.4523 13.4035 14.5661C13.5346 14.9009 13.6773 15.2317 13.8206 15.5619C13.8638 15.6603 13.8455 15.7124 13.7435 15.7616C11.8744 16.6584 10.0083 17.5635 8.13634 18.4563C7.24313 18.8826 6.28893 18.4019 6.07416 17.4382C6.05383 17.3513 6.06137 17.2647 6.05743 17.1782ZM16.754 16.6719H16.7914C17.0537 15.7656 17.316 14.8596 17.5888 13.9093C17.035 14.1739 16.5343 14.4143 16.0323 14.6517C15.9339 14.6989 15.9539 14.7625 15.9867 14.8402C16.1205 15.1563 16.249 15.4737 16.3831 15.7911C16.5062 16.0845 16.6298 16.3781 16.754 16.6719Z" fill="url(#paint1_linear_3684_8870)"/>
</g>
<defs>
<linearGradient id="paint0_linear_3684_8870" x1="12.5" y1="0.5" x2="12.5" y2="25.5" gradientUnits="userSpaceOnUse">
<stop stop-color="#FFA235"/>
<stop offset="1" stop-color="#FF6C2E"/>
</linearGradient>
<linearGradient id="paint1_linear_3684_8870" x1="12.6165" y1="6.95312" x2="12.6165" y2="18.6178" gradientUnits="userSpaceOnUse">
<stop stop-color="#FFA235"/>
<stop offset="1" stop-color="#FF6C2E"/>
</linearGradient>
<clipPath id="clip0_3684_8870">
<rect width="14" height="14" fill="white" transform="translate(5.5 6.5)"/>
</clipPath>
</defs>
</svg>
