<svg width="24" height="24" viewBox="0 0 24 24" fill="none" xmlns="http://www.w3.org/2000/svg">
<rect width="24" height="24" rx="12" fill="url(#paint0_linear_801_247)" fill-opacity="0.1"/>
<path fill-rule="evenodd" clip-rule="evenodd" d="M11.9631 13.1944C12.379 13.5947 12.8703 13.9084 13.4083 14.1173C14.4788 14.533 15.6702 14.5097 16.7239 14.0523C17.7777 13.5949 18.6089 12.7404 19.0372 11.6741C19.4656 10.6078 19.4565 9.41575 19.012 8.35648C18.5676 7.29721 17.7235 6.45616 16.6629 6.01576C16.1298 5.7944 15.5581 5.68109 14.9808 5.68238C14.4036 5.68368 13.8323 5.79955 13.3 6.0233C12.7677 6.24704 12.2851 6.57421 11.88 6.98584C11.4749 7.39748 11.1555 7.8854 10.9402 8.42134C10.7249 8.95728 10.618 9.53059 10.6257 10.1081C10.6335 10.6855 10.7557 11.2557 10.9852 11.7854C11.2148 12.3152 11.5472 12.7941 11.9631 13.1944ZM15.0768 13.2767C14.6539 13.2771 14.2352 13.1933 13.845 13.0304C13.0706 12.7071 12.4547 12.0916 12.1307 11.3172C11.8066 10.5429 11.8005 9.67184 12.1135 8.89266C12.4265 8.11349 13.0335 7.48881 13.8032 7.15382C14.5729 6.81884 15.4434 6.80047 16.2262 7.10271C16.6207 7.25501 16.981 7.48421 17.2861 7.77701C17.5913 8.0698 17.8352 8.42036 18.0038 8.80832C18.1723 9.19627 18.2622 9.6139 18.268 10.0369C18.2739 10.46 18.1957 10.88 18.038 11.2727C17.8802 11.6653 17.6461 12.0227 17.3492 12.3241C17.0523 12.6255 16.6986 12.865 16.3084 13.0285C15.9183 13.192 15.4997 13.2764 15.0768 13.2767ZM8.83453 15.1824C9.05938 14.9526 9.23679 14.6807 9.35665 14.3823C9.47651 14.084 9.53647 13.7649 9.53309 13.4434C9.52972 13.122 9.46309 12.8043 9.337 12.5086C9.21091 12.213 9.02783 11.945 8.79822 11.7202C8.56861 11.4954 8.29696 11.318 7.99879 11.1982C7.70061 11.0784 7.38174 11.0186 7.0604 11.0221C6.73905 11.0256 6.42151 11.0924 6.12592 11.2187C5.83032 11.3449 5.56245 11.5282 5.33761 11.758C5.11277 11.9878 4.93535 12.2597 4.81549 12.5581C4.69563 12.8564 4.63568 13.1755 4.63905 13.497C4.64242 13.8184 4.70906 14.1361 4.83515 14.4318C4.96123 14.7274 5.14431 14.9954 5.37392 15.2202C5.60353 15.445 5.87518 15.6224 6.17336 15.7422C6.47154 15.862 6.7904 15.9218 7.11175 15.9183C7.4331 15.9148 7.75063 15.848 8.04623 15.7217C8.34183 15.5955 8.60969 15.4122 8.83453 15.1824ZM17.3778 18.4856C17.2164 18.8873 16.9022 19.2086 16.5041 19.3786C16.1061 19.5487 15.6569 19.5536 15.2553 19.3923C14.8538 19.231 14.5329 18.9167 14.3631 18.5185C14.1933 18.1204 14.1886 17.671 14.35 17.2692C14.5114 16.8674 14.8257 16.5462 15.2237 16.3762C15.6218 16.2061 16.071 16.2012 16.4725 16.3625C16.874 16.5238 17.195 16.8381 17.3647 17.2362C17.5345 17.6344 17.5392 18.0838 17.3778 18.4856ZM8.02169 8.31183C8.22063 8.22685 8.37771 8.0663 8.45838 7.8655C8.53904 7.6647 8.53669 7.4401 8.45183 7.2411C8.36697 7.04211 8.20656 6.88503 8.00588 6.80442C7.80521 6.7238 7.58071 6.72626 7.38177 6.81124C7.18283 6.89622 7.02575 7.05678 6.94509 7.25758C6.86442 7.45838 6.86678 7.68298 6.95164 7.88197C7.0365 8.08096 7.19691 8.23804 7.39758 8.31866C7.59826 8.39927 7.82276 8.39682 8.02169 8.31183Z" fill="url(#paint1_linear_801_247)"/>
<defs>
<linearGradient id="paint0_linear_801_247" x1="-1.07288e-06" y1="-18" x2="12" y2="24" gradientUnits="userSpaceOnUse">
<stop stop-color="#09F7F9"/>
<stop offset="1" stop-color="#0038F5"/>
</linearGradient>
<linearGradient id="paint1_linear_801_247" x1="4.63892" y1="-4.6882" x2="11.1942" y2="19.725" gradientUnits="userSpaceOnUse">
<stop stop-color="#09F7F9"/>
<stop offset="1" stop-color="#0038F5"/>
</linearGradient>
</defs>
</svg>
