<svg width="25" height="26" viewBox="0 0 25 26" fill="none" xmlns="http://www.w3.org/2000/svg">
<g clip-path="url(#clip0_3682_8596)">
<path d="M24.6243 16.0241C22.9548 22.7205 16.1724 26.7959 9.47511 25.126C2.78058 23.4565 -1.29482 16.6737 0.375497 9.97758C2.04425 3.28031 8.82667 -0.79547 15.522 0.874061C22.2189 2.54359 26.2939 9.32719 24.6243 16.0241Z" fill="#F7931A"/>
<path d="M18.011 11.2187C18.2598 9.55537 16.9934 8.66123 15.2617 8.06475L15.8235 5.81162L14.452 5.46982L13.9051 7.66357C13.5446 7.57373 13.1742 7.48896 12.8063 7.40498L13.3571 5.19678L11.9864 4.85498L11.4242 7.10732C11.1258 7.03936 10.8328 6.97217 10.5485 6.90146L10.55 6.89443L8.65862 6.42217L8.29377 7.88701C8.29377 7.88701 9.31135 8.12021 9.28987 8.13467C9.84534 8.27334 9.94573 8.64092 9.92893 8.93232L9.28909 11.4991C9.32737 11.5089 9.37698 11.5229 9.43166 11.5448C9.38596 11.5335 9.33713 11.521 9.28674 11.5089L8.38987 15.1046C8.3219 15.2733 8.14963 15.5265 7.76135 15.4304C7.77502 15.4503 6.76448 15.1815 6.76448 15.1815L6.08362 16.7515L7.86838 17.1964C8.20042 17.2796 8.52581 17.3667 8.84612 17.4487L8.27854 19.7276L9.64846 20.0694L10.2106 17.8147C10.5848 17.9163 10.9481 18.0101 11.3035 18.0983L10.7434 20.3425L12.1149 20.6843L12.6824 18.4097C15.0211 18.8522 16.7797 18.6737 17.5199 16.5585C18.1164 14.8554 17.4903 13.8729 16.2598 13.2323C17.1559 13.0257 17.8309 12.4362 18.011 11.2187ZM14.8774 15.6128C14.4535 17.3159 11.586 16.3952 10.6563 16.1644L11.4094 13.1452C12.3391 13.3772 15.3203 13.8366 14.8774 15.6128ZM15.3016 11.194C14.9149 12.7433 12.5281 11.9562 11.7539 11.7632L12.4367 9.0249C13.211 9.21787 15.7043 9.57803 15.3016 11.194Z" fill="white"/>
</g>
<defs>
<clipPath id="clip0_3682_8596">
<rect width="25" height="25" fill="white" transform="translate(0 0.5)"/>
</clipPath>
</defs>
</svg>
