<svg width="25" height="26" viewBox="0 0 25 26" fill="none" xmlns="http://www.w3.org/2000/svg">
<g clip-path="url(#clip0_3694_1065)">
<path d="M12.5 0.5C19.4042 0.5 25 6.09693 25 13C25 19.9042 19.4042 25.5 12.5 25.5C5.59693 25.5 0 19.9036 0 13C0 6.09693 5.59693 0.5 12.5 0.5Z" fill="#F5AC37"/>
<path d="M12.9607 13.8824H17.7105C17.8118 13.8824 17.8596 13.8824 17.8669 13.7497C17.9057 13.2665 17.9057 12.7805 17.8669 12.2967C17.8669 12.2028 17.8202 12.164 17.7184 12.164H8.26547C8.14847 12.164 8.11697 12.2028 8.11697 12.3125V13.703C8.11697 13.8824 8.11697 13.8824 8.30428 13.8824H12.9607ZM17.3364 10.5389C17.3499 10.5035 17.3499 10.4646 17.3364 10.4298C17.2571 10.2571 17.1632 10.0923 17.0541 9.93758C16.8898 9.6732 16.6963 9.42964 16.4758 9.21082C16.3717 9.07863 16.2514 8.95994 16.1164 8.85925C15.4402 8.28381 14.6364 7.87656 13.7724 7.67181C13.3365 7.57393 12.891 7.52724 12.4443 7.53118H8.24916C8.13215 7.53118 8.1164 7.57787 8.1164 7.67968V10.4528C8.1164 10.5698 8.1164 10.6013 8.26491 10.6013H17.2802C17.2802 10.6013 17.3584 10.5856 17.3741 10.5389H17.3359H17.3364ZM17.3364 15.5075C17.2037 15.4929 17.0698 15.4929 16.9371 15.5075H8.27334C8.15634 15.5075 8.11697 15.5075 8.11697 15.6639V18.3752C8.11697 18.5 8.11697 18.5315 8.27334 18.5315H12.2733C12.4646 18.5462 12.6558 18.5327 12.8431 18.4927C13.4236 18.4511 13.9946 18.3251 14.5391 18.1175C14.7371 18.0489 14.9283 17.9595 15.1089 17.852H15.1635C16.1012 17.3643 16.8628 16.5982 17.3432 15.6577C17.3432 15.6577 17.3977 15.5396 17.3364 15.5086V15.5075ZM6.54701 19.9372V19.8906V18.0703V17.4532V15.6172C6.54701 15.5154 6.54701 15.5002 6.42214 15.5002H4.72675C4.63281 15.5002 4.59399 15.5002 4.59399 15.3753V13.8909H6.40639C6.50764 13.8909 6.54701 13.8909 6.54701 13.7581V12.2894C6.54701 12.1955 6.54701 12.1724 6.42214 12.1724H4.72675C4.63281 12.1724 4.59399 12.1724 4.59399 12.0475V10.6728C4.59399 10.5867 4.59399 10.5636 4.71887 10.5636H6.39851C6.51551 10.5636 6.54701 10.5636 6.54701 10.4151V6.20423C6.54701 6.07935 6.54701 6.04785 6.70339 6.04785H12.5624C12.9877 6.06473 13.4101 6.11141 13.8281 6.18848C14.6893 6.34767 15.5167 6.65536 16.2733 7.09467C16.7751 7.38999 17.2369 7.74662 17.6481 8.15725C17.9574 8.47844 18.2364 8.82607 18.4839 9.1962C18.7298 9.57139 18.934 9.97245 19.0943 10.3915C19.114 10.5006 19.2186 10.5743 19.3277 10.5558H20.7261C20.9055 10.5558 20.9055 10.5558 20.9134 10.7279V12.0093C20.9134 12.1342 20.8667 12.1657 20.7413 12.1657H19.663C19.5538 12.1657 19.5223 12.1657 19.5302 12.3063C19.573 12.7822 19.573 13.2597 19.5302 13.7356C19.5302 13.8684 19.5302 13.8841 19.6793 13.8841H20.9128C20.9674 13.9544 20.9128 14.0247 20.9128 14.0956C20.9207 14.1862 20.9207 14.2779 20.9128 14.3684V15.314C20.9128 15.4468 20.874 15.4861 20.7565 15.4861H19.2799C19.177 15.4664 19.0768 15.5323 19.0532 15.6346C18.7016 16.5487 18.1391 17.3683 17.4124 18.0253C17.1469 18.2643 16.8679 18.4894 16.5765 18.6969C16.2637 18.8769 15.9594 19.0642 15.6388 19.2127C15.0487 19.4782 14.43 19.674 13.7949 19.7983C13.1919 19.9063 12.5804 19.9552 11.9668 19.9468H6.54476V19.9389L6.54701 19.9372Z" fill="#FEFEFD"/>
</g>
<defs>
<clipPath id="clip0_3694_1065">
<rect width="25" height="25" fill="white" transform="translate(0 0.5)"/>
</clipPath>
</defs>
</svg>
