<svg width="25" height="26" viewBox="0 0 25 26" fill="none" xmlns="http://www.w3.org/2000/svg">
<g clip-path="url(#clip0_3694_1057)">
<path d="M12.5 25.5C19.4271 25.5 25 19.9271 25 13C25 6.07288 19.4271 0.5 12.5 0.5C5.57288 0.5 0 6.07288 0 13C0 19.9271 5.57288 25.5 12.5 25.5Z" fill="#2775CA"/>
<path d="M15.9375 14.979C15.9375 13.1561 14.8437 12.5311 12.6562 12.2708C11.0937 12.0624 10.7812 11.6458 10.7812 10.9165C10.7812 10.1873 11.3021 9.71863 12.3437 9.71863C13.2812 9.71863 13.8021 10.0311 14.0625 10.8124C14.1146 10.9686 14.2709 11.0728 14.4271 11.0728H15.2604C15.4687 11.0728 15.625 10.9165 15.625 10.7083V10.6561C15.4166 9.51025 14.4791 8.62488 13.2812 8.52075V7.27075C13.2812 7.06238 13.125 6.90613 12.8646 6.854H12.0834C11.875 6.854 11.7187 7.01025 11.6666 7.27075V8.46863C10.1041 8.677 9.11462 9.71863 9.11462 11.0208C9.11462 12.7395 10.1562 13.4165 12.3437 13.677C13.8021 13.9374 14.2709 14.2499 14.2709 15.0833C14.2709 15.9166 13.5416 16.4895 12.5521 16.4895C11.1979 16.4895 10.7291 15.9165 10.5729 15.1353C10.5209 14.927 10.3646 14.8228 10.2084 14.8228H9.32287C9.11462 14.8228 8.95837 14.979 8.95837 15.1874V15.2395C9.16662 16.5415 10 17.479 11.7187 17.7395V18.9895C11.7187 19.1978 11.875 19.354 12.1354 19.4061H12.9166C13.125 19.4061 13.2812 19.2499 13.3334 18.9895V17.7395C14.8959 17.479 15.9375 16.3853 15.9375 14.979Z" fill="white"/>
<path d="M9.84375 20.448C5.78125 18.9897 3.69788 14.4585 5.20838 10.448C5.98963 8.2605 7.70838 6.59387 9.84375 5.81262C10.0521 5.7085 10.1563 5.55225 10.1563 5.29175V4.56262C10.1563 4.35425 10.0521 4.198 9.84375 4.146C9.79163 4.146 9.6875 4.146 9.63538 4.198C4.6875 5.7605 1.97913 11.021 3.54163 15.9689C4.47913 18.8855 6.71875 21.1251 9.63538 22.0626C9.84375 22.1667 10.0521 22.0626 10.1041 21.8542C10.1563 21.8022 10.1563 21.7501 10.1563 21.646V20.9167C10.1563 20.7605 10 20.5522 9.84375 20.448ZM15.3646 4.198C15.1563 4.09387 14.9479 4.198 14.8959 4.40637C14.8438 4.4585 14.8438 4.5105 14.8438 4.61475V5.34387C14.8438 5.55225 15 5.7605 15.1563 5.86475C19.2188 7.323 21.3021 11.8542 19.7916 15.8647C19.0104 18.0522 17.2916 19.7189 15.1563 20.5001C14.9479 20.6042 14.8438 20.7605 14.8438 21.021V21.7501C14.8438 21.9585 14.9479 22.1147 15.1563 22.1667C15.2084 22.1667 15.3125 22.1667 15.3646 22.1147C20.3125 20.5522 23.0209 15.2917 21.4584 10.3439C20.5209 7.37512 18.2291 5.1355 15.3646 4.198Z" fill="white"/>
</g>
<defs>
<clipPath id="clip0_3694_1057">
<rect width="25" height="25" fill="white" transform="translate(0 0.5)"/>
</clipPath>
</defs>
</svg>
