<svg width="25" height="22" viewBox="0 0 25 22" fill="none" xmlns="http://www.w3.org/2000/svg">
<g clip-path="url(#clip0_3694_1050)">
<path fill-rule="evenodd" clip-rule="evenodd" d="M4.57764 0.106811L0.0192593 9.68169C0.00191337 9.7173 -0.00358344 9.75753 0.00357271 9.79649C0.0107289 9.83545 0.0301626 9.8711 0.0590319 9.89823L12.3701 21.6952C12.4051 21.7287 12.4517 21.7475 12.5001 21.7475C12.5486 21.7475 12.5951 21.7287 12.6301 21.6952L24.9412 9.89896C24.9701 9.87184 24.9895 9.83619 24.9966 9.79723C25.0038 9.75827 24.9983 9.71804 24.981 9.68242L20.4226 0.107547C20.4079 0.075391 20.3842 0.0481504 20.3544 0.0290812C20.3247 0.0100121 20.29 -7.88814e-05 20.2547 1.42536e-05H4.74704C4.71151 -0.000427783 4.67661 0.00942015 4.64655 0.0283701C4.61649 0.04732 4.59256 0.0745624 4.57764 0.106811Z" fill="#50AF95"/>
<path fill-rule="evenodd" clip-rule="evenodd" d="M14.0817 10.6648C13.9933 10.6714 13.5367 10.6987 12.5181 10.6987C11.7079 10.6987 11.1326 10.6743 10.9308 10.6648C7.79985 10.527 5.46284 9.98201 5.46284 9.32945C5.46284 8.67688 7.79985 8.13259 10.9308 7.99265V10.122C11.1356 10.1367 11.7219 10.1713 12.532 10.1713C13.5043 10.1713 13.9911 10.1308 14.0788 10.1227V7.99412C17.2031 8.13332 19.535 8.67835 19.535 9.32945C19.535 9.98054 17.2038 10.5256 14.0788 10.664L14.0817 10.6648ZM14.0817 7.7739V5.8685H18.442V2.96289H6.57058V5.8685H10.9301V7.77316C7.38665 7.93593 4.72189 8.63785 4.72189 9.47896C4.72189 10.3201 7.38665 11.0213 10.9301 11.1848V17.2906H14.081V11.1826C17.6163 11.0198 20.2766 10.3186 20.2766 9.47823C20.2766 8.63785 17.6185 7.93667 14.081 7.77316L14.0817 7.7739Z" fill="white"/>
</g>
<defs>
<clipPath id="clip0_3694_1050">
<rect width="25" height="21.7475" fill="white"/>
</clipPath>
</defs>
</svg>
