<svg width="24" height="24" viewBox="0 0 24 24" fill="none" xmlns="http://www.w3.org/2000/svg">
<circle cx="12" cy="12" r="12" fill="url(#paint0_linear_3694_793)" fill-opacity="0.1"/>
<g clip-path="url(#clip0_3694_793)">
<path fill-rule="evenodd" clip-rule="evenodd" d="M12.9591 6.46695C13.1291 6.14725 13.0077 5.75028 12.688 5.58029C12.3683 5.4103 11.9714 5.53167 11.8014 5.85137L5.58914 17.5349C5.41915 17.8546 5.54052 18.2516 5.86022 18.4216C6.17992 18.5916 6.57689 18.4702 6.74688 18.1505L12.9591 6.46695ZM13.054 12.2195C13.224 11.8998 13.1027 11.5028 12.783 11.3328C12.4633 11.1628 12.0663 11.2842 11.8963 11.6039L8.74446 17.5316C8.57447 17.8513 8.69584 18.2483 9.01554 18.4183C9.33524 18.5883 9.73221 18.4669 9.9022 18.1472L13.054 12.2195ZM15.6705 10.4414C15.8405 10.1217 16.2375 10.0003 16.5572 10.1703C16.8769 10.3403 16.9983 10.7372 16.8283 11.0569L13.0569 18.1498C12.887 18.4695 12.49 18.5908 12.1703 18.4208C11.8506 18.2509 11.7292 17.8539 11.8992 17.5342L15.6705 10.4414ZM17.8212 15.1295C17.9912 14.8098 17.8699 14.4128 17.5502 14.2428C17.2305 14.0728 16.8335 14.1942 16.6635 14.5139L15.0572 17.5349C14.8872 17.8546 15.0086 18.2516 15.3283 18.4216C15.648 18.5916 16.0449 18.4702 16.2149 18.1505L17.8212 15.1295Z" fill="url(#paint1_linear_3694_793)"/>
</g>
<defs>
<linearGradient id="paint0_linear_3694_793" x1="-1.07288e-06" y1="-18" x2="12" y2="24" gradientUnits="userSpaceOnUse">
<stop stop-color="#09F7F9"/>
<stop offset="1" stop-color="#0038F5"/>
</linearGradient>
<linearGradient id="paint1_linear_3694_793" x1="17.23" y1="-4.35846" x2="15.1361" y2="20.8479" gradientUnits="userSpaceOnUse">
<stop stop-color="#09F7F9"/>
<stop offset="1" stop-color="#0038F5"/>
</linearGradient>
<clipPath id="clip0_3694_793">
<rect width="13.44" height="13.44" fill="white" transform="translate(5.28027 5.28)"/>
</clipPath>
</defs>
</svg>
