<svg width="20" height="20" viewBox="0 0 20 20" fill="none" xmlns="http://www.w3.org/2000/svg">
<circle cx="10" cy="10" r="10" fill="#EAF8EC"/>
<circle cx="10" cy="10" r="10" fill="#DEF8E0"/>
<g clip-path="url(#clip0_3463_1814)">
<path fill-rule="evenodd" clip-rule="evenodd" d="M10.7125 5.88873C10.839 5.65085 10.7487 5.35549 10.5108 5.22901C10.2729 5.10253 9.97755 5.19283 9.85107 5.43071L5.22886 14.1238C5.10238 14.3617 5.19268 14.6571 5.43055 14.7835C5.66843 14.91 5.96379 14.8197 6.09027 14.5818L10.7125 5.88873ZM10.7828 10.17C10.9093 9.9321 10.819 9.63674 10.5811 9.51026C10.3432 9.38378 10.0479 9.47408 9.92138 9.71196L7.57626 14.1225C7.44978 14.3604 7.54008 14.6557 7.77795 14.7822C8.01582 14.9087 8.31119 14.8184 8.43767 14.5805L10.7828 10.17ZM12.7319 8.84477C12.8584 8.6069 13.1538 8.51659 13.3916 8.64307C13.6295 8.76955 13.7198 9.06492 13.5933 9.30279L10.7873 14.5802C10.6608 14.8181 10.3655 14.9084 10.1276 14.7819C9.88971 14.6554 9.79941 14.36 9.92589 14.1222L12.7319 8.84477ZM14.3297 12.334C14.4561 12.0962 14.3658 11.8008 14.128 11.6743C13.8901 11.5478 13.5947 11.6381 13.4683 11.876L12.2731 14.1238C12.1466 14.3617 12.2369 14.6571 12.4748 14.7835C12.7126 14.91 13.008 14.8197 13.1345 14.5818L14.3297 12.334Z" fill="url(#paint0_linear_3463_1814)"/>
</g>
<defs>
<linearGradient id="paint0_linear_3463_1814" x1="10.1666" y1="5.87942" x2="15.5289" y2="15.8503" gradientUnits="userSpaceOnUse">
<stop stop-color="#3F3CFF"/>
<stop offset="0.520833" stop-color="#6BBEE1"/>
<stop offset="1" stop-color="#8AE899"/>
</linearGradient>
<clipPath id="clip0_3463_1814">
<rect width="10" height="10" fill="white" transform="translate(5 5)"/>
</clipPath>
</defs>
</svg>
