<svg width="18" height="18" viewBox="0 0 18 18" fill="none" xmlns="http://www.w3.org/2000/svg">
<g clip-path="url(#clip0_3487_1426)">
<path fill-rule="evenodd" clip-rule="evenodd" d="M10.2848 1.58408C10.5125 1.15591 10.3499 0.624256 9.92176 0.396594C9.49359 0.168932 8.96193 0.331476 8.73427 0.759646L0.414289 16.4072C0.186628 16.8354 0.349172 17.3671 0.777342 17.5947C1.20551 17.8224 1.73717 17.6599 1.96483 17.2317L10.2848 1.58408ZM10.4118 9.28721C10.6394 8.85904 10.4769 8.32738 10.0487 8.09972C9.62054 7.87206 9.08888 8.0346 8.86122 8.46277L4.64 16.4017C4.41233 16.8299 4.57488 17.3616 5.00305 17.5892C5.43122 17.8169 5.96288 17.6543 6.19054 17.2262L10.4118 9.28721ZM13.9198 6.90808C14.1475 6.47991 14.6791 6.31737 15.1073 6.54503C15.5355 6.77269 15.698 7.30435 15.4704 7.73252L10.4195 17.2318C10.1918 17.66 9.66016 17.8225 9.23199 17.5949C8.80382 17.3672 8.64128 16.8356 8.86894 16.4074L13.9198 6.90808ZM16.7965 13.1856C17.0242 12.7575 16.8616 12.2258 16.4335 11.9982C16.0053 11.7705 15.4736 11.933 15.246 12.3612L13.0947 16.4073C12.867 16.8354 13.0295 17.3671 13.4577 17.5947C13.8859 17.8224 14.4175 17.6599 14.6452 17.2317L16.7965 13.1856Z" fill="url(#paint0_linear_3487_1426)"/>
</g>
<defs>
<linearGradient id="paint0_linear_3487_1426" x1="9.3023" y1="1.56734" x2="18.9542" y2="19.5159" gradientUnits="userSpaceOnUse">
<stop stop-color="#3F3CFF"/>
<stop offset="0.520833" stop-color="#6BBEE1"/>
<stop offset="1" stop-color="#8AE899"/>
</linearGradient>
<clipPath id="clip0_3487_1426">
<rect width="18" height="18" fill="white"/>
</clipPath>
</defs>
</svg>
