<svg width="30" height="30" viewBox="0 0 30 30" fill="none" xmlns="http://www.w3.org/2000/svg">
<path d="M4.33668 16.918L11.4679 23.334L11.4741 23.3252L11.8942 23.7048C12.2215 24.0005 12.6471 24.1812 13.1152 24.1812C14.1287 24.1812 14.9504 23.3592 14.9504 22.3453C14.9504 21.8107 14.7145 21.3295 14.3382 20.9885L14.0338 20.7128L14.0378 20.7062L11.0839 18.0474L10.1155 17.1758H11.4184H25.5684C26.5823 17.1758 27.4043 16.3541 27.4043 15.3406C27.4043 14.3268 26.5827 13.5047 25.5684 13.5047H11.4184H10.1152L11.0839 12.633L14.0226 9.98865L14.0187 9.98281L14.3382 9.69348C14.7144 9.3527 14.9504 8.87075 14.9504 8.33594C14.9504 7.32202 14.1287 6.5 13.1152 6.5C12.6468 6.5 12.2217 6.68117 11.8938 6.97684L11.4545 7.37285L11.4487 7.36378L4.45195 13.6595L4.45622 13.665L4.11296 13.9765C3.73604 14.3185 3.49961 14.8008 3.49961 15.3352C3.49961 15.8697 3.73613 16.3515 4.11228 16.6916L4.34192 16.8992L4.33668 16.918Z" fill="black" fill-opacity="0.4" stroke="white"/>
</svg>
