<svg width="20" height="20" viewBox="0 0 20 20" fill="none" xmlns="http://www.w3.org/2000/svg">
<path d="M15.5219 2.51074H2.87434C1.98132 2.51074 1.25684 3.23535 1.25684 4.12825V15.839C1.25684 16.732 1.98144 17.4565 2.87434 17.4565H15.5219C16.415 17.4565 17.1395 16.7319 17.1395 15.839V13.475C17.1395 13.2773 16.9712 13.109 16.7663 13.109C16.5613 13.109 16.4003 13.2773 16.4003 13.4823V15.7439C16.4003 16.2783 15.9611 16.7174 15.4268 16.7174H2.95484C2.42059 16.7174 1.98134 16.2783 1.98134 15.7439V4.22348C1.98134 3.68912 2.42061 3.24998 2.95484 3.24998H15.4341C15.9684 3.24998 16.4076 3.68914 16.4076 4.22348V6.62415C16.4076 6.82903 16.5759 6.99742 16.7735 6.99742C16.9785 6.99742 17.1469 6.82903 17.1469 6.62415V4.13556C17.1469 3.24267 16.415 2.51074 15.5219 2.51074Z" fill="#272636"/>
<path d="M16.0273 10.0572C16.0273 10.3134 16.2395 10.5257 16.4957 10.5257C16.7519 10.5257 16.9641 10.3134 16.9641 10.0572C16.9641 9.80108 16.7518 9.58887 16.4957 9.58887C16.2395 9.58877 16.0273 9.79373 16.0273 10.0572Z" fill="#272636"/>
<path d="M18.7208 9.40569C18.7208 8.51267 17.9962 7.78809 17.1032 7.78809H10.5892C9.76946 7.78809 9.08143 8.40293 8.98631 9.22265V9.25193L8.97168 9.28121V9.31047V10.7231C8.97168 11.6161 9.69629 12.3407 10.5892 12.3407H17.1032C17.9962 12.3407 18.7208 11.6161 18.7208 10.7231V9.40569ZM17.9816 10.6353C17.9816 11.1695 17.5425 11.6088 17.0082 11.6088H10.677C10.1427 11.6088 9.70358 11.1695 9.70358 10.6353V9.49349C9.70358 8.95923 10.1427 8.52001 10.677 8.52001H17.0154C17.5498 8.52001 17.9889 8.95923 17.9889 9.49349L17.9816 10.6353Z" fill="#272636"/>
</svg>
