<svg width="15" height="15" viewBox="0 0 15 15" fill="none" xmlns="http://www.w3.org/2000/svg">
<g clip-path="url(#clip0_3833_266)">
<path d="M0.000976562 12.0092C0.000976562 12.831 0.667197 13.4973 1.48909 13.4973H13.5129C14.3348 13.4973 15.001 12.831 15.001 12.0092V6.3513H0.000976562V12.0092ZM9.19917 11.1889L9.55906 9.92512C9.60928 9.74936 9.76998 9.62716 9.95411 9.62716H12.6692C12.9421 9.62716 13.1396 9.88829 13.0643 10.1511L12.7044 11.4149C12.6541 11.5907 12.4934 11.7129 12.3093 11.7129H9.59421C9.32137 11.7112 9.12384 11.4501 9.19917 11.1889ZM13.5112 1.50195H1.48909C0.667197 1.50195 0.000976562 2.16817 0.000976562 2.99007V4.47818H14.9993V2.99007C14.9993 2.16817 14.3331 1.50195 13.5112 1.50195Z" fill="#A1CEA8"/>
</g>
<defs>
<clipPath id="clip0_3833_266">
<rect width="15" height="15" fill="white"/>
</clipPath>
</defs>
</svg>
