<svg width="15" height="15" viewBox="0 0 15 15" fill="none" xmlns="http://www.w3.org/2000/svg">
<g clip-path="url(#clip0_1_7184)">
<path d="M0.000976562 12.0101C0.000976562 12.832 0.667197 13.4982 1.48909 13.4982H13.5129C14.3348 13.4982 15.001 12.832 15.001 12.0101V6.35228H0.000976562V12.0101ZM9.19917 11.1899L9.55906 9.9261C9.60928 9.75033 9.76998 9.62814 9.95411 9.62814H12.6692C12.9421 9.62814 13.1396 9.88927 13.0643 10.1521L12.7044 11.4159C12.6541 11.5916 12.4934 11.7138 12.3093 11.7138H9.59421C9.32137 11.7122 9.12384 11.451 9.19917 11.1899ZM13.5112 1.50293H1.48909C0.667197 1.50293 0.000976562 2.16915 0.000976562 2.99104V4.47916H14.9993V2.99104C14.9993 2.16915 14.3331 1.50293 13.5112 1.50293Z" fill="#8F8EFF"/>
</g>
<defs>
<clipPath id="clip0_1_7184">
<rect width="15" height="15" fill="white"/>
</clipPath>
</defs>
</svg>
