<svg width="20" height="20" viewBox="0 0 20 20" fill="none" xmlns="http://www.w3.org/2000/svg">
<path d="M9.84375 3.6913L7.26562 5.21474C7.2177 5.2424 7.17799 5.28229 7.15053 5.33033C7.12308 5.37838 7.10888 5.43284 7.10937 5.48817V7.57802L9.02343 6.42567C9.04135 6.41525 9.06115 6.4085 9.0817 6.4058C9.10225 6.40311 9.12313 6.40453 9.14313 6.40998C9.16312 6.41544 9.18183 6.42481 9.19817 6.43757C9.2145 6.45032 9.22814 6.46619 9.23828 6.48427L9.82422 7.4413C9.83464 7.45921 9.84139 7.47902 9.84409 7.49957C9.84678 7.52012 9.84536 7.541 9.83991 7.56099C9.83445 7.58099 9.82508 7.5997 9.81233 7.61603C9.79957 7.63237 9.7837 7.646 9.76562 7.65614L3.51562 11.4257C3.4677 11.4533 3.42799 11.4932 3.40053 11.5413C3.37308 11.5893 3.35888 11.6438 3.35937 11.6991V14.6874C3.36077 14.7447 3.37791 14.8005 3.40891 14.8488C3.43992 14.897 3.48359 14.9358 3.53515 14.9608L6.17187 16.3866C6.21938 16.414 6.27327 16.4285 6.32812 16.4285C6.38298 16.4285 6.43687 16.414 6.48437 16.3866L8.59375 15.1171L6.5625 13.8671C6.54442 13.8569 6.52855 13.8433 6.51579 13.827C6.50304 13.8106 6.49367 13.7919 6.48821 13.7719C6.48276 13.7519 6.48134 13.7311 6.48403 13.7105C6.48673 13.69 6.49348 13.6702 6.5039 13.6522L7.08984 12.6952C7.09998 12.6771 7.11362 12.6613 7.12995 12.6485C7.14629 12.6358 7.165 12.6264 7.18499 12.6209C7.20499 12.6155 7.22587 12.614 7.24642 12.6167C7.26696 12.6194 7.28677 12.6262 7.30468 12.6366L13.5352 16.3866C13.5827 16.414 13.6365 16.4285 13.6914 16.4285C13.7463 16.4285 13.8001 16.414 13.8477 16.3866L16.4844 14.9608C16.5359 14.9358 16.5796 14.897 16.6106 14.8488C16.6416 14.8005 16.6588 14.7447 16.6602 14.6874V11.6991C16.6606 11.6438 16.6464 11.5893 16.619 11.5413C16.5915 11.4932 16.5518 11.4533 16.5039 11.4257L14.3555 10.0585V12.7733C14.3555 12.8148 14.339 12.8545 14.3097 12.8838C14.2804 12.9131 14.2407 12.9296 14.1992 12.9296H13.0664C13.025 12.9296 12.9852 12.9131 12.9559 12.8838C12.9266 12.8545 12.9102 12.8148 12.9102 12.7733V5.48817C12.9106 5.43284 12.8964 5.37838 12.869 5.33033C12.8415 5.28229 12.8018 5.2424 12.7539 5.21474L10.1758 3.6913C10.126 3.6601 10.0685 3.64355 10.0098 3.64355C9.95104 3.64355 9.8935 3.6601 9.84375 3.6913ZM10.1758 2.01161L14.1992 4.39442C14.2471 4.42209 14.2869 4.46198 14.3143 4.51002C14.3418 4.55806 14.356 4.61253 14.3555 4.66786V8.3788L17.9687 10.6054C18.0167 10.633 18.0564 10.6729 18.0838 10.721C18.1113 10.769 18.1255 10.8235 18.125 10.8788L18.0859 15.5468C18.0845 15.6041 18.0674 15.6599 18.0364 15.7081C18.0054 15.7564 17.9617 15.7951 17.9102 15.8202L13.8281 18.0468C13.7806 18.0742 13.7267 18.0886 13.6719 18.0886C13.617 18.0886 13.5631 18.0742 13.5156 18.0468L10.0195 15.9569L6.54297 18.0468C6.49546 18.0742 6.44157 18.0886 6.38672 18.0886C6.33186 18.0886 6.27797 18.0742 6.23047 18.0468L2.1289 15.8397C2.07734 15.8147 2.03367 15.7759 2.00266 15.7277C1.97166 15.6794 1.95452 15.6236 1.95312 15.5663L1.91406 10.8788C1.91356 10.8235 1.92777 10.769 1.95522 10.721C1.98267 10.6729 2.02239 10.633 2.07031 10.6054L5.68359 8.43739V4.66786C5.6831 4.61253 5.6973 4.55806 5.72475 4.51002C5.75221 4.46198 5.79192 4.42209 5.83984 4.39442L9.84375 2.03114C9.8935 1.99995 9.95104 1.9834 10.0098 1.9834C10.0685 1.9834 10.126 1.99995 10.1758 2.03114V2.01161Z" fill="black" fill-opacity="0.4"/>
</svg>
