<svg width="32" height="33" viewBox="0 0 32 33" fill="none" xmlns="http://www.w3.org/2000/svg">
<path fill-rule="evenodd" clip-rule="evenodd" d="M4.42224 6C5.20772 6 5.84448 6.63676 5.84448 7.42224V25.9056C5.84448 26.6911 5.20772 27.3279 4.42224 27.3279C3.63676 27.3279 3 26.6911 3 25.9056V7.42224C3 6.63676 3.63676 6 4.42224 6ZM27.1778 6.0079C27.9632 6.0079 28.6 6.64465 28.6 7.43013V25.9135C28.6 26.699 27.9632 27.3358 27.1778 27.3358C26.3923 27.3358 25.7555 26.699 25.7555 25.9135V7.43013C25.7555 6.64465 26.3923 6.0079 27.1778 6.0079ZM11.1776 11.6967C11.1776 10.9113 10.5409 10.2745 9.75537 10.2745C8.96989 10.2745 8.33313 10.9113 8.33313 11.6967V22.008C8.33313 22.7934 8.96989 23.4302 9.75537 23.4302C10.5409 23.4302 11.1776 22.7934 11.1776 22.008V11.6967ZM15.7999 12.4101C16.5853 12.4101 17.2221 13.0468 17.2221 13.8323L17.2221 20.9492C17.2221 21.7347 16.5853 22.3714 15.7999 22.3714C15.0144 22.3714 14.3776 21.7347 14.3776 20.9492L14.3776 13.8323C14.3776 13.0468 15.0144 12.4101 15.7999 12.4101ZM22.911 11.6967C22.911 10.9113 22.2743 10.2745 21.4888 10.2745C20.7033 10.2745 20.0665 10.9113 20.0665 11.6967V22.008C20.0665 22.7934 20.7033 23.4302 21.4888 23.4302C22.2743 23.4302 22.911 22.7934 22.911 22.008V11.6967Z" fill="url(#paint0_linear_3768_147)"/>
<defs>
<linearGradient id="paint0_linear_3768_147" x1="4.74078" y1="7.45085" x2="24.4971" y2="31.2529" gradientUnits="userSpaceOnUse">
<stop stop-color="#3F3CFF"/>
<stop offset="0.520833" stop-color="#6BBEE1"/>
<stop offset="1" stop-color="#8AE899"/>
</linearGradient>
</defs>
</svg>
