<svg width="20" height="18" viewBox="0 0 20 18" fill="none" xmlns="http://www.w3.org/2000/svg">
<path fill-rule="evenodd" clip-rule="evenodd" d="M1.11136 0.882812C1.725 0.882812 2.22247 1.38027 2.22247 1.99392V16.4339C2.22247 17.0476 1.725 17.545 1.11136 17.545C0.497706 17.545 0.000244141 17.0476 0.000244141 16.4339V1.99392C0.000244141 1.38027 0.497706 0.882812 1.11136 0.882812ZM18.8889 0.888889C19.5026 0.888889 20 1.38635 20 2V16.44C20 17.0536 19.5026 17.5511 18.8889 17.5511C18.2753 17.5511 17.7778 17.0536 17.7778 16.44V2C17.7778 1.38635 18.2753 0.888889 18.8889 0.888889ZM6.38892 5.33333C6.38892 4.71968 5.89145 4.22222 5.2778 4.22222C4.66416 4.22222 4.16669 4.71968 4.16669 5.33333V13.3889C4.16669 14.0025 4.66416 14.5 5.2778 14.5C5.89145 14.5 6.38892 14.0025 6.38892 13.3889V5.33333ZM10 5.89062C10.6137 5.89062 11.1111 6.38809 11.1111 7.00174L11.1111 12.5617C11.1111 13.1754 10.6137 13.6728 10 13.6728C9.38638 13.6728 8.88892 13.1754 8.88892 12.5617V7.00174C8.88892 6.38809 9.38638 5.89062 10 5.89062ZM15.5556 5.33333C15.5556 4.71968 15.0581 4.22222 14.4445 4.22222C13.8308 4.22222 13.3334 4.71968 13.3334 5.33333V13.3889C13.3334 14.0025 13.8308 14.5 14.4445 14.5C15.0581 14.5 15.5556 14.0025 15.5556 13.3889V5.33333Z" fill="url(#paint0_linear_3487_1449)"/>
<defs>
<linearGradient id="paint0_linear_3487_1449" x1="1.36021" y1="2.01627" x2="16.7945" y2="20.6114" gradientUnits="userSpaceOnUse">
<stop stop-color="#3F3CFF"/>
<stop offset="0.520833" stop-color="#6BBEE1"/>
<stop offset="1" stop-color="#8AE899"/>
</linearGradient>
</defs>
</svg>
