<svg width="20" height="20" viewBox="0 0 20 20" fill="none" xmlns="http://www.w3.org/2000/svg">
<path d="M5.5 17.3125C5.19062 17.3125 4.9375 17.0594 4.9375 16.75V3.25C4.9375 2.94062 5.19062 2.6875 5.5 2.6875H11.125V5.5C11.125 6.12227 11.6277 6.625 12.25 6.625H15.0625V16.75C15.0625 17.0594 14.8094 17.3125 14.5 17.3125H5.5ZM5.5 1C4.25898 1 3.25 2.00898 3.25 3.25V16.75C3.25 17.991 4.25898 19 5.5 19H14.5C15.741 19 16.75 17.991 16.75 16.75V6.43164C16.75 5.83398 16.5145 5.26094 16.0926 4.83906L12.9074 1.65742C12.4855 1.23555 11.916 1 11.3184 1H5.5ZM7.46875 10C7.00117 10 6.625 10.3762 6.625 10.8438C6.625 11.3113 7.00117 11.6875 7.46875 11.6875H12.5312C12.9988 11.6875 13.375 11.3113 13.375 10.8438C13.375 10.3762 12.9988 10 12.5312 10H7.46875ZM7.46875 13.375C7.00117 13.375 6.625 13.7512 6.625 14.2188C6.625 14.6863 7.00117 15.0625 7.46875 15.0625H12.5312C12.9988 15.0625 13.375 14.6863 13.375 14.2188C13.375 13.7512 12.9988 13.375 12.5312 13.375H7.46875Z" fill="#7B78FF" stroke="white" stroke-width="0.8"/>
</svg>
