<svg width="14" height="15" viewBox="0 0 14 15" fill="none" xmlns="http://www.w3.org/2000/svg">
<g clip-path="url(#clip0_69_193)">
<path d="M4.08333 3.99984V2.24984C4.08333 2.09513 4.14479 1.94675 4.25419 1.83736C4.36358 1.72796 4.51196 1.6665 4.66667 1.6665H11.6667C11.8214 1.6665 11.9697 1.72796 12.0791 1.83736C12.1885 1.94675 12.25 2.09513 12.25 2.24984V10.4165C12.25 10.5712 12.1885 10.7196 12.0791 10.829C11.9697 10.9384 11.8214 10.9998 11.6667 10.9998H9.91667V12.7498C9.91667 13.0718 9.65417 13.3332 9.32925 13.3332H2.33742C2.26049 13.3336 2.18423 13.3189 2.11302 13.2898C2.04181 13.2607 1.97705 13.2178 1.92247 13.1636C1.86788 13.1094 1.82455 13.0449 1.79495 12.9739C1.76535 12.9029 1.75008 12.8268 1.75 12.7498L1.75175 4.58317C1.75175 4.26117 2.01425 3.99984 2.33858 3.99984H4.08333ZM2.91783 5.1665L2.91667 12.1665H8.75V5.1665H2.91783ZM5.25 3.99984H9.91667V9.83317H11.0833V2.83317H5.25V3.99984ZM4.08333 6.9165H7.58333V8.08317H4.08333V6.9165ZM4.08333 9.24984H7.58333V10.4165H4.08333V9.24984Z" fill="#5E5CE8" fill-opacity="0.45"/>
</g>
<defs>
<clipPath id="clip0_69_193">
<rect width="14" height="14" fill="white" transform="translate(0 0.5)"/>
</clipPath>
</defs>
</svg>
