<svg width="14" height="14" viewBox="0 0 14 14" fill="none" xmlns="http://www.w3.org/2000/svg">
<g clip-path="url(#clip0_3487_1459)">
<path d="M4.08333 3.50033V1.75033C4.08333 1.59562 4.14479 1.44724 4.25419 1.33785C4.36358 1.22845 4.51196 1.16699 4.66667 1.16699H11.6667C11.8214 1.16699 11.9697 1.22845 12.0791 1.33785C12.1885 1.44724 12.25 1.59562 12.25 1.75033V9.91699C12.25 10.0717 12.1885 10.2201 12.0791 10.3295C11.9697 10.4389 11.8214 10.5003 11.6667 10.5003H9.91667V12.2503C9.91667 12.5723 9.65417 12.8337 9.32925 12.8337H2.33742C2.26049 12.8341 2.18423 12.8194 2.11302 12.7903C2.04181 12.7612 1.97705 12.7183 1.92247 12.6641C1.86788 12.6099 1.82455 12.5454 1.79495 12.4744C1.76535 12.4034 1.75008 12.3273 1.75 12.2503L1.75175 4.08366C1.75175 3.76166 2.01425 3.50033 2.33858 3.50033H4.08333ZM2.91783 4.66699L2.91667 11.667H8.75V4.66699H2.91783ZM5.25 3.50033H9.91667V9.33366H11.0833V2.33366H5.25V3.50033ZM4.08333 6.41699H7.58333V7.58366H4.08333V6.41699ZM4.08333 8.75033H7.58333V9.91699H4.08333V8.75033Z" fill="#3F4664" fill-opacity="0.45"/>
</g>
<defs>
<clipPath id="clip0_3487_1459">
<rect width="14" height="14" fill="white"/>
</clipPath>
</defs>
</svg>
