<svg width="15" height="16" viewBox="0 0 15 16" fill="none" xmlns="http://www.w3.org/2000/svg">
<path d="M8.24983 12.8399V9.37486C8.23933 9.18324 8.15581 9.00293 8.01644 8.871C7.87708 8.73907 7.69247 8.66554 7.50056 8.66554C7.30866 8.66554 7.12404 8.73907 6.98468 8.871C6.84532 9.00293 6.7618 9.18324 6.75129 9.37486V12.9164L5.34388 11.5068C5.20206 11.3717 5.01305 11.2975 4.81722 11.2998C4.62139 11.3022 4.43425 11.3811 4.29576 11.5196C4.15728 11.6581 4.07842 11.8452 4.07603 12.041C4.07364 12.2369 4.14791 12.4259 4.28298 12.5677L7.46569 15.7493L10.6473 12.5677C10.7197 12.4987 10.7777 12.4158 10.8177 12.3241C10.8576 12.2323 10.8789 12.1335 10.8801 12.0335C10.8813 11.9334 10.8625 11.8341 10.8248 11.7414C10.787 11.6487 10.7311 11.5645 10.6604 11.4937C10.5896 11.4229 10.5054 11.367 10.4127 11.3293C10.32 11.2916 10.2207 11.2727 10.1206 11.274C10.0205 11.2752 9.92171 11.2964 9.82996 11.3364C9.73821 11.3764 9.65539 11.4343 9.58636 11.5068L8.25096 12.8399H8.24983ZM9.00022 10.4999H14.2496C14.3481 10.4999 14.4457 10.4805 14.5368 10.4428C14.6278 10.4051 14.7105 10.3498 14.7802 10.2801C14.8499 10.2104 14.9052 10.1277 14.9429 10.0367C14.9806 9.94562 15 9.84804 15 9.74949V7.49944H0V9.74949C0 9.84804 0.0194095 9.94562 0.0571203 10.0367C0.0948311 10.1277 0.150105 10.2104 0.219785 10.2801C0.289466 10.3498 0.372189 10.4051 0.46323 10.4428C0.554272 10.4805 0.651851 10.4999 0.750394 10.4999H5.99977V9.37486C5.99428 9.17439 6.02903 8.97485 6.10195 8.78804C6.17488 8.60122 6.2845 8.43092 6.42435 8.28718C6.56421 8.14345 6.73145 8.0292 6.9162 7.95119C7.10094 7.87318 7.29946 7.83299 7.5 7.83299C7.70054 7.83299 7.89905 7.87318 8.0838 7.95119C8.26855 8.0292 8.43579 8.14345 8.57564 8.28718C8.7155 8.43092 8.82512 8.60122 8.89805 8.78804C8.97097 8.97485 9.00571 9.17439 9.00022 9.37486V10.4999ZM15 5.99977V0.749269C14.9997 0.550447 14.9205 0.35987 14.7798 0.219387C14.6391 0.0789044 14.4484 -2.28107e-07 14.2496 0H0.749269C0.550642 0.000297568 0.360235 0.0793337 0.219784 0.219784C0.0793337 0.360235 0.000297568 0.550642 0 0.749269V5.99977H15ZM1.49966 3.37508H5.62402V4.87362H1.49854V3.37508H1.49966Z" fill="#8F8EFF"/>
</svg>
