<svg width="11" height="12" viewBox="0 0 11 12" fill="none" xmlns="http://www.w3.org/2000/svg">
<path d="M9.05244 4.66391H9.53204V9.11407C9.53204 9.39237 9.4222 9.65236 9.22365 9.84832C9.02637 10.0417 8.76633 10.1488 8.4894 10.1488H2.51046C2.23343 10.1488 1.97212 10.0417 1.77616 9.84832C1.57761 9.65236 1.46777 9.39237 1.46777 9.11407V2.90391C1.46777 2.62693 1.57755 2.36563 1.77616 2.16966C1.97344 1.97628 2.23343 1.86914 2.51041 1.86914H6.87565V2.34863H2.51052C2.19955 2.34863 1.94737 2.5969 1.94737 2.90265V9.1127C1.94737 9.4185 2.19955 9.66671 2.51052 9.66671H8.48935C8.80032 9.66671 9.05244 9.4185 9.05244 9.1127V4.66391ZM3.6015 8.33016L9.45751 2.25458L9.07856 1.87695L3.2226 7.95253L3.6015 8.33016Z" fill="#90B696" stroke="#90B696" stroke-width="0.6"/>
</svg>
