<svg width="16" height="16" viewBox="0 0 16 16" fill="none" xmlns="http://www.w3.org/2000/svg">
<path fill-rule="evenodd" clip-rule="evenodd" d="M7.99999 1.86549C4.61264 1.86549 1.86665 4.61148 1.86665 7.99883C1.86665 11.3862 4.61264 14.1322 7.99999 14.1322C11.3873 14.1322 14.1333 11.3862 14.1333 7.99883C14.1333 4.61148 11.3873 1.86549 7.99999 1.86549ZM0.799988 7.99883C0.799988 4.02238 4.02354 0.798828 7.99999 0.798828C11.9764 0.798828 15.2 4.02238 15.2 7.99883C15.2 11.9753 11.9764 15.1988 7.99999 15.1988C4.02354 15.1988 0.799988 11.9753 0.799988 7.99883ZM7.92369 8.76729L6.25057 10.5024L5.48274 9.76196L7.18278 7.99894L5.48251 6.2357L6.25035 5.49529L7.92369 7.2306L9.59702 5.49529L10.3649 6.2357L8.66459 7.99894L10.3646 9.76196L9.5968 10.5024L7.92369 8.76729Z" fill="white"/>
<path fill-rule="evenodd" clip-rule="evenodd" d="M7.99999 1.86549C4.61264 1.86549 1.86665 4.61148 1.86665 7.99883C1.86665 11.3862 4.61264 14.1322 7.99999 14.1322C11.3873 14.1322 14.1333 11.3862 14.1333 7.99883C14.1333 4.61148 11.3873 1.86549 7.99999 1.86549ZM0.799988 7.99883C0.799988 4.02238 4.02354 0.798828 7.99999 0.798828C11.9764 0.798828 15.2 4.02238 15.2 7.99883C15.2 11.9753 11.9764 15.1988 7.99999 15.1988C4.02354 15.1988 0.799988 11.9753 0.799988 7.99883ZM7.92369 8.76729L6.25057 10.5024L5.48274 9.76196L7.18278 7.99894L5.48251 6.2357L6.25035 5.49529L7.92369 7.2306L9.59702 5.49529L10.3649 6.2357L8.66459 7.99894L10.3646 9.76196L9.5968 10.5024L7.92369 8.76729Z" fill="#F88A8A"/>
</svg>
