<svg width="30" height="30" viewBox="0 0 30 30" fill="none" xmlns="http://www.w3.org/2000/svg">
<path fill-rule="evenodd" clip-rule="evenodd" d="M15 3.5C8.64873 3.5 3.5 8.64873 3.5 15C3.5 21.3513 8.64873 26.5 15 26.5C21.3513 26.5 26.5 21.3513 26.5 15C26.5 8.64873 21.3513 3.5 15 3.5ZM1.5 15C1.5 7.54416 7.54416 1.5 15 1.5C22.4558 1.5 28.5 7.54416 28.5 15C28.5 22.4558 22.4558 28.5 15 28.5C7.54416 28.5 1.5 22.4558 1.5 15ZM14.8569 16.4409L11.7198 19.6941L10.2802 18.3059L13.4677 15.0002L10.2797 11.6941L11.7194 10.3059L14.8569 13.5596L17.9944 10.3059L19.4341 11.6941L16.2461 15.0002L19.4337 18.3059L17.994 19.6941L14.8569 16.4409Z" fill="white"/>
<path fill-rule="evenodd" clip-rule="evenodd" d="M15 3.5C8.64873 3.5 3.5 8.64873 3.5 15C3.5 21.3513 8.64873 26.5 15 26.5C21.3513 26.5 26.5 21.3513 26.5 15C26.5 8.64873 21.3513 3.5 15 3.5ZM1.5 15C1.5 7.54416 7.54416 1.5 15 1.5C22.4558 1.5 28.5 7.54416 28.5 15C28.5 22.4558 22.4558 28.5 15 28.5C7.54416 28.5 1.5 22.4558 1.5 15ZM14.8569 16.4409L11.7198 19.6941L10.2802 18.3059L13.4677 15.0002L10.2797 11.6941L11.7194 10.3059L14.8569 13.5596L17.9944 10.3059L19.4341 11.6941L16.2461 15.0002L19.4337 18.3059L17.994 19.6941L14.8569 16.4409Z" fill="#F88A8A"/>
</svg>
