<svg width="20" height="20" viewBox="0 0 20 20" fill="none" xmlns="http://www.w3.org/2000/svg">
<path d="M13.0003 4.4085C12.0836 4.32517 11.2753 5.00017 11.1919 5.92517L10.9836 8.3335H13.3336V10.0002H10.8336L10.4669 14.2252C10.3086 16.0585 8.69193 17.4168 6.85859 17.2502C5.76693 17.1585 4.85026 16.5502 4.30859 15.6918L5.55859 14.4418C5.75859 15.0585 6.30859 15.5335 7.00026 15.5918C7.91693 15.6752 8.72526 15.0002 8.80859 14.0752L9.16693 10.0002H6.66693V8.3335H9.30859L9.53359 5.77517C9.69193 3.94183 11.3086 2.5835 13.1419 2.75017C14.2336 2.84183 15.1503 3.45017 15.6919 4.3085L14.4419 5.5585C14.2419 4.94183 13.6919 4.46683 13.0003 4.4085Z" fill="black" fill-opacity="0.4"/>
</svg>
