<svg width="24" height="24" viewBox="0 0 24 24" fill="none" xmlns="http://www.w3.org/2000/svg">
<path fill-rule="evenodd" clip-rule="evenodd" d="M1.21593 13.7197L11.1154 3.82022C11.6036 3.33206 12.395 3.33206 12.8832 3.82022L22.7827 13.7197L23.8433 12.6591L13.9439 2.75956C12.8699 1.68562 11.1287 1.68562 10.0548 2.75956L0.155273 12.6591L1.21593 13.7197ZM19.9997 12.0001V20.0001C19.9997 21.1047 19.1042 22.0001 17.9997 22.0001H5.99968C4.89511 22.0001 3.99968 21.1047 3.99968 20.0001V12.0001H5.49968V20.0001C5.49968 20.2763 5.72353 20.5001 5.99968 20.5001H17.9997C18.2758 20.5001 18.4997 20.2763 18.4997 20.0001V12.0001H19.9997Z" fill="url(#paint0_linear_3906_2221)" fill-opacity="0.9"/>
<defs>
<linearGradient id="paint0_linear_3906_2221" x1="0.155273" y1="1.9541" x2="19.8716" y2="25.3476" gradientUnits="userSpaceOnUse">
<stop stop-color="#3F3CFF"/>
<stop offset="1" stop-color="#6BBEE1"/>
</linearGradient>
</defs>
</svg>
