<svg width="24" height="24" viewBox="0 0 24 24" fill="none" xmlns="http://www.w3.org/2000/svg">
<path fill-rule="evenodd" clip-rule="evenodd" d="M1.21642 13.7187L11.1159 3.81924C11.6041 3.33109 12.3955 3.33109 12.8837 3.81924L22.7832 13.7187L23.8438 12.6581L13.9443 2.75858C12.8704 1.68464 11.1292 1.68464 10.0553 2.75858L0.155762 12.6581L1.21642 13.7187ZM20.0002 11.9991V19.9991C20.0002 21.1037 19.1047 21.9991 18.0002 21.9991H6.00016C4.89559 21.9991 4.00016 21.1037 4.00016 19.9991V11.9991H5.50016V19.9991C5.50016 20.2753 5.72402 20.4991 6.00016 20.4991H18.0002C18.2763 20.4991 18.5002 20.2753 18.5002 19.9991V11.9991H20.0002Z" fill="url(#paint0_linear_3908_882)" fill-opacity="0.9"/>
<defs>
<linearGradient id="paint0_linear_3908_882" x1="-3.63241" y1="15.0545" x2="9.00815" y2="0.589219" gradientUnits="userSpaceOnUse">
<stop stop-color="#6BBEE1"/>
<stop offset="1" stop-color="#8AE899"/>
</linearGradient>
</defs>
</svg>
