<svg width="24" height="24" viewBox="0 0 24 24" fill="none" xmlns="http://www.w3.org/2000/svg">
<path fill-rule="evenodd" clip-rule="evenodd" d="M1.21624 13.7197L11.1157 3.82022C11.6039 3.33206 12.3953 3.33206 12.8835 3.82022L22.783 13.7197L23.8437 12.6591L13.9442 2.75956C12.8702 1.68562 11.129 1.68562 10.0551 2.75956L0.155579 12.6591L1.21624 13.7197ZM20 12.0001V20.0001C20 21.1047 19.1045 22.0001 18 22.0001H5.99998C4.89541 22.0001 3.99998 21.1047 3.99998 20.0001V12.0001H5.49998V20.0001C5.49998 20.2763 5.72384 20.5001 5.99998 20.5001H18C18.2761 20.5001 18.5 20.2763 18.5 20.0001V12.0001H20Z" fill="black"/>
</svg>
