<svg width="20" height="21" viewBox="0 0 20 21" fill="none" xmlns="http://www.w3.org/2000/svg">
<path d="M2 7.17036H9.15C9.38342 8.01351 9.88683 8.75689 10.5831 9.2866C11.2794 9.81631 12.1301 10.1031 13.005 10.1031C13.8799 10.1031 14.7306 9.81631 15.4269 9.2866C16.1232 8.75689 16.6266 8.01351 16.86 7.17036H18C18.2652 7.17036 18.5196 7.065 18.7071 6.87747C18.8946 6.68993 19 6.43558 19 6.17036C19 5.90514 18.8946 5.65079 18.7071 5.46325C18.5196 5.27572 18.2652 5.17036 18 5.17036H16.86C16.6329 4.31871 16.131 3.5659 15.432 3.0289C14.7331 2.4919 13.8764 2.20078 12.995 2.20078C12.1136 2.20078 11.2569 2.4919 10.558 3.0289C9.85904 3.5659 9.35705 4.31871 9.13 5.17036H2C1.73478 5.17036 1.48043 5.27572 1.29289 5.46325C1.10536 5.65079 1 5.90514 1 6.17036C1 6.43558 1.10536 6.68993 1.29289 6.87747C1.48043 7.065 1.73478 7.17036 2 7.17036ZM13 4.17036C13.3956 4.17036 13.7822 4.28766 14.1111 4.50742C14.44 4.72718 14.6964 5.03954 14.8478 5.40499C14.9991 5.77044 15.0387 6.17258 14.9616 6.56054C14.8844 6.9485 14.6939 7.30487 14.4142 7.58457C14.1345 7.86428 13.7781 8.05476 13.3902 8.13193C13.0022 8.2091 12.6001 8.16949 12.2346 8.01812C11.8692 7.86674 11.5568 7.6104 11.3371 7.2815C11.1173 6.9526 11 6.56592 11 6.17036C10.9974 5.90604 11.0471 5.64381 11.1465 5.39885C11.2458 5.15388 11.3927 4.93104 11.5787 4.7432C11.7646 4.55536 11.986 4.40625 12.23 4.30449C12.4739 4.20273 12.7357 4.15034 13 4.15036V4.17036ZM18 14.1704H10.86C10.6329 13.3187 10.131 12.5659 9.43204 12.0289C8.73312 11.4919 7.8764 11.2008 6.995 11.2008C6.1136 11.2008 5.25689 11.4919 4.55796 12.0289C3.85904 12.5659 3.35705 13.3187 3.13 14.1704H2C1.73478 14.1704 1.48043 14.2757 1.29289 14.4633C1.10536 14.6508 1 14.9051 1 15.1704C1 15.4356 1.10536 15.6899 1.29289 15.8775C1.48043 16.065 1.73478 16.1704 2 16.1704H3.15C3.38342 17.0135 3.88683 17.7569 4.58311 18.2866C5.27939 18.8163 6.13013 19.1031 7.005 19.1031C7.87987 19.1031 8.73061 18.8163 9.42689 18.2866C10.1232 17.7569 10.6266 17.0135 10.86 16.1704H18C18.2652 16.1704 18.5196 16.065 18.7071 15.8775C18.8946 15.6899 19 15.4356 19 15.1704C19 14.9051 18.8946 14.6508 18.7071 14.4633C18.5196 14.2757 18.2652 14.1704 18 14.1704ZM7 17.1704C6.60444 17.1704 6.21776 17.0531 5.88886 16.8333C5.55996 16.6135 5.30362 16.3012 5.15224 15.9357C5.00087 15.5703 4.96126 15.1681 5.03843 14.7802C5.1156 14.3922 5.30608 14.0359 5.58579 13.7561C5.86549 13.4764 6.22186 13.286 6.60982 13.2088C6.99778 13.1316 7.39991 13.1712 7.76537 13.3226C8.13082 13.474 8.44318 13.7303 8.66294 14.0592C8.8827 14.3881 9 14.7748 9 15.1704C8.99473 15.6973 8.78169 16.2009 8.40719 16.5717C8.03269 16.9424 7.52699 17.1504 7 17.1504V17.1704Z" fill="black" fill-opacity="0.4"/>
</svg>
