<svg width="24" height="24" viewBox="0 0 24 24" fill="none" xmlns="http://www.w3.org/2000/svg">
<path d="M15.75 15.75C15.0083 15.75 14.2833 15.9699 13.6666 16.382C13.0499 16.794 12.5693 17.3797 12.2855 18.0649C12.0016 18.7502 11.9274 19.5042 12.0721 20.2316C12.2168 20.959 12.5739 21.6272 13.0984 22.1517C13.6228 22.6761 14.291 23.0333 15.0184 23.1779C15.7458 23.3226 16.4998 23.2484 17.1851 22.9646C17.8703 22.6807 18.456 22.2001 18.868 21.5834C19.2801 20.9667 19.5 20.2417 19.5 19.5C19.5 18.5054 19.1049 17.5516 18.4017 16.8484C17.6984 16.1451 16.7446 15.75 15.75 15.75ZM15.75 20.75C15.5028 20.75 15.2611 20.6767 15.0555 20.5393C14.85 20.402 14.6898 20.2068 14.5952 19.9784C14.5005 19.7499 14.4758 19.4986 14.524 19.2561C14.5723 19.0137 14.6913 18.7909 14.8661 18.6161C15.0409 18.4413 15.2637 18.3223 15.5061 18.274C15.7486 18.2258 15.9999 18.2505 16.2284 18.3452C16.4568 18.4398 16.652 18.6 16.7893 18.8055C16.9267 19.0111 17 19.2528 17 19.5C17 19.8315 16.8683 20.1495 16.6339 20.3839C16.3995 20.6183 16.0815 20.75 15.75 20.75ZM5.125 8.875C4.25971 8.875 3.41385 9.13159 2.69438 9.61232C1.97492 10.0931 1.41416 10.7763 1.08303 11.5758C0.751896 12.3752 0.665256 13.2549 0.834066 14.1035C1.00288 14.9522 1.41956 15.7317 2.03141 16.3436C2.64326 16.9554 3.42282 17.3721 4.27148 17.5409C5.12015 17.7097 5.99981 17.6231 6.79924 17.292C7.59867 16.9608 8.28195 16.4001 8.76268 15.6806C9.24341 14.9612 9.5 14.1153 9.5 13.25C9.5 12.6755 9.38684 12.1066 9.16698 11.5758C8.94711 11.045 8.62485 10.5627 8.21859 10.1564C7.81234 9.75015 7.33004 9.42789 6.79924 9.20803C6.26844 8.98816 5.69954 8.875 5.125 8.875ZM5.125 15.125C4.75416 15.125 4.39165 15.015 4.08331 14.809C3.77497 14.603 3.53464 14.3101 3.39273 13.9675C3.25081 13.6249 3.21368 13.2479 3.28603 12.8842C3.35838 12.5205 3.53695 12.1864 3.79918 11.9242C4.0614 11.662 4.39549 11.4834 4.75921 11.411C5.12292 11.3387 5.49992 11.3758 5.84253 11.5177C6.18514 11.6596 6.47798 11.9 6.68401 12.2083C6.89004 12.5166 7 12.8792 7 13.25C7 13.7473 6.80246 14.2242 6.45083 14.5758C6.0992 14.9275 5.62228 15.125 5.125 15.125ZM17 0.75C15.7639 0.75 14.5555 1.11656 13.5277 1.80332C12.4999 2.49007 11.6988 3.46619 11.2258 4.60823C10.7527 5.75027 10.6289 7.00693 10.8701 8.21932C11.1113 9.4317 11.7065 10.5453 12.5806 11.4194C13.4547 12.2935 14.5683 12.8888 15.7807 13.1299C16.9931 13.3711 18.2497 13.2473 19.3918 12.7742C20.5338 12.3012 21.5099 11.5001 22.1967 10.4723C22.8834 9.44451 23.25 8.23613 23.25 7C23.25 5.3424 22.5915 3.75269 21.4194 2.58058C20.2473 1.40848 18.6576 0.75 17 0.75ZM17 10.75C16.2583 10.75 15.5333 10.5301 14.9166 10.118C14.2999 9.70596 13.8193 9.12029 13.5355 8.43506C13.2516 7.74984 13.1774 6.99584 13.3221 6.26841C13.4668 5.54098 13.8239 4.8728 14.3484 4.34835C14.8728 3.8239 15.541 3.46675 16.2684 3.32206C16.9958 3.17736 17.7498 3.25162 18.4351 3.53545C19.1203 3.81928 19.706 4.29993 20.118 4.91661C20.5301 5.5333 20.75 6.25832 20.75 7C20.75 7.99456 20.3549 8.94839 19.6517 9.65165C18.9484 10.3549 17.9946 10.75 17 10.75Z" fill="url(#paint0_linear_240_1036)"/>
<defs>
<linearGradient id="paint0_linear_240_1036" x1="2.27998" y1="2.28002" x2="23.4767" y2="23.5637" gradientUnits="userSpaceOnUse">
<stop stop-color="#3F3CFF"/>
<stop offset="0.520833" stop-color="#6BBEE1"/>
<stop offset="1" stop-color="#8AE899"/>
</linearGradient>
</defs>
</svg>
