<svg width="41" height="41" viewBox="0 0 41 41" fill="none" xmlns="http://www.w3.org/2000/svg">
<g clip-path="url(#clip0_3682_7845)">
<path fill-rule="evenodd" clip-rule="evenodd" d="M23.0332 3.56772C23.5432 2.60862 23.1791 1.41771 22.22 0.907745C21.2609 0.397782 20.07 0.761879 19.56 1.72098L0.923283 36.7716C0.41332 37.7307 0.777417 38.9216 1.73652 39.4316C2.69562 39.9415 3.88653 39.5774 4.3965 38.6183L23.0332 3.56772ZM23.3167 20.8294C23.8267 19.8703 23.4626 18.6794 22.5035 18.1695C21.5444 17.6595 20.3534 18.0236 19.8435 18.9827L10.3879 36.766C9.87797 37.7251 10.2421 38.916 11.2012 39.426C12.1603 39.9359 13.3512 39.5718 13.8612 38.6127L23.3167 20.8294ZM31.1704 15.4847C31.6803 14.5256 32.8713 14.1615 33.8304 14.6714C34.7895 15.1814 35.1536 16.3723 34.6436 17.3314L23.3296 38.6098C22.8197 39.5689 21.6288 39.933 20.6697 39.4231C19.7106 38.9131 19.3465 37.7222 19.8564 36.7631L31.1704 15.4847ZM37.6187 29.5482C38.1287 28.5891 37.7646 27.3982 36.8055 26.8882C35.8464 26.3783 34.6554 26.7423 34.1455 27.7014L29.3265 36.7646C28.8166 37.7237 29.1807 38.9146 30.1398 39.4246C31.0989 39.9345 32.2898 39.5704 32.7997 38.6113L37.6187 29.5482Z" fill="url(#paint0_linear_3682_7845)"/>
</g>
<defs>
<linearGradient id="paint0_linear_3682_7845" x1="20.8322" y1="3.5301" x2="42.453" y2="43.7296" gradientUnits="userSpaceOnUse">
<stop stop-color="#3F3CFF"/>
<stop offset="0.520833" stop-color="#6BBEE1"/>
<stop offset="1" stop-color="#8AE899"/>
</linearGradient>
<clipPath id="clip0_3682_7845">
<rect width="40.32" height="40.32" fill="white"/>
</clipPath>
</defs>
</svg>
