<svg width="20" height="20" viewBox="0 0 20 20" fill="none" xmlns="http://www.w3.org/2000/svg">
<path fill-rule="evenodd" clip-rule="evenodd" d="M3.17649 3.35004C2.95761 3.35115 2.74797 3.43859 2.59316 3.5934L1.63854 2.63878C2.04588 2.23145 2.59782 2.00181 3.17388 2H16.8261C17.402 2.00185 17.9538 2.23136 18.3611 2.63846C18.7684 3.04556 18.9981 3.59721 19.0003 4.17307V12.8253C18.9985 13.4013 18.7688 13.9533 18.3615 14.3606C17.9541 14.7679 17.4022 14.9976 16.8261 14.9994H3.17388C2.59782 14.9976 2.04588 14.7679 1.63854 14.3606C1.2312 13.9533 1.00156 13.4013 0.999756 12.8253V4.17412C1.00156 3.59807 1.2312 3.04612 1.63854 2.63878L2.59316 3.5934C2.43835 3.74821 2.35091 3.95785 2.34979 4.17674V12.8227C2.35091 13.0415 2.43835 13.2512 2.59316 13.406C2.74797 13.5608 2.95761 13.6482 3.17649 13.6494H16.8235C17.0424 13.6482 17.252 13.5608 17.4069 13.406C17.5616 13.2512 17.6491 13.0417 17.6502 12.8228V4.17611C17.6489 3.95739 17.5614 3.74797 17.4067 3.59331C17.2519 3.43858 17.0423 3.35118 16.8235 3.35004H3.17649ZM1.74984 16.5006H18.2502C18.3487 16.5006 18.4462 16.52 18.5372 16.5576C18.6282 16.5953 18.7109 16.6505 18.7806 16.7202C18.8502 16.7898 18.9055 16.8725 18.9432 16.9635C18.9809 17.0545 19.0003 17.152 19.0003 17.2505C19.0003 17.349 18.9809 17.4466 18.9432 17.5376C18.9055 17.6286 18.8503 17.7113 18.7806 17.7809C18.711 17.8506 18.6283 17.9058 18.5373 17.9435C18.4462 17.9812 18.3487 18.0006 18.2502 18.0006H1.74984C1.65133 18.0006 1.55378 17.9812 1.46277 17.9435C1.37175 17.9058 1.28905 17.8506 1.2194 17.7809C1.14974 17.7113 1.09449 17.6286 1.05681 17.5376C1.01912 17.4466 0.999733 17.349 0.999756 17.2505C0.999756 17.152 1.01916 17.0545 1.05686 16.9635C1.09455 16.8725 1.14981 16.7898 1.21946 16.7202C1.28911 16.6505 1.3718 16.5953 1.46281 16.5576C1.55381 16.52 1.65134 16.5006 1.74984 16.5006ZM12.25 5.75013H7.74991C7.65046 5.75166 7.55169 5.73338 7.45936 5.69638C7.36704 5.65937 7.28299 5.60437 7.21212 5.53457C7.14125 5.46478 7.08497 5.38159 7.04655 5.28984C7.00814 5.19809 6.98835 5.09961 6.98835 5.00014C6.98835 4.90067 7.00814 4.8022 7.04655 4.71045C7.08497 4.6187 7.14125 4.53551 7.21212 4.46571C7.28299 4.39592 7.36704 4.34092 7.45936 4.30391C7.55169 4.2669 7.65046 4.24863 7.74991 4.25015H12.25C12.3495 4.24863 12.4483 4.2669 12.5406 4.30391C12.6329 4.34092 12.717 4.39592 12.7878 4.46571C12.8587 4.53551 12.915 4.6187 12.9534 4.71045C12.9918 4.8022 13.0116 4.90067 13.0116 5.00014C13.0116 5.09961 12.9918 5.19809 12.9534 5.28984C12.915 5.38159 12.8587 5.46478 12.7878 5.53457C12.717 5.60437 12.6329 5.65937 12.5406 5.69638C12.4483 5.73338 12.3495 5.75166 12.25 5.75013Z" fill="#F76487"/>
</svg>
