<svg width="16" height="16" viewBox="0 0 16 16" fill="none" xmlns="http://www.w3.org/2000/svg">
<g clip-path="url(#clip0_1_13905)">
<path d="M6.66667 4V5.33333H3.33333V12.6667H10.6667V9.33333H12V13.3333C12 13.5101 11.9298 13.6797 11.8047 13.8047C11.6797 13.9298 11.5101 14 11.3333 14H2.66667C2.48986 14 2.32029 13.9298 2.19526 13.8047C2.07024 13.6797 2 13.5101 2 13.3333V4.66667C2 4.48986 2.07024 4.32029 2.19526 4.19526C2.32029 4.07024 2.48986 4 2.66667 4H6.66667ZM14 2V7.33333H12.6667V4.27533L7.47133 9.47133L6.52867 8.52867L11.7233 3.33333H8.66667V2H14Z" fill="url(#paint0_linear_1_13905)" fill-opacity="0.7"/>
</g>
<defs>
<linearGradient id="paint0_linear_1_13905" x1="0.080972" y1="9.84281" x2="7.71287" y2="2.45199" gradientUnits="userSpaceOnUse">
<stop stop-color="#6BBEE1"/>
<stop offset="1" stop-color="#8AE899"/>
</linearGradient>
<clipPath id="clip0_1_13905">
<rect width="16" height="16" fill="white"/>
</clipPath>
</defs>
</svg>
