<svg width="20" height="20" viewBox="0 0 20 20" fill="none" xmlns="http://www.w3.org/2000/svg">
<path d="M12.3717 8.37651C13.011 9.0159 13.3701 9.88305 13.3701 10.7872C13.3701 11.6914 13.011 12.5585 12.3717 13.1979L9.33834 16.2313C9.00008 16.5715 8.59799 16.8417 8.15513 17.0263C7.71227 17.2109 7.23733 17.3063 6.75753 17.307C6.27774 17.3077 5.80252 17.2137 5.35911 17.0304C4.9157 16.8472 4.51282 16.5782 4.17355 16.2389C3.83429 15.8997 3.5653 15.4968 3.38202 15.0534C3.19874 14.61 3.10476 14.1347 3.10547 13.6549C3.10618 13.1751 3.20157 12.7002 3.38616 12.2573C3.57075 11.8145 3.84093 11.4124 4.1812 11.0741L5.67501 9.57984L6.68548 10.5903L5.1912 12.0846C4.98147 12.2897 4.81451 12.5344 4.69999 12.8045C4.58547 13.0746 4.52567 13.3647 4.52404 13.658C4.52241 13.9514 4.57899 14.2422 4.6905 14.5135C4.80201 14.7848 4.96623 15.0314 5.17367 15.2388C5.38111 15.4462 5.62763 15.6105 5.89897 15.722C6.17031 15.8335 6.46107 15.8901 6.75442 15.8884C7.04778 15.8868 7.3379 15.827 7.60798 15.7125C7.87806 15.598 8.12274 15.431 8.32786 15.2213L11.3612 12.1879C11.7325 11.8165 11.9411 11.3127 11.9411 10.7875C11.9411 10.2622 11.7325 9.75847 11.3612 9.38699L12.3717 8.37651ZM16.446 3.96603C17.1298 4.64992 17.514 5.57746 17.514 6.54461C17.514 7.51176 17.1298 8.4393 16.446 9.12318L14.9526 10.6175L13.9421 9.60746L15.4364 8.11318C15.6462 7.90806 15.8131 7.66338 15.9276 7.39329C16.0422 7.12321 16.102 6.83309 16.1036 6.53974C16.1052 6.24638 16.0486 5.95562 15.9371 5.68428C15.8256 5.41294 15.6614 5.16642 15.454 4.95898C15.2465 4.75155 15 4.58732 14.7287 4.47581C14.4573 4.3643 14.1666 4.30772 13.8732 4.30935C13.5799 4.31098 13.2897 4.37079 13.0197 4.48531C12.7496 4.59983 12.5049 4.76678 12.2998 4.97651L9.26643 8.00984C8.8951 8.38132 8.6865 8.88507 8.6865 9.41032C8.6865 9.93557 8.8951 10.4393 9.26643 10.8108L8.25596 11.8213C7.61666 11.1819 7.25751 10.3147 7.25751 9.41056C7.25751 8.50639 7.61666 7.63924 8.25596 6.99984L11.2893 3.96651C11.9732 3.28263 12.9007 2.89844 13.8679 2.89844C14.835 2.89844 15.7626 3.28263 16.4464 3.96651L16.446 3.96603Z" fill="#3F4664" fill-opacity="0.9"/>
</svg>
