<svg width="12" height="12" viewBox="0 0 12 12" fill="none" xmlns="http://www.w3.org/2000/svg">
<mask id="path-1-outside-1_3833_269" maskUnits="userSpaceOnUse" x="0.98291" y="-0.244141" width="10" height="12" fill="black">
<rect fill="white" x="0.98291" y="-0.244141" width="10" height="12"/>
<path fill-rule="evenodd" clip-rule="evenodd" d="M8.75998 4.45246H9.06803C9.57764 4.45246 9.99218 4.867 9.99221 5.37662V10.3054C9.99221 10.815 9.57766 11.2296 9.06805 11.2296H2.90708C2.39747 11.2296 1.98291 10.815 1.98291 10.3054V5.37662C1.98291 4.867 2.39747 4.45246 2.90708 4.45246H3.21512V3.52831C3.21512 1.9998 4.45874 0.755859 5.98757 0.755859C7.51579 0.755859 8.75998 1.9998 8.75998 3.52831V4.45246ZM5.98755 1.37195C4.79805 1.37195 3.83119 2.33912 3.83119 3.52831V4.45246H8.14389V3.52831C8.14389 2.33912 7.17642 1.37195 5.98755 1.37195ZM9.06803 10.6135C9.23773 10.6135 9.37609 10.4751 9.37609 10.3054V5.37662C9.37609 5.20665 9.23773 5.06856 9.06803 5.06856H2.90705C2.73678 5.06856 2.599 5.20665 2.599 5.37662V10.3054C2.599 10.4751 2.73678 10.6135 2.90705 10.6135H9.06803ZM5.59473 9.34374C5.59473 9.59479 5.7704 9.79951 5.98748 9.79951C6.20462 9.79951 6.3803 9.59479 6.3803 9.34374V8.43225C6.3803 8.18125 6.20462 7.97656 5.98748 7.97656C5.7704 7.97656 5.59473 8.18125 5.59473 8.43225V9.34374Z"/>
</mask>
<path fill-rule="evenodd" clip-rule="evenodd" d="M8.75998 4.45246H9.06803C9.57764 4.45246 9.99218 4.867 9.99221 5.37662V10.3054C9.99221 10.815 9.57766 11.2296 9.06805 11.2296H2.90708C2.39747 11.2296 1.98291 10.815 1.98291 10.3054V5.37662C1.98291 4.867 2.39747 4.45246 2.90708 4.45246H3.21512V3.52831C3.21512 1.9998 4.45874 0.755859 5.98757 0.755859C7.51579 0.755859 8.75998 1.9998 8.75998 3.52831V4.45246ZM5.98755 1.37195C4.79805 1.37195 3.83119 2.33912 3.83119 3.52831V4.45246H8.14389V3.52831C8.14389 2.33912 7.17642 1.37195 5.98755 1.37195ZM9.06803 10.6135C9.23773 10.6135 9.37609 10.4751 9.37609 10.3054V5.37662C9.37609 5.20665 9.23773 5.06856 9.06803 5.06856H2.90705C2.73678 5.06856 2.599 5.20665 2.599 5.37662V10.3054C2.599 10.4751 2.73678 10.6135 2.90705 10.6135H9.06803ZM5.59473 9.34374C5.59473 9.59479 5.7704 9.79951 5.98748 9.79951C6.20462 9.79951 6.3803 9.59479 6.3803 9.34374V8.43225C6.3803 8.18125 6.20462 7.97656 5.98748 7.97656C5.7704 7.97656 5.59473 8.18125 5.59473 8.43225V9.34374Z" fill="black" fill-opacity="0.4"/>
<path d="M8.75998 4.45246H8.55998V4.65246H8.75998V4.45246ZM9.99221 5.37662H10.1922V5.37661L9.99221 5.37662ZM3.21512 4.45246V4.65246H3.41512V4.45246H3.21512ZM3.83119 4.45246H3.63119V4.65246H3.83119V4.45246ZM8.14389 4.45246V4.65246H8.34389V4.45246H8.14389ZM9.06803 4.25246H8.75998V4.65246H9.06803V4.25246ZM10.1922 5.37661C10.1922 4.75654 9.68809 4.25246 9.06803 4.25246V4.65246C9.46718 4.65246 9.79219 4.97746 9.79221 5.37662L10.1922 5.37661ZM10.1922 10.3054V5.37662H9.79221V10.3054H10.1922ZM9.06805 11.4296C9.68812 11.4296 10.1922 10.9255 10.1922 10.3054H9.79221C9.79221 10.7046 9.4672 11.0296 9.06805 11.0296V11.4296ZM2.90708 11.4296H9.06805V11.0296H2.90708V11.4296ZM1.78291 10.3054C1.78291 10.9255 2.28701 11.4296 2.90708 11.4296V11.0296C2.50792 11.0296 2.18291 10.7046 2.18291 10.3054H1.78291ZM1.78291 5.37662V10.3054H2.18291V5.37662H1.78291ZM2.90708 4.25246C2.28702 4.25246 1.78291 4.75653 1.78291 5.37662H2.18291C2.18291 4.97746 2.50792 4.65246 2.90708 4.65246V4.25246ZM3.21512 4.25246H2.90708V4.65246H3.21512V4.25246ZM3.01512 3.52831V4.45246H3.41512V3.52831H3.01512ZM5.98757 0.555859C4.34827 0.555859 3.01512 1.88936 3.01512 3.52831H3.41512C3.41512 2.11024 4.56921 0.955859 5.98757 0.955859V0.555859ZM8.95998 3.52831C8.95998 1.88933 7.62624 0.555859 5.98757 0.555859V0.955859C7.40534 0.955859 8.55998 2.11027 8.55998 3.52831H8.95998ZM8.95998 4.45246V3.52831H8.55998V4.45246H8.95998ZM4.03119 3.52831C4.03119 2.44956 4.90852 1.57195 5.98755 1.57195V1.17195C4.68757 1.17195 3.63119 2.22868 3.63119 3.52831H4.03119ZM4.03119 4.45246V3.52831H3.63119V4.45246H4.03119ZM8.14389 4.25246H3.83119V4.65246H8.14389V4.25246ZM7.94389 3.52831V4.45246H8.34389V3.52831H7.94389ZM5.98755 1.57195C7.06598 1.57195 7.94389 2.4496 7.94389 3.52831H8.34389C8.34389 2.22865 7.28686 1.17195 5.98755 1.17195V1.57195ZM9.17609 10.3054C9.17609 10.3646 9.12725 10.4135 9.06803 10.4135V10.8135C9.3482 10.8135 9.57609 10.5855 9.57609 10.3054H9.17609ZM9.17609 5.37662V10.3054H9.57609V5.37662H9.17609ZM9.06803 5.26856C9.12738 5.26856 9.17609 5.31722 9.17609 5.37662H9.57609C9.57609 5.09609 9.34807 4.86856 9.06803 4.86856V5.26856ZM2.90705 5.26856H9.06803V4.86856H2.90705V5.26856ZM2.799 5.37662C2.799 5.31697 2.84738 5.26856 2.90705 5.26856V4.86856C2.62618 4.86856 2.399 5.09634 2.399 5.37662H2.799ZM2.799 10.3054V5.37662H2.399V10.3054H2.799ZM2.90705 10.4135C2.8475 10.4135 2.799 10.3649 2.799 10.3054H2.399C2.399 10.5853 2.62606 10.8135 2.90705 10.8135V10.4135ZM9.06803 10.4135H2.90705V10.8135H9.06803V10.4135ZM5.98748 9.59951C5.90797 9.59951 5.79473 9.51356 5.79473 9.34374H5.39473C5.39473 9.67603 5.63282 9.99951 5.98748 9.99951V9.59951ZM6.1803 9.34374C6.1803 9.51353 6.06707 9.59951 5.98748 9.59951V9.99951C6.34217 9.99951 6.5803 9.67605 6.5803 9.34374H6.1803ZM6.1803 8.43225V9.34374H6.5803V8.43225H6.1803ZM5.98748 8.17656C6.0671 8.17656 6.1803 8.26254 6.1803 8.43225H6.5803C6.5803 8.09996 6.34215 7.77656 5.98748 7.77656V8.17656ZM5.79473 8.43225C5.79473 8.26252 5.90794 8.17656 5.98748 8.17656V7.77656C5.63285 7.77656 5.39473 8.09999 5.39473 8.43225H5.79473ZM5.79473 9.34374V8.43225H5.39473V9.34374H5.79473Z" fill="black" fill-opacity="0.4" mask="url(#path-1-outside-1_3833_269)"/>
</svg>
