<svg width="36" height="36" viewBox="0 0 36 36" fill="none" xmlns="http://www.w3.org/2000/svg">
<rect width="36" height="36" rx="18" fill="url(#paint0_linear_3198_1635)" fill-opacity="0.1"/>
<path fill-rule="evenodd" clip-rule="evenodd" d="M10.5 11.5C9.94772 11.5 9.5 11.9477 9.5 12.5C9.5 13.0523 9.94772 13.5 10.5 13.5H25.5C26.0523 13.5 26.5 13.0523 26.5 12.5C26.5 11.9477 26.0523 11.5 25.5 11.5H10.5ZM10.5 17C9.94772 17 9.5 17.4477 9.5 18C9.5 18.5523 9.94772 19 10.5 19H25.5C26.0523 19 26.5 18.5523 26.5 18C26.5 17.4477 26.0523 17 25.5 17H10.5ZM9.5 23.5C9.5 22.9477 9.94772 22.5 10.5 22.5H21C21.5523 22.5 22 22.9477 22 23.5C22 24.0523 21.5523 24.5 21 24.5H10.5C9.94772 24.5 9.5 24.0523 9.5 23.5ZM25.25 25C26.0784 25 26.75 24.3284 26.75 23.5C26.75 22.6716 26.0784 22 25.25 22C24.4216 22 23.75 22.6716 23.75 23.5C23.75 24.3284 24.4216 25 25.25 25Z" fill="url(#paint1_linear_3198_1635)"/>
<defs>
<linearGradient id="paint0_linear_3198_1635" x1="2.44797" y1="2.44803" x2="36.3628" y2="36.5019" gradientUnits="userSpaceOnUse">
<stop stop-color="#3F3CFF"/>
<stop offset="0.520833" stop-color="#6BBEE1"/>
<stop offset="1" stop-color="#8AE899"/>
</linearGradient>
<linearGradient id="paint1_linear_3198_1635" x1="10.673" y1="12.418" x2="23.0062" y2="28.2417" gradientUnits="userSpaceOnUse">
<stop stop-color="#3F3CFF"/>
<stop offset="0.520833" stop-color="#6BBEE1"/>
<stop offset="1" stop-color="#8AE899"/>
</linearGradient>
</defs>
</svg>
