<svg width="20" height="18" viewBox="0 0 20 18" fill="none" xmlns="http://www.w3.org/2000/svg">
<path fill-rule="evenodd" clip-rule="evenodd" d="M10 0.888672C10.6136 0.888672 11.1111 1.38613 11.1111 1.99978L11.1111 16.4442C11.1111 17.0579 10.6137 17.5553 10 17.5553C9.38635 17.5553 8.88889 17.0579 8.88889 16.4442V1.99978C8.88889 1.38613 9.38635 0.888672 10 0.888672ZM6.38889 5.33312C6.38889 4.71947 5.89143 4.22201 5.27778 4.22201C4.66413 4.22201 4.16667 4.71947 4.16667 5.33312V13.3887C4.16667 14.0023 4.66413 14.4998 5.27778 14.4998C5.89143 14.4998 6.38889 14.0023 6.38889 13.3887V5.33312ZM1.11111 5.61089C1.72476 5.61089 2.22222 6.10836 2.22222 6.72201V12.2776C2.22222 12.8912 1.72476 13.3887 1.11111 13.3887C0.497461 13.3887 0 12.8912 0 12.2776V6.72201C0 6.10836 0.497461 5.61089 1.11111 5.61089ZM18.8889 5.88867C19.5025 5.88867 20 6.38613 20 6.99978V12.5553C20 13.169 19.5025 13.6664 18.8889 13.6664C18.2752 13.6664 17.7778 13.169 17.7778 12.5553V6.99978C17.7778 6.38613 18.2752 5.88867 18.8889 5.88867ZM15.5556 5.33312C15.5556 4.71947 15.0581 4.22201 14.4444 4.22201C13.8308 4.22201 13.3333 4.71947 13.3333 5.33312V13.3887C13.3333 14.0023 13.8308 14.4998 14.4444 14.4998C15.0581 14.4998 15.5556 14.0023 15.5556 13.3887V5.33312Z" fill="url(#paint0_linear_3487_1438)"/>
<defs>
<linearGradient id="paint0_linear_3487_1438" x1="1.35998" y1="2.02202" x2="16.7925" y2="20.617" gradientUnits="userSpaceOnUse">
<stop stop-color="#3F3CFF"/>
<stop offset="0.520833" stop-color="#6BBEE1"/>
<stop offset="1" stop-color="#8AE899"/>
</linearGradient>
</defs>
</svg>
