<svg width="32" height="33" viewBox="0 0 32 33" fill="none" xmlns="http://www.w3.org/2000/svg">
<path fill-rule="evenodd" clip-rule="evenodd" d="M15.999 6.03125C16.7845 6.03125 17.4213 6.66801 17.4213 7.4535L17.4213 25.9424C17.4213 26.7279 16.7845 27.3646 15.999 27.3646C15.2135 27.3646 14.5768 26.7279 14.5768 25.9424L14.5768 7.4535C14.5768 6.66801 15.2135 6.03125 15.999 6.03125ZM11.3767 11.7191C11.3767 10.9336 10.74 10.2969 9.95448 10.2969C9.16899 10.2969 8.53223 10.9336 8.53223 11.7191V22.0302C8.53223 22.8157 9.16899 23.4525 9.95448 23.4525C10.74 23.4525 11.3767 22.8157 11.3767 22.0302V11.7191ZM4.62245 12.0746C5.40793 12.0746 6.0447 12.7114 6.0447 13.4969V20.608C6.0447 21.3935 5.40793 22.0302 4.62245 22.0302C3.83696 22.0302 3.2002 21.3935 3.2002 20.608V13.4969C3.2002 12.7114 3.83696 12.0746 4.62245 12.0746ZM27.3779 12.4309C28.1634 12.4309 28.8002 13.0676 28.8002 13.8531V20.9642C28.8002 21.7497 28.1634 22.3865 27.3779 22.3865C26.5924 22.3865 25.9557 21.7497 25.9557 20.9642V13.8531C25.9557 13.0676 26.5924 12.4309 27.3779 12.4309ZM23.1107 11.7191C23.1107 10.9336 22.4739 10.2969 21.6885 10.2969C20.903 10.2969 20.2662 10.9336 20.2662 11.7191V22.0302C20.2662 22.8157 20.903 23.4525 21.6885 23.4525C22.4739 23.4525 23.1107 22.8157 23.1107 22.0302V11.7191Z" fill="url(#paint0_linear_3768_65)"/>
<defs>
<linearGradient id="paint0_linear_3768_65" x1="4.94098" y1="7.48193" x2="24.6946" y2="31.2834" gradientUnits="userSpaceOnUse">
<stop stop-color="#3F3CFF"/>
<stop offset="0.520833" stop-color="#6BBEE1"/>
<stop offset="1" stop-color="#8AE899"/>
</linearGradient>
</defs>
</svg>
