<svg width="20" height="20" viewBox="0 0 20 20" fill="none" xmlns="http://www.w3.org/2000/svg">
<path d="M6.63136 16.6945L7.46822 11.8407C8.13771 13.0123 9.14195 13.5144 10.4809 13.5144C11.8199 13.5144 12.9915 12.8449 13.8284 11.6733C14.6653 10.5017 15 8.99537 15 7.48901C15 6.15003 14.6653 5.14579 13.9958 4.30892C13.3263 3.47206 12.6568 3.30469 11.8199 3.30469C10.4809 3.30469 9.4767 3.97418 8.47246 5.48054L8.8072 3.47206H7.30085L5.125 16.6945H6.63136ZM10.1462 12.3428C9.4767 12.3428 8.97458 12.0081 8.47246 11.506C7.97034 11.0038 7.80297 10.5017 7.80297 9.66486C7.80297 8.32587 8.13771 7.15426 8.8072 6.15003C9.4767 5.14579 10.3136 4.64367 11.1504 4.64367C11.8199 4.64367 12.322 4.81104 12.6568 5.31316C12.9915 5.81528 13.3263 6.3174 13.3263 7.15426C13.3263 8.49325 12.9915 9.66486 12.4894 10.6691C11.9873 11.6733 11.3178 12.3428 10.1462 12.3428Z" fill="#E547D5"/>
</svg>
