<svg width="10" height="10" viewBox="0 0 10 10" fill="none" xmlns="http://www.w3.org/2000/svg">
<g clip-path="url(#clip0_3433_634)">
<path fill-rule="evenodd" clip-rule="evenodd" d="M5.71248 0.888727C5.83896 0.650855 5.74866 0.355489 5.51078 0.229011C5.27291 0.102532 4.97755 0.192834 4.85107 0.430706L0.228858 9.12382C0.102379 9.36169 0.192682 9.65705 0.430554 9.78353C0.668427 9.91001 0.963792 9.81971 1.09027 9.58184L5.71248 0.888727ZM5.78284 5.16998C5.90932 4.9321 5.81902 4.63674 5.58114 4.51026C5.34327 4.38378 5.04791 4.47408 4.92143 4.71196L2.5763 9.12249C2.44982 9.36036 2.54013 9.65573 2.778 9.78221C3.01587 9.90869 3.31124 9.81839 3.43772 9.58051L5.78284 5.16998ZM7.73197 3.84477C7.85845 3.6069 8.15382 3.51659 8.39169 3.64307C8.62956 3.76955 8.71987 4.06492 8.59339 4.30279L5.78735 9.58018C5.66087 9.81806 5.3655 9.90836 5.12763 9.78188C4.88976 9.6554 4.79946 9.36003 4.92593 9.12216L7.73197 3.84477ZM9.32971 7.33404C9.45619 7.09617 9.36589 6.8008 9.12802 6.67432C8.89015 6.54784 8.59478 6.63815 8.4683 6.87602L7.27313 9.12382C7.14665 9.36169 7.23695 9.65706 7.47482 9.78354C7.71269 9.91002 8.00806 9.81971 8.13454 9.58184L9.32971 7.33404Z" fill="url(#paint0_linear_3433_634)"/>
</g>
<defs>
<linearGradient id="paint0_linear_3433_634" x1="5.16662" y1="0.879416" x2="10.5288" y2="10.8504" gradientUnits="userSpaceOnUse">
<stop stop-color="#3F3CFF"/>
<stop offset="0.520833" stop-color="#6BBEE1"/>
<stop offset="1" stop-color="#8AE899"/>
</linearGradient>
<clipPath id="clip0_3433_634">
<rect width="10" height="10" fill="white"/>
</clipPath>
</defs>
</svg>
