<svg width="18" height="18" viewBox="0 0 18 18" fill="none" xmlns="http://www.w3.org/2000/svg">
<path d="M17.0372 12.9408C17.0776 12.9747 17.111 13.0164 17.1355 13.0634C17.1807 13.15 17.1935 13.2504 17.1715 13.3457C17.1505 13.4366 17.0993 13.5172 17.0268 13.574L16.9543 13.6197L10.1 17.3104C9.79051 17.4771 9.4482 17.5713 9.09818 17.586C8.75155 17.6006 8.40609 17.5369 8.0867 17.3996L7.89386 17.3056L1.03352 13.6116L1.03181 13.6107C0.942033 13.5628 0.873582 13.482 0.840368 13.3848C0.807154 13.2875 0.811669 13.181 0.852995 13.087C0.894321 12.9929 0.969358 12.9184 1.06286 12.8785C1.15245 12.8403 1.25256 12.8367 1.34441 12.868L1.42156 12.9029L8.27681 16.5946L8.27789 16.5952C8.66539 16.8027 9.11897 16.8336 9.52623 16.6844L9.54271 16.6783L9.71024 16.6031L16.596 12.8949C16.6423 12.87 16.693 12.8546 16.7452 12.8496C16.7974 12.8446 16.8501 12.85 16.9002 12.8657C16.9503 12.8813 16.9968 12.9069 17.0372 12.9408Z" fill="url(#paint0_linear_3114_508)"/>
<path d="M17.0372 9.2944C17.0776 9.32833 17.111 9.37001 17.1355 9.41705C17.1807 9.50358 17.1935 9.60397 17.1715 9.69931C17.1505 9.79018 17.0993 9.87077 17.0268 9.92761L16.9542 9.97332L10.1 13.664C9.79051 13.8307 9.4482 13.9249 9.09818 13.9396C8.75155 13.9542 8.40608 13.8905 8.0867 13.7532L7.89384 13.6592L1.03352 9.96525L1.03181 9.96434C0.942032 9.91645 0.873582 9.83565 0.840368 9.73837C0.807154 9.64108 0.811669 9.5346 0.852995 9.44057C0.89432 9.34655 0.969357 9.27202 1.06286 9.23214C1.15245 9.19393 1.25256 9.19028 1.34441 9.22159L1.42156 9.2565L8.27681 12.9482L8.27789 12.9488C8.66539 13.1563 9.11897 13.1872 9.52623 13.038L9.54272 13.0319L9.71024 12.9567L16.596 9.2485C16.6423 9.22359 16.693 9.20819 16.7452 9.20318C16.7974 9.19816 16.8501 9.20364 16.9002 9.21929C16.9503 9.23494 16.9968 9.26046 17.0372 9.2944Z" fill="url(#paint1_linear_3114_508)"/>
<path fill-rule="evenodd" clip-rule="evenodd" d="M16.1732 6.75763L10.3096 9.91417C9.90666 10.1311 9.45746 10.2445 9.00136 10.2445C8.54526 10.2445 8.09606 10.1311 7.69308 9.91417L1.82936 6.75752C1.57301 6.61967 1.35851 6.41351 1.2089 6.16117C1.05929 5.90884 0.980241 5.61988 0.980241 5.32536C0.980241 5.03083 1.05929 4.74188 1.2089 4.48954C1.35851 4.23721 1.57322 4.03093 1.82957 3.89309L7.69312 0.73653C8.0961 0.519646 8.54526 0.40625 9.00136 0.40625C9.45746 0.40625 9.90666 0.519667 10.3096 0.736552L16.1734 3.8932C16.4297 4.03104 16.6442 4.23721 16.7938 4.48954C16.9434 4.74188 17.0225 5.03083 17.0225 5.32536C17.0225 5.61988 16.9434 5.90884 16.7938 6.16117C16.6442 6.41351 16.4295 6.61979 16.1732 6.75763ZM9.00136 9.43367C8.67523 9.43367 8.35407 9.3525 8.066 9.19727L2.20243 6.04005C2.07494 5.97089 1.96834 5.86787 1.89402 5.742C1.8197 5.61612 1.78044 5.47212 1.78044 5.32536C1.78044 5.1786 1.8197 5.03459 1.89402 4.90872C1.96834 4.78284 2.07494 4.67983 2.20243 4.61067L2.20379 4.60993L8.06614 1.45338C8.35418 1.29819 8.67529 1.21705 9.00136 1.21705C9.32744 1.21705 9.64868 1.29827 9.93672 1.45345L15.8003 4.61067C15.9278 4.67983 16.0344 4.78285 16.1087 4.90872C16.183 5.03459 16.2223 5.17859 16.2223 5.32536C16.2223 5.47212 16.183 5.61613 16.1087 5.742C16.0344 5.86787 15.9278 5.97089 15.8003 6.04005L15.7989 6.04079L9.93672 9.19727C9.64865 9.3525 9.32749 9.43367 9.00136 9.43367Z" fill="url(#paint2_linear_3114_508)"/>
<defs>
<linearGradient id="paint0_linear_3114_508" x1="1.93107" y1="1.57463" x2="18.1017" y2="17.0383" gradientUnits="userSpaceOnUse">
<stop stop-color="#3F3CFF"/>
<stop offset="0.520833" stop-color="#6BBEE1"/>
<stop offset="1" stop-color="#8AE899"/>
</linearGradient>
<linearGradient id="paint1_linear_3114_508" x1="1.93107" y1="1.57463" x2="18.1017" y2="17.0383" gradientUnits="userSpaceOnUse">
<stop stop-color="#3F3CFF"/>
<stop offset="0.520833" stop-color="#6BBEE1"/>
<stop offset="1" stop-color="#8AE899"/>
</linearGradient>
<linearGradient id="paint2_linear_3114_508" x1="1.93107" y1="1.57463" x2="18.1017" y2="17.0383" gradientUnits="userSpaceOnUse">
<stop stop-color="#3F3CFF"/>
<stop offset="0.520833" stop-color="#6BBEE1"/>
<stop offset="1" stop-color="#8AE899"/>
</linearGradient>
</defs>
</svg>
