<svg width="46" height="46" viewBox="0 0 46 46" fill="none" xmlns="http://www.w3.org/2000/svg">
<path d="M43.093 32.852C43.194 32.9368 43.2775 33.041 43.3388 33.1586C43.4516 33.3749 43.4837 33.6259 43.4287 33.8642C43.3763 34.0914 43.2483 34.2929 43.0669 34.435L42.8856 34.5492L25.7499 43.7759C24.9763 44.1927 24.1205 44.4282 23.2455 44.4651C22.3789 44.5016 21.5152 44.3423 20.7168 43.999L20.2347 43.7639L3.0838 34.5291L3.07952 34.5268C2.85508 34.4071 2.68396 34.2051 2.60092 33.9619C2.51788 33.7187 2.52917 33.4525 2.63249 33.2174C2.7358 32.9823 2.92339 32.796 3.15714 32.6963C3.38112 32.6008 3.63139 32.5917 3.86102 32.6699L4.05389 32.7572L21.192 41.9866L21.1947 41.988C22.1635 42.5066 23.2974 42.584 24.3156 42.2109L24.3568 42.1958L24.7756 42.0077L41.99 32.7372C42.1058 32.6749 42.2326 32.6364 42.3631 32.6239C42.4935 32.6114 42.6251 32.6251 42.7504 32.6642C42.8757 32.7033 42.9921 32.7671 43.093 32.852Z" fill="url(#paint0_linear_3493_1763)"/>
<path d="M43.093 23.736C43.194 23.8208 43.2775 23.925 43.3388 24.0426C43.4516 24.259 43.4837 24.5099 43.4287 24.7483C43.3763 24.9754 43.2483 25.1769 43.0669 25.319L42.8856 25.4333L25.7499 34.6599C24.9763 35.0767 24.1205 35.3122 23.2455 35.3491C22.3789 35.3856 21.5152 35.2264 20.7168 34.883L20.2346 34.6479L3.0838 25.4131L3.07952 25.4109C2.85508 25.2911 2.68395 25.0891 2.60092 24.8459C2.51788 24.6027 2.52917 24.3365 2.63249 24.1014C2.7358 23.8664 2.92339 23.68 3.15714 23.5804C3.38113 23.4848 3.63139 23.4757 3.86101 23.554L4.0539 23.6412L21.192 32.8706L21.1947 32.8721C22.1635 33.3907 23.2974 33.468 24.3156 33.095L24.3568 33.0799L24.7756 32.8917L41.99 23.6213C42.1058 23.559 42.2326 23.5205 42.3631 23.5079C42.4935 23.4954 42.6251 23.5091 42.7504 23.5482C42.8756 23.5874 42.9921 23.6512 43.093 23.736Z" fill="url(#paint1_linear_3493_1763)"/>
<path fill-rule="evenodd" clip-rule="evenodd" d="M40.9329 17.3941L26.2741 25.2854C25.2667 25.8276 24.1437 26.1112 23.0034 26.1112C21.8632 26.1112 20.7402 25.8276 19.7327 25.2854L5.07341 17.3938C4.43253 17.0492 3.89627 16.5338 3.52225 15.9029C3.14823 15.2721 2.9506 14.5497 2.9506 13.8134C2.9506 13.0771 3.14823 12.3547 3.52225 11.7239C3.89627 11.093 4.43305 10.5773 5.07393 10.2327L19.7328 2.34133C20.7403 1.79911 21.8632 1.51562 23.0034 1.51562C24.1437 1.51562 25.2667 1.79917 26.2741 2.34138L40.9334 10.233C41.5743 10.5776 42.1105 11.093 42.4846 11.7239C42.8586 12.3547 43.0562 13.0771 43.0562 13.8134C43.0562 14.5497 42.8586 15.2721 42.4846 15.9029C42.1105 16.5338 41.5738 17.0495 40.9329 17.3941ZM23.0034 24.0842C22.1881 24.0842 21.3852 23.8812 20.665 23.4932L6.00608 15.6001C5.68735 15.4272 5.42086 15.1697 5.23505 14.855C5.04925 14.5403 4.95111 14.1803 4.95111 13.8134C4.95111 13.4465 5.04925 13.0865 5.23505 12.7718C5.42086 12.4571 5.68736 12.1996 6.00608 12.0267L6.00948 12.0248L20.6654 4.13344C21.3854 3.74549 22.1882 3.54263 23.0034 3.54263C23.8186 3.54263 24.6217 3.74568 25.3418 4.13363L40.0007 12.0267C40.3195 12.1996 40.586 12.4571 40.7718 12.7718C40.9576 13.0865 41.0557 13.4465 41.0557 13.8134C41.0557 14.1803 40.9576 14.5403 40.7718 14.855C40.586 15.1697 40.3195 15.4272 40.0007 15.6001L39.9973 15.602L25.3418 23.4932C24.6216 23.8812 23.8187 24.0842 23.0034 24.0842Z" fill="url(#paint2_linear_3493_1763)"/>
<defs>
<linearGradient id="paint0_linear_3493_1763" x1="5.32769" y1="4.43657" x2="45.7542" y2="43.0958" gradientUnits="userSpaceOnUse">
<stop stop-color="#3F3CFF"/>
<stop offset="0.520833" stop-color="#6BBEE1"/>
<stop offset="1" stop-color="#8AE899"/>
</linearGradient>
<linearGradient id="paint1_linear_3493_1763" x1="5.32769" y1="4.43657" x2="45.7542" y2="43.0958" gradientUnits="userSpaceOnUse">
<stop stop-color="#3F3CFF"/>
<stop offset="0.520833" stop-color="#6BBEE1"/>
<stop offset="1" stop-color="#8AE899"/>
</linearGradient>
<linearGradient id="paint2_linear_3493_1763" x1="5.32769" y1="4.43657" x2="45.7542" y2="43.0958" gradientUnits="userSpaceOnUse">
<stop stop-color="#3F3CFF"/>
<stop offset="0.520833" stop-color="#6BBEE1"/>
<stop offset="1" stop-color="#8AE899"/>
</linearGradient>
</defs>
</svg>
