<svg width="26" height="26" viewBox="0 0 26 26" fill="none" xmlns="http://www.w3.org/2000/svg">
<path d="M21.0372 16.9408C21.0776 16.9747 21.111 17.0164 21.1355 17.0634C21.1807 17.15 21.1935 17.2504 21.1715 17.3457C21.1505 17.4366 21.0993 17.5172 21.0268 17.574L20.9543 17.6197L14.1 21.3104C13.7905 21.4771 13.4482 21.5713 13.0982 21.586C12.7515 21.6006 12.4061 21.5369 12.0867 21.3996L11.8939 21.3056L5.03352 17.6116L5.03181 17.6107C4.94203 17.5628 4.87358 17.482 4.84037 17.3848C4.80715 17.2875 4.81167 17.181 4.85299 17.087C4.89432 16.9929 4.96936 16.9184 5.06286 16.8785C5.15245 16.8403 5.25256 16.8367 5.34441 16.868L5.42156 16.9029L12.2768 20.5946L12.2779 20.5952C12.6654 20.8027 13.119 20.8336 13.5262 20.6844L13.5427 20.6783L13.7102 20.6031L20.596 16.8949C20.6423 16.87 20.693 16.8546 20.7452 16.8496C20.7974 16.8446 20.8501 16.85 20.9002 16.8657C20.9503 16.8813 20.9968 16.9069 21.0372 16.9408Z" fill="url(#paint0_linear_3114_716)"/>
<path d="M21.0372 13.2944C21.0776 13.3283 21.111 13.37 21.1355 13.417C21.1807 13.5036 21.1935 13.604 21.1715 13.6993C21.1505 13.7902 21.0993 13.8708 21.0268 13.9276L20.9542 13.9733L14.1 17.664C13.7905 17.8307 13.4482 17.9249 13.0982 17.9396C12.7515 17.9542 12.4061 17.8905 12.0867 17.7532L11.8938 17.6592L5.03352 13.9653L5.03181 13.9643C4.94203 13.9165 4.87358 13.8357 4.84037 13.7384C4.80715 13.6411 4.81167 13.5346 4.85299 13.4406C4.89432 13.3465 4.96936 13.272 5.06286 13.2321C5.15245 13.1939 5.25256 13.1903 5.34441 13.2216L5.42156 13.2565L12.2768 16.9482L12.2779 16.9488C12.6654 17.1563 13.119 17.1872 13.5262 17.038L13.5427 17.0319L13.7102 16.9567L20.596 13.2485C20.6423 13.2236 20.693 13.2082 20.7452 13.2032C20.7974 13.1982 20.8501 13.2036 20.9002 13.2193C20.9503 13.2349 20.9968 13.2605 21.0372 13.2944Z" fill="url(#paint1_linear_3114_716)"/>
<path fill-rule="evenodd" clip-rule="evenodd" d="M20.1732 10.7576L14.3096 13.9142C13.9067 14.1311 13.4575 14.2445 13.0014 14.2445C12.5453 14.2445 12.0961 14.1311 11.6931 13.9142L5.82936 10.7575C5.57301 10.6197 5.35851 10.4135 5.2089 10.1612C5.05929 9.90884 4.98024 9.61988 4.98024 9.32536C4.98024 9.03083 5.05929 8.74188 5.2089 8.48954C5.35851 8.23721 5.57322 8.03093 5.82957 7.89309L11.6931 4.73653C12.0961 4.51965 12.5453 4.40625 13.0014 4.40625C13.4575 4.40625 13.9067 4.51967 14.3096 4.73655L20.1734 7.8932C20.4297 8.03104 20.6442 8.23721 20.7938 8.48954C20.9434 8.74188 21.0225 9.03083 21.0225 9.32536C21.0225 9.61988 20.9434 9.90884 20.7938 10.1612C20.6442 10.4135 20.4295 10.6198 20.1732 10.7576ZM13.0014 13.4337C12.6752 13.4337 12.3541 13.3525 12.066 13.1973L6.20243 10.0401C6.07494 9.97089 5.96834 9.86787 5.89402 9.742C5.8197 9.61612 5.78044 9.47212 5.78044 9.32536C5.78044 9.1786 5.8197 9.03459 5.89402 8.90872C5.96834 8.78284 6.07494 8.67983 6.20243 8.61067L6.20379 8.60993L12.0661 5.45338C12.3542 5.29819 12.6753 5.21705 13.0014 5.21705C13.3274 5.21705 13.6487 5.29827 13.9367 5.45345L19.8003 8.61067C19.9278 8.67983 20.0344 8.78285 20.1087 8.90872C20.183 9.03459 20.2223 9.17859 20.2223 9.32536C20.2223 9.47212 20.183 9.61613 20.1087 9.742C20.0344 9.86787 19.9278 9.97089 19.8003 10.0401L19.7989 10.0408L13.9367 13.1973C13.6486 13.3525 13.3275 13.4337 13.0014 13.4337Z" fill="url(#paint2_linear_3114_716)"/>
<defs>
<linearGradient id="paint0_linear_3114_716" x1="5.93107" y1="5.57463" x2="22.1017" y2="21.0383" gradientUnits="userSpaceOnUse">
<stop stop-color="#3F3CFF"/>
<stop offset="0.520833" stop-color="#6BBEE1"/>
<stop offset="1" stop-color="#8AE899"/>
</linearGradient>
<linearGradient id="paint1_linear_3114_716" x1="5.93107" y1="5.57463" x2="22.1017" y2="21.0383" gradientUnits="userSpaceOnUse">
<stop stop-color="#3F3CFF"/>
<stop offset="0.520833" stop-color="#6BBEE1"/>
<stop offset="1" stop-color="#8AE899"/>
</linearGradient>
<linearGradient id="paint2_linear_3114_716" x1="5.93107" y1="5.57463" x2="22.1017" y2="21.0383" gradientUnits="userSpaceOnUse">
<stop stop-color="#3F3CFF"/>
<stop offset="0.520833" stop-color="#6BBEE1"/>
<stop offset="1" stop-color="#8AE899"/>
</linearGradient>
</defs>
</svg>
