<svg width="36" height="36" viewBox="0 0 36 36" fill="none" xmlns="http://www.w3.org/2000/svg">
<rect width="36" height="36" rx="8" fill="white"/>
<path d="M16 18.0207C16.4641 18.0207 16.9092 18.1853 17.2374 18.4783C17.5656 18.7713 17.75 19.1688 17.75 19.5832V24.2707C17.75 24.6851 17.5656 25.0825 17.2374 25.3755C16.9092 25.6686 16.4641 25.8332 16 25.8332H10.75C10.2859 25.8332 9.84075 25.6686 9.51256 25.3755C9.18437 25.0825 9 24.6851 9 24.2707V19.5832C9 19.1688 9.18437 18.7713 9.51256 18.4783C9.84075 18.1853 10.2859 18.0207 10.75 18.0207H16ZM27.375 22.9686V24.5311H18.9167V22.9686H27.375ZM16 19.5832H10.75V24.2707H16V19.5832ZM27.375 19.5832V21.1457H18.9167V19.5832H27.375ZM16 9.1665C16.4641 9.1665 16.9092 9.33112 17.2374 9.62415C17.5656 9.91718 17.75 10.3146 17.75 10.729V15.4165C17.75 15.8309 17.5656 16.2283 17.2374 16.5214C16.9092 16.8144 16.4641 16.979 16 16.979H10.75C10.2859 16.979 9.84075 16.8144 9.51256 16.5214C9.18437 16.2283 9 15.8309 9 15.4165V10.729C9 10.3146 9.18437 9.91718 9.51256 9.62415C9.84075 9.33112 10.2859 9.1665 10.75 9.1665H16ZM16 10.729H10.75V15.4165H16V10.729ZM27.375 13.854V15.4165H18.9167V13.854H27.375ZM27.375 10.4686V12.0311H18.9167V10.4686H27.375Z" fill="url(#paint0_linear_2626_275)"/>
<defs>
<linearGradient id="paint0_linear_2626_275" x1="10.2495" y1="10.2998" x2="25.8701" y2="27.5922" gradientUnits="userSpaceOnUse">
<stop stop-color="#3F3CFF"/>
<stop offset="0.520833" stop-color="#6BBEE1"/>
<stop offset="1" stop-color="#8AE899"/>
</linearGradient>
</defs>
</svg>
