<svg width="32" height="32" viewBox="0 0 32 32" fill="none" xmlns="http://www.w3.org/2000/svg">
<rect width="32" height="32" rx="4" fill="#3F3CFF" fill-opacity="0.04"/>
<path fill-rule="evenodd" clip-rule="evenodd" d="M10.5319 7.53906H17.2285C20.3218 7.53906 22.8385 10.0557 22.8385 13.1491C22.8385 16.2424 20.3218 18.7591 17.2285 18.7591H13.1602V16.8391H17.2285C19.2632 16.8391 20.9185 15.1838 20.9185 13.1491C20.9185 11.1143 19.2632 9.45906 17.2285 9.45906H10.5319C8.49715 9.45906 6.84187 11.1143 6.84187 13.1491C6.84107 13.947 7.10027 14.7235 7.58024 15.3609V17.9169C5.98603 16.9264 4.92188 15.16 4.92188 13.1491C4.92188 10.0557 7.43852 7.53906 10.5319 7.53906ZM24.083 16.1129V13.8156C25.9402 14.7311 27.2213 16.6436 27.2213 18.8502C27.2213 21.9436 24.7046 24.4602 21.6113 24.4602H14.9147C11.8213 24.4602 9.30469 21.9436 9.30469 18.8502C9.30469 15.7569 11.8213 13.2402 14.9147 13.2402H18.5029V15.1602H14.9147C12.88 15.1602 11.2247 16.8155 11.2247 18.8502C11.2247 20.885 12.88 22.5402 14.9147 22.5402H21.6113C23.646 22.5402 25.3013 20.885 25.3013 18.8502C25.3013 17.7654 24.8306 16.7886 24.083 16.1129Z" fill="#3F3CFF" fill-opacity="0.8"/>
</svg>
