<svg width="25" height="25" viewBox="0 0 25 25" fill="none" xmlns="http://www.w3.org/2000/svg">
<path d="M17.972 13.1109C17.972 12.7769 17.7005 12.5054 17.3665 12.5054C17.0462 12.5054 16.7845 12.7535 16.7611 13.0679L16.7533 13.066C16.4173 15.398 14.2591 17.023 11.9232 16.6949C9.58334 16.3667 7.95248 14.2027 8.28061 11.8628C8.61069 9.523 10.7747 7.89214 13.1146 8.22222C13.7708 8.31401 14.3724 8.55229 14.89 8.89604L14.1361 10.0757C14.099 10.1324 14.1497 10.2046 14.2162 10.191L17.0482 9.57183C17.0892 9.56206 17.1146 9.523 17.1068 9.48198L16.4837 6.63823C16.4701 6.57183 16.3822 6.5562 16.347 6.61284L15.5462 7.86675C14.8861 7.4312 14.1205 7.13042 13.2845 7.01323C10.2767 6.59136 7.49741 8.68511 7.07553 11.6929C6.65366 14.7007 8.74741 17.48 11.7552 17.9019C14.7572 18.3238 17.5345 16.2359 17.9622 13.2359H17.9603C17.9681 13.1968 17.972 13.1539 17.972 13.1109Z" fill="url(#paint0_linear_4049_79)"/>
<defs>
<linearGradient id="paint0_linear_4049_79" x1="7.02148" y1="6.57812" x2="18.3697" y2="17.5446" gradientUnits="userSpaceOnUse">
<stop stop-color="#6BBEE1"/>
<stop offset="1" stop-color="#8AE899"/>
</linearGradient>
</defs>
</svg>
