<svg width="24" height="24" viewBox="0 0 24 24" fill="none" xmlns="http://www.w3.org/2000/svg">
<path d="M15.5309 15.4474C15.3584 15.6374 15.2624 15.8851 15.2624 16.1425C15.2624 16.411 15.3668 16.6689 15.5535 16.8618L15.5309 15.4474ZM15.5309 15.4474L15.5529 15.4249L17.0889 13.8549L17.4214 13.515H16.9459H7.93794C7.39649 13.515 6.94994 13.0647 6.94994 12.501C6.94994 11.9363 7.3965 11.487 7.93694 11.487H16.9459H17.4214L17.0889 11.1471L15.5536 9.57786C15.5535 9.57775 15.5534 9.57764 15.5533 9.57753C15.3667 9.38469 15.2624 9.12685 15.2624 8.8585C15.2624 8.59003 15.3668 8.33209 15.5535 8.13922C15.644 8.04595 15.7522 7.9718 15.8718 7.92116C15.9915 7.87053 16.12 7.84443 16.2499 7.84443C16.3798 7.84443 16.5084 7.87053 16.6281 7.92116C16.7477 7.9718 16.8559 8.04595 16.9464 8.13922L16.947 8.13986L20.5087 11.7805C20.5087 11.7806 20.5088 11.7807 20.5088 11.7807C20.6952 11.9722 20.7999 12.2299 20.7999 12.5C20.7999 12.7704 20.6949 13.029 20.509 13.2192L16.947 16.8612L16.9464 16.8618C16.8559 16.955 16.7477 17.0292 16.6281 17.0798C16.5084 17.1305 16.3798 17.1566 16.2499 17.1566C16.12 17.1566 15.9915 17.1305 15.8718 17.0798C15.7522 17.0292 15.644 16.9551 15.5536 16.8619L15.5309 15.4474ZM2.19994 5.214C2.19994 4.65038 2.64533 4.20028 3.18744 4.2C3.72866 4.20028 4.17494 4.65049 4.17494 5.214V19.786C4.17494 20.3498 3.72828 20.8 3.18794 20.8C2.64649 20.8 2.19994 20.3497 2.19994 19.786V5.214Z" fill="black" stroke="white" stroke-width="0.4"/>
</svg>
