<svg width="24" height="24" viewBox="0 0 24 24" fill="none" xmlns="http://www.w3.org/2000/svg">
<path d="M3.188 4C2.531 4 2 4.544 2 5.214V19.786C2 20.456 2.532 21 3.188 21C3.843 21 4.375 20.456 4.375 19.786V5.214C4.375 4.544 3.843 4 3.187 4H3.188ZM15.41 15.284C15.1871 15.5142 15.0624 15.8221 15.0624 16.1425C15.0624 16.4629 15.1871 16.7708 15.41 17.001C15.5191 17.1135 15.6496 17.2029 15.7939 17.264C15.9382 17.3251 16.0933 17.3566 16.25 17.3566C16.4067 17.3566 16.5618 17.3251 16.7061 17.264C16.8504 17.2029 16.9809 17.1135 17.09 17.001L20.652 13.359C20.875 13.131 21 12.822 21 12.5C21 12.178 20.875 11.87 20.652 11.641L17.09 8C16.9809 7.8875 16.8504 7.79806 16.7061 7.73698C16.5618 7.67591 16.4067 7.64443 16.25 7.64443C16.0933 7.64443 15.9382 7.67591 15.7939 7.73698C15.6496 7.79806 15.5191 7.8875 15.41 8C15.1871 8.23018 15.0624 8.53806 15.0624 8.8585C15.0624 9.17894 15.1871 9.48682 15.41 9.717L16.946 11.287H7.937C7.282 11.287 6.75 11.83 6.75 12.501C6.75 13.171 7.282 13.715 7.938 13.715H16.946L15.41 15.285V15.284Z" fill="url(#paint0_linear_3908_886)" fill-opacity="0.9"/>
<defs>
<linearGradient id="paint0_linear_3908_886" x1="-1.03846" y1="15.1106" x2="9.74518" y2="3.43905" gradientUnits="userSpaceOnUse">
<stop stop-color="#6BBEE1"/>
<stop offset="1" stop-color="#8AE899"/>
</linearGradient>
</defs>
</svg>
