<svg width="24" height="24" viewBox="0 0 24 24" fill="none" xmlns="http://www.w3.org/2000/svg">
<path d="M3.188 4.00049C2.531 4.00049 2 4.54449 2 5.21449V19.7865C2 20.4565 2.532 21.0005 3.188 21.0005C3.843 21.0005 4.375 20.4565 4.375 19.7865V5.21449C4.375 4.54449 3.843 4.00049 3.187 4.00049H3.188ZM15.41 15.2845C15.1871 15.5147 15.0624 15.8225 15.0624 16.143C15.0624 16.4634 15.1871 16.7713 15.41 17.0015C15.5191 17.114 15.6496 17.2034 15.7939 17.2645C15.9382 17.3256 16.0933 17.3571 16.25 17.3571C16.4067 17.3571 16.5618 17.3256 16.7061 17.2645C16.8504 17.2034 16.9809 17.114 17.09 17.0015L20.652 13.3595C20.875 13.1315 21 12.8225 21 12.5005C21 12.1785 20.875 11.8705 20.652 11.6415L17.09 8.00049C16.9809 7.88799 16.8504 7.79855 16.7061 7.73747C16.5618 7.67639 16.4067 7.64492 16.25 7.64492C16.0933 7.64492 15.9382 7.67639 15.7939 7.73747C15.6496 7.79855 15.5191 7.88799 15.41 8.00049C15.1871 8.23067 15.0624 8.53855 15.0624 8.85899C15.0624 9.17943 15.1871 9.48731 15.41 9.71749L16.946 11.2875H7.937C7.282 11.2875 6.75 11.8305 6.75 12.5015C6.75 13.1715 7.282 13.7155 7.938 13.7155H16.946L15.41 15.2855V15.2845Z" fill="url(#paint0_linear_3908_544)" fill-opacity="0.9"/>
<defs>
<linearGradient id="paint0_linear_3908_544" x1="2" y1="4.00049" x2="18.8533" y2="22.9134" gradientUnits="userSpaceOnUse">
<stop stop-color="#3F3CFF"/>
<stop offset="1" stop-color="#6BBEE1"/>
</linearGradient>
</defs>
</svg>
