<svg width="20" height="20" viewBox="0 0 20 20" fill="none" xmlns="http://www.w3.org/2000/svg">
<g clip-path="url(#clip0_238_644)">
<path d="M8.33334 5V6.66667H4.16667V15.8333H13.3333V11.6667H15V16.6667C15 16.8877 14.9122 17.0996 14.7559 17.2559C14.5997 17.4122 14.3877 17.5 14.1667 17.5H3.33334C3.11233 17.5 2.90037 17.4122 2.74409 17.2559C2.5878 17.0996 2.50001 16.8877 2.50001 16.6667V5.83333C2.50001 5.61232 2.5878 5.40036 2.74409 5.24408C2.90037 5.0878 3.11233 5 3.33334 5H8.33334ZM17.5 2.5V9.16667H15.8333V5.34417L9.33917 11.8392L8.16084 10.6608L14.6542 4.16667H10.8333V2.5H17.5Z" fill="#F76487"/>
</g>
<defs>
<clipPath id="clip0_238_644">
<rect width="20" height="20" fill="white"/>
</clipPath>
</defs>
</svg>
