<svg width="20" height="20" viewBox="0 0 20 20" fill="none" xmlns="http://www.w3.org/2000/svg">
<g opacity="0.6">
<path fill-rule="evenodd" clip-rule="evenodd" d="M2.33333 10C2.33333 5.76582 5.76582 2.33333 10 2.33333C14.2342 2.33333 17.6667 5.76582 17.6667 10C17.6667 14.2342 14.2342 17.6667 10 17.6667C5.76582 17.6667 2.33333 14.2342 2.33333 10ZM10 1C5.02944 1 1 5.02944 1 10C1 14.9706 5.02944 19 10 19C14.9706 19 19 14.9706 19 10C19 5.02944 14.9706 1 10 1ZM9.3372 13.1288L14.4801 7.79544L13.5203 6.86993L8.85731 11.7056L6.48006 9.2403L5.52027 10.1658L8.37741 13.1288L8.85731 13.6264L9.3372 13.1288Z" fill="#F76487"/>
</g>
</svg>
