<svg width="20" height="20" viewBox="0 0 20 20" fill="none" xmlns="http://www.w3.org/2000/svg">
<path fill-rule="evenodd" clip-rule="evenodd" d="M2.33318 10C2.33318 5.76582 5.76566 2.33333 9.99985 2.33333C14.234 2.33333 17.6665 5.76582 17.6665 10C17.6665 14.2342 14.234 17.6667 9.99985 17.6667C5.76566 17.6667 2.33318 14.2342 2.33318 10ZM9.99985 1C5.02928 1 0.999847 5.02944 0.999847 10C0.999847 14.9706 5.02928 19 9.99985 19C14.9704 19 18.9998 14.9706 18.9998 10C18.9998 5.02944 14.9704 1 9.99985 1ZM9.3369 13.1288L14.4798 7.79544L13.52 6.86993L8.857 11.7056L6.47975 9.2403L5.51996 10.1658L8.3771 13.1288L8.857 13.6264L9.3369 13.1288Z" fill="black" fill-opacity="0.2"/>
</svg>
