<svg width="20" height="20" viewBox="0 0 20 20" fill="none" xmlns="http://www.w3.org/2000/svg">
<path fill-rule="evenodd" clip-rule="evenodd" d="M2.33309 10C2.33309 5.76582 5.76557 2.33333 9.99976 2.33333C14.2339 2.33333 17.6664 5.76582 17.6664 10C17.6664 14.2342 14.2339 17.6667 9.99976 17.6667C5.76557 17.6667 2.33309 14.2342 2.33309 10ZM9.99976 1C5.02919 1 0.999756 5.02944 0.999756 10C0.999756 14.9706 5.02919 19 9.99976 19C14.9703 19 18.9998 14.9706 18.9998 10C18.9998 5.02944 14.9703 1 9.99976 1ZM9.33696 13.1288L14.4798 7.79544L13.52 6.86993L8.85706 11.7056L6.47981 9.2403L5.52002 10.1658L8.37717 13.1288L8.85706 13.6264L9.33696 13.1288Z" fill="#E547D5" fill-opacity="0.6"/>
</svg>
