<svg width="16" height="16" viewBox="0 0 16 16" fill="none" xmlns="http://www.w3.org/2000/svg">
<path fill-rule="evenodd" clip-rule="evenodd" d="M1.86666 8.00078C1.86666 4.61343 4.61264 1.86745 7.99999 1.86745C11.3873 1.86745 14.1333 4.61343 14.1333 8.00078C14.1333 11.3881 11.3873 14.1341 7.99999 14.1341C4.61264 14.1341 1.86666 11.3881 1.86666 8.00078ZM7.99999 0.800781C4.02354 0.800781 0.799988 4.02433 0.799988 8.00078C0.799988 11.9772 4.02354 15.2008 7.99999 15.2008C11.9764 15.2008 15.2 11.9772 15.2 8.00078C15.2 4.02433 11.9764 0.800781 7.99999 0.800781ZM7.46962 10.506L11.5839 6.23935L10.8161 5.49893L7.0857 9.36747L5.1839 7.39523L4.41607 8.13564L6.70179 10.506L7.0857 10.9041L7.46962 10.506Z" fill="url(#paint0_linear_4071_87)"/>
<defs>
<linearGradient id="paint0_linear_4071_87" x1="-1.50285" y1="10.2122" x2="7.65543" y2="1.34317" gradientUnits="userSpaceOnUse">
<stop stop-color="#6BBEE1"/>
<stop offset="1" stop-color="#8AE899"/>
</linearGradient>
</defs>
</svg>
