<svg width="20" height="20" viewBox="0 0 20 20" fill="none" xmlns="http://www.w3.org/2000/svg">
<path fill-rule="evenodd" clip-rule="evenodd" d="M3.75176 1.25H16.2518C16.58 1.25008 16.9049 1.31481 17.2081 1.44049C17.5113 1.56618 17.7867 1.75036 18.0187 1.98251C18.2507 2.21467 18.4347 2.49025 18.5602 2.79352C18.6857 3.09678 18.7502 3.4218 18.75 3.75V16.2512C18.7502 16.5793 18.6857 16.9042 18.5603 17.2074C18.4349 17.5107 18.2509 17.7862 18.0189 18.0182C17.7869 18.2503 17.5115 18.4344 17.2084 18.5599C16.9052 18.6855 16.5803 18.7501 16.2521 18.75H3.75215C2.37129 18.75 1.25 17.6322 1.25 16.25V3.75C1.25052 3.08681 1.51432 2.45096 1.98343 1.98218C2.45254 1.5134 3.08857 1.25005 3.75176 1.25ZM17.5 16.2547V3.75176V3.75137C17.5005 3.58729 17.4686 3.42473 17.4062 3.273C17.3438 3.12126 17.252 2.98332 17.1362 2.86709C17.0204 2.75085 16.8828 2.6586 16.7313 2.59561C16.5798 2.53262 16.4174 2.50013 16.2533 2.5H3.75508C3.42267 2.49964 3.10373 2.6313 2.86838 2.86603C2.63302 3.10076 2.50052 3.41935 2.5 3.75176V16.2547C2.50061 16.4189 2.53357 16.5813 2.59698 16.7328C2.66039 16.8842 2.75302 17.0217 2.86957 17.1373C2.98612 17.253 3.12431 17.3445 3.27625 17.4068C3.42818 17.469 3.59089 17.5007 3.75508 17.5H16.257C16.4205 17.5001 16.5824 17.4679 16.7334 17.4054C16.8844 17.3428 17.0215 17.251 17.137 17.1353C17.2525 17.0197 17.344 16.8823 17.4063 16.7312C17.4686 16.5801 17.5004 16.4181 17.5 16.2547ZM6.09761 7.86919L8.15659 5.8104L8.15581 5.81059C8.27441 5.70095 8.43085 5.64148 8.59234 5.64465C8.75382 5.64782 8.90781 5.71338 9.02202 5.82759C9.13623 5.9418 9.20179 6.09579 9.20496 6.25727C9.20813 6.41875 9.14866 6.5752 9.03902 6.6938L6.53902 9.1938C6.42183 9.3108 6.26301 9.37651 6.09741 9.37651C5.93182 9.37651 5.773 9.3108 5.65581 9.1938L4.40581 7.9438C4.34403 7.88668 4.29441 7.81768 4.25994 7.74092C4.22547 7.66417 4.20685 7.58124 4.2052 7.49712C4.20355 7.413 4.2189 7.3294 4.25033 7.25136C4.28177 7.17331 4.32864 7.10241 4.38814 7.04292C4.44763 6.98342 4.51853 6.93655 4.59658 6.90511C4.67462 6.87368 4.75822 6.85833 4.84234 6.85998C4.92646 6.86163 5.00939 6.88025 5.08614 6.91472C5.1629 6.94919 5.2319 6.99881 5.28902 7.06059L6.09761 7.86919ZM5.5075 10.6841C5.86723 10.4438 6.29016 10.3155 6.72281 10.3155V10.3153C7.01009 10.3153 7.29456 10.3719 7.55997 10.4818C7.82538 10.5918 8.06654 10.7529 8.26967 10.9561C8.4728 11.1592 8.63393 11.4004 8.74385 11.6658C8.85377 11.9312 8.91033 12.2157 8.91031 12.503C8.91031 12.9356 8.78201 13.3586 8.54165 13.7183C8.30128 14.078 7.95964 14.3584 7.55993 14.524C7.16021 14.6895 6.72038 14.7328 6.29604 14.6484C5.87171 14.564 5.48194 14.3557 5.17601 14.0498C4.87008 13.7438 4.66174 13.3541 4.57734 12.9297C4.49293 12.5054 4.53625 12.0656 4.70182 11.6659C4.86739 11.2661 5.14776 10.9245 5.5075 10.6841ZM6.81016 13.4357C7.02629 13.415 7.22858 13.3201 7.38257 13.167V13.1672C7.47027 13.0803 7.5399 12.9768 7.58743 12.8628C7.63496 12.7488 7.65947 12.6265 7.65952 12.503C7.65992 12.2859 7.58503 12.0753 7.44762 11.9072C7.31022 11.7391 7.11878 11.6238 6.90593 11.581C6.69307 11.5382 6.47196 11.5705 6.28025 11.6724C6.08854 11.7744 5.93808 11.9396 5.85451 12.14C5.77093 12.3404 5.75941 12.5635 5.8219 12.7714C5.88439 12.9794 6.01703 13.1592 6.19722 13.2803C6.37742 13.4014 6.59403 13.4564 6.81016 13.4357ZM10.4736 6.87466H15.4748C15.6405 6.87466 15.7995 6.9405 15.9167 7.05771C16.0339 7.17492 16.0998 7.3339 16.0998 7.49966C16.0998 7.66542 16.0339 7.82439 15.9167 7.9416C15.7995 8.05881 15.6405 8.12466 15.4748 8.12466H10.4736C10.3078 8.12466 10.1489 8.05881 10.0316 7.9416C9.91443 7.82439 9.84859 7.66542 9.84859 7.49966C9.84859 7.3339 9.91443 7.17492 10.0316 7.05771C10.1489 6.9405 10.3078 6.87466 10.4736 6.87466ZM10.4736 11.8747H15.4748C15.6405 11.8747 15.7995 11.9405 15.9167 12.0577C16.0339 12.1749 16.0998 12.3339 16.0998 12.4997C16.0998 12.6654 16.0339 12.8244 15.9167 12.9416C15.7995 13.0588 15.6405 13.1247 15.4748 13.1247H10.4736C10.3078 13.1247 10.1489 13.0588 10.0316 12.9416C9.91443 12.8244 9.84859 12.6654 9.84859 12.4997C9.84859 12.3339 9.91443 12.1749 10.0316 12.0577C10.1489 11.9405 10.3078 11.8747 10.4736 11.8747Z" fill="url(#paint0_linear_338_63)"/>
<defs>
<linearGradient id="paint0_linear_338_63" x1="1.25" y1="1.25" x2="20.6369" y2="3.19149" gradientUnits="userSpaceOnUse">
<stop stop-color="#3F3CFF"/>
<stop offset="1" stop-color="#6BBEE1"/>
</linearGradient>
</defs>
</svg>
