<svg width="62" height="17" viewBox="0 0 62 17" fill="none" xmlns="http://www.w3.org/2000/svg">
<circle cx="1.5" cy="8.5" r="1.5" fill="black"/>
<circle cx="12.5" cy="8.5" r="1.5" fill="black"/>
<path fill-rule="evenodd" clip-rule="evenodd" d="M27.4225 6.89239L28.9644 8.43431L27.4225 9.97622C26.5709 10.8278 25.1903 10.8278 24.3387 9.97622C23.4871 9.12465 23.4871 7.74397 24.3387 6.89239C25.1903 6.04082 26.5709 6.04082 27.4225 6.89239ZM23.1366 11.1783C21.6211 9.66284 21.6211 7.20578 23.1366 5.69031C24.6521 4.17484 27.1091 4.17484 28.6246 5.69031L30.1665 7.23223L30.1774 7.24313L30.1861 7.23444L31.728 5.69253C33.2435 4.17706 35.7005 4.17706 37.216 5.69253C38.7315 7.20799 38.7315 9.66505 37.216 11.1805C35.7005 12.696 33.2435 12.696 31.728 11.1805L30.1861 9.6386L30.1752 9.6277L30.1665 9.63639L28.6246 11.1783C27.1091 12.6938 24.6521 12.6938 23.1366 11.1783ZM32.9301 6.89461L31.3882 8.43652L32.9301 9.97844C33.7817 10.83 35.1623 10.83 36.0139 9.97844C36.8655 9.12686 36.8655 7.74618 36.0139 6.89461C35.1623 6.04303 33.7817 6.04303 32.9301 6.89461Z" fill="black"/>
<path d="M49.96 8.49953L46.99 10.2143V6.7848L49.96 8.49953Z" fill="black"/>
<path d="M61.9199 8.49953L58.9499 10.2143V6.7848L61.9199 8.49953Z" fill="black"/>
</svg>
