<svg width="73" height="69" viewBox="0 0 73 69" fill="none" xmlns="http://www.w3.org/2000/svg">
<circle cx="7.5" cy="47" r="1.5" fill="black"/>
<circle cx="18.5" cy="47" r="1.5" fill="black"/>
<path fill-rule="evenodd" clip-rule="evenodd" d="M33.4225 45.3934L34.9644 46.9353L33.4225 48.4772C32.5709 49.3288 31.1903 49.3288 30.3387 48.4772C29.4871 47.6256 29.4871 46.2449 30.3387 45.3934C31.1903 44.5418 32.5709 44.5418 33.4225 45.3934ZM29.1366 49.6793C27.6211 48.1638 27.6211 45.7068 29.1366 44.1913C30.6521 42.6758 33.1091 42.6758 34.6246 44.1913L36.1665 45.7332L36.1774 45.7441L36.1861 45.7354L37.728 44.1935C39.2435 42.678 41.7005 42.678 43.216 44.1935C44.7315 45.709 44.7315 48.166 43.216 49.6815C41.7005 51.197 39.2435 51.197 37.728 49.6815L36.1861 48.1396L36.1752 48.1287L36.1665 48.1374L34.6246 49.6793C33.1091 51.1947 30.6521 51.1947 29.1366 49.6793ZM38.9301 45.3956L37.3882 46.9375L38.9301 48.4794C39.7817 49.331 41.1623 49.331 42.0139 48.4794C42.8655 47.6278 42.8655 46.2472 42.0139 45.3956C41.1623 44.544 39.7817 44.544 38.9301 45.3956Z" fill="black"/>
<path d="M55.9609 47.0034L52.9909 48.7182V45.2887L55.9609 47.0034Z" fill="black"/>
<path d="M67.9199 47.0034L64.9499 48.7182V45.2887L67.9199 47.0034Z" fill="black"/>
</svg>
