<svg width="20" height="21" viewBox="0 0 20 21" fill="none" xmlns="http://www.w3.org/2000/svg">
<path d="M2 7.1727H9.15C9.38342 8.01585 9.88683 8.75923 10.5831 9.28894C11.2794 9.81865 12.1301 10.1055 13.005 10.1055C13.8799 10.1055 14.7306 9.81865 15.4269 9.28894C16.1232 8.75923 16.6266 8.01585 16.86 7.1727H18C18.2652 7.1727 18.5196 7.06734 18.7071 6.87981C18.8946 6.69227 19 6.43792 19 6.1727C19 5.90748 18.8946 5.65313 18.7071 5.46559C18.5196 5.27806 18.2652 5.1727 18 5.1727H16.86C16.6329 4.32105 16.131 3.56824 15.432 3.03124C14.7331 2.49424 13.8764 2.20312 12.995 2.20312C12.1136 2.20312 11.2569 2.49424 10.558 3.03124C9.85904 3.56824 9.35705 4.32105 9.13 5.1727H2C1.73478 5.1727 1.48043 5.27806 1.29289 5.46559C1.10536 5.65313 1 5.90748 1 6.1727C1 6.43792 1.10536 6.69227 1.29289 6.87981C1.48043 7.06734 1.73478 7.1727 2 7.1727ZM13 4.1727C13.3956 4.1727 13.7822 4.29 14.1111 4.50976C14.44 4.72952 14.6964 5.04188 14.8478 5.40733C14.9991 5.77279 15.0387 6.17492 14.9616 6.56288C14.8844 6.95084 14.6939 7.30721 14.4142 7.58691C14.1345 7.86662 13.7781 8.0571 13.3902 8.13427C13.0022 8.21144 12.6001 8.17184 12.2346 8.02046C11.8692 7.86908 11.5568 7.61274 11.3371 7.28384C11.1173 6.95494 11 6.56826 11 6.1727C10.9974 5.90838 11.0471 5.64615 11.1465 5.40119C11.2458 5.15623 11.3927 4.93338 11.5787 4.74554C11.7646 4.5577 11.986 4.40859 12.23 4.30683C12.4739 4.20507 12.7357 4.15269 13 4.1527V4.1727ZM18 14.1727H10.86C10.6329 13.3211 10.131 12.5682 9.43204 12.0312C8.73312 11.4942 7.8764 11.2031 6.995 11.2031C6.1136 11.2031 5.25689 11.4942 4.55796 12.0312C3.85904 12.5682 3.35705 13.3211 3.13 14.1727H2C1.73478 14.1727 1.48043 14.2781 1.29289 14.4656C1.10536 14.6531 1 14.9075 1 15.1727C1 15.4379 1.10536 15.6923 1.29289 15.8798C1.48043 16.0673 1.73478 16.1727 2 16.1727H3.15C3.38342 17.0159 3.88683 17.7592 4.58311 18.2889C5.27939 18.8186 6.13013 19.1055 7.005 19.1055C7.87987 19.1055 8.73061 18.8186 9.42689 18.2889C10.1232 17.7592 10.6266 17.0159 10.86 16.1727H18C18.2652 16.1727 18.5196 16.0673 18.7071 15.8798C18.8946 15.6923 19 15.4379 19 15.1727C19 14.9075 18.8946 14.6531 18.7071 14.4656C18.5196 14.2781 18.2652 14.1727 18 14.1727ZM7 17.1727C6.60444 17.1727 6.21776 17.0554 5.88886 16.8356C5.55996 16.6159 5.30362 16.3035 5.15224 15.9381C5.00087 15.5726 4.96126 15.1705 5.03843 14.7825C5.1156 14.3946 5.30608 14.0382 5.58579 13.7585C5.86549 13.4788 6.22186 13.2883 6.60982 13.2111C6.99778 13.134 7.39991 13.1736 7.76537 13.3249C8.13082 13.4763 8.44318 13.7327 8.66294 14.0616C8.8827 14.3905 9 14.7771 9 15.1727C8.99473 15.6997 8.78169 16.2032 8.40719 16.574C8.03269 16.9448 7.52699 17.1527 7 17.1527V17.1727Z" fill="black" fill-opacity="0.4"/>
</svg>
