<svg width="40" height="40" viewBox="0 0 40 40" fill="none" xmlns="http://www.w3.org/2000/svg">
<path d="M1.59265 30.5088C1.53832 29.7968 1.77347 29.1541 2.0742 28.532C3.70873 25.1487 5.34637 21.7666 6.98714 18.3858C9.18565 13.8382 11.3814 9.28909 13.5743 4.73841C13.9799 3.89523 14.3312 3.03987 15.0358 2.36907C16.8861 0.604952 20.1558 1.07245 21.3503 3.33405C22.052 4.67189 22.5485 6.10905 23.1303 7.49936C24.8092 11.4923 26.4802 15.4896 28.1435 19.4913C28.2756 19.8098 28.3852 19.7883 28.6447 19.6627C30.7199 18.6556 32.8072 17.6709 34.8824 16.6647C36.0581 16.0923 37.1636 16.1888 38.1389 17.0395C39.0505 17.8349 39.2632 18.8851 38.9362 20.0253C37.7689 24.095 36.5915 28.1617 35.4042 32.2252C34.9892 33.6464 33.8865 34.557 32.5608 34.6179C31.0937 34.6863 29.9376 33.92 29.3502 32.5156C26.5858 25.8851 23.8186 19.2564 21.0486 12.6296C20.063 10.2719 19.0765 7.91471 18.089 5.55817C18.0309 5.41951 18.0188 5.23495 17.822 5.21434C17.6 5.19186 17.5972 5.40171 17.5353 5.52819C15.4118 9.90524 13.2904 14.2832 11.1712 18.6621C9.42674 22.2691 7.68542 25.8779 5.94721 29.4886C5.83198 29.7265 5.72611 29.9701 5.61369 30.21C5.54717 30.3514 5.45068 30.5088 5.58933 30.64C5.72799 30.7712 5.85259 30.6269 5.97157 30.5697C7.64482 29.7684 9.31682 28.9646 10.9876 28.1582C14.6726 26.3894 18.3538 24.6194 22.0314 22.8481C22.3171 22.7103 22.4539 22.7206 22.5813 23.0457C22.956 24.0023 23.3636 24.9476 23.773 25.891C23.8967 26.1721 23.8442 26.321 23.5528 26.4616C18.2127 29.0239 12.881 31.6096 7.53239 34.1607C4.98037 35.3787 2.25408 34.0052 1.64043 31.2518C1.58235 31.0035 1.6039 30.7562 1.59265 30.5088ZM32.1542 29.0623H32.261C33.0105 26.4728 33.76 23.8842 34.5395 21.1692C32.9571 21.9252 31.5265 22.612 30.0922 23.2903C29.8111 23.4252 29.8683 23.6069 29.9619 23.829C30.3442 24.7321 30.7114 25.639 31.0946 26.5459C31.4463 27.3841 31.7995 28.2229 32.1542 29.0623Z" fill="url(#paint0_linear_3682_8166)"/>
<defs>
<linearGradient id="paint0_linear_3682_8166" x1="4.1345" y1="3.56074" x2="35.3001" y2="38.7678" gradientUnits="userSpaceOnUse">
<stop stop-color="#3F3CFF"/>
<stop offset="0.520833" stop-color="#6BBEE1"/>
<stop offset="1" stop-color="#8AE899"/>
</linearGradient>
</defs>
</svg>
