<svg width="22" height="22" viewBox="0 0 22 22" fill="none" xmlns="http://www.w3.org/2000/svg">
<rect width="22" height="22" rx="4" fill="#557BF1" fill-opacity="0.08"/>
<path fill-rule="evenodd" clip-rule="evenodd" d="M11 5.375C10.3787 5.375 9.875 5.87868 9.875 6.5V9.875H6.5C5.87868 9.875 5.375 10.3787 5.375 11C5.375 11.6213 5.87868 12.125 6.5 12.125H9.875V15.5C9.875 16.1213 10.3787 16.625 11 16.625C11.6213 16.625 12.125 16.1213 12.125 15.5V12.125H15.5C16.1213 12.125 16.625 11.6213 16.625 11C16.625 10.3787 16.1213 9.875 15.5 9.875H12.125V6.5C12.125 5.87868 11.6213 5.375 11 5.375Z" fill="#557BF1"/>
</svg>
