<svg width="264" height="112" viewBox="0 0 264 112" fill="none" xmlns="http://www.w3.org/2000/svg">
<path fill-rule="evenodd" clip-rule="evenodd" d="M20.7524 61.809C16.8435 60.2911 13.275 58.0122 10.2534 55.1044C7.23175 52.1965 4.81717 48.7174 3.14949 44.8687C1.48182 41.02 0.5942 36.8781 0.538058 32.6831C0.481917 28.488 1.25836 24.3232 2.82243 20.4298C4.38649 16.5364 6.70708 12.9918 9.64976 10.0014C12.5924 7.01106 16.0987 4.63433 19.9655 3.00891C23.8322 1.3835 27.9826 0.541705 32.1761 0.532306C36.3697 0.522907 40.523 1.34608 44.3956 2.95416C52.1003 6.15349 58.2322 12.2634 61.4612 19.9586C64.6903 27.6537 64.756 36.3136 61.6443 44.0597C58.5325 51.8059 52.4941 58.0135 44.8389 61.3363C37.1838 64.6591 28.5291 64.8289 20.7524 61.809ZM197.764 85.7641C196.961 86.5678 196.007 87.2054 194.957 87.6406C193.907 88.0757 192.782 88.2998 191.646 88.3002C190.51 88.3005 189.385 88.0771 188.335 87.6427C187.286 87.2083 186.333 86.5714 185.53 85.7684C184.727 84.9654 184.09 84.012 183.655 82.9626C183.221 81.9132 182.998 80.7883 182.998 79.6522C182.998 78.5161 183.222 77.391 183.657 76.3412C184.093 75.2914 184.73 74.3373 185.534 73.5337C186.338 72.73 187.292 72.0924 188.341 71.6572C189.391 71.2221 190.516 70.998 191.652 70.9976C192.789 70.9973 193.913 71.2207 194.963 71.6551C196.012 72.0895 196.966 72.7264 197.769 73.5294C198.572 74.3324 199.209 75.2858 199.643 76.3352C200.077 77.3846 200.301 78.5094 200.3 79.6455C200.3 80.7816 200.076 81.9067 199.641 82.9566C199.206 84.0064 198.568 84.9604 197.764 85.7641ZM195.34 88.5643C196.511 88.079 197.575 87.3677 198.471 86.4712C199.368 85.5747 200.079 84.5106 200.565 83.3395C201.05 82.1684 201.3 80.9133 201.3 79.6459C201.301 78.3784 201.052 77.1235 200.567 75.9527C200.082 74.7819 199.372 73.7182 198.476 72.8223C197.58 71.9263 196.516 71.2158 195.345 70.7311C194.175 70.2465 192.92 69.9972 191.652 69.9976C190.385 69.998 189.13 70.248 187.959 70.7334C186.787 71.2188 185.723 71.9301 184.827 72.8266C183.93 73.723 183.219 74.7872 182.734 75.9583C182.248 77.1294 181.998 78.3845 181.998 79.6519C181.997 80.9193 182.247 82.1743 182.731 83.3451C183.216 84.5159 183.927 85.5796 184.823 86.4755C185.718 87.3714 186.782 88.082 187.953 88.5667C189.124 89.0513 190.379 89.3006 191.646 89.3002C192.914 89.2998 194.169 89.0497 195.34 88.5643ZM173.652 38.5605C174.304 38.2903 174.896 37.8944 175.395 37.3954C175.894 36.8963 176.29 36.304 176.561 35.6521C176.831 35.0002 176.97 34.3015 176.97 33.596C176.97 32.8905 176.832 32.1919 176.562 31.5402C176.292 30.8885 175.896 30.2964 175.398 29.7977C174.899 29.2989 174.307 28.9034 173.655 28.6336C173.003 28.3638 172.305 28.2251 171.599 28.2253C170.894 28.2255 170.195 28.3647 169.543 28.6349C168.891 28.9051 168.299 29.301 167.8 29.8C167.301 30.2991 166.905 30.8915 166.635 31.5433C166.365 32.1952 166.226 32.8939 166.225 33.5994C166.225 34.3049 166.364 35.0035 166.634 35.6552C166.903 36.3069 167.299 36.899 167.798 37.3978C168.296 37.8965 168.889 38.292 169.54 38.5618C170.192 38.8316 170.891 38.9703 171.596 38.9701C172.302 38.9699 173 38.8307 173.652 38.5605ZM125.389 32.8997C124.053 36.2243 121.453 38.8824 118.159 40.2894C114.866 41.6963 111.149 41.7369 107.827 40.4024C104.505 39.0679 101.849 36.4675 100.445 33.1731C99.0397 29.8787 99.0006 26.1601 100.336 22.8355C101.672 19.5109 104.272 16.8527 107.566 15.4458C110.859 14.0388 114.576 13.9983 117.898 15.3328C121.22 16.6673 123.876 19.2677 125.28 22.5621C126.685 25.8565 126.724 29.575 125.389 32.8997ZM118.552 41.209C122.089 39.6978 124.882 36.843 126.317 33.2724C127.751 29.7019 127.709 25.7082 126.2 22.1698C124.691 18.6315 121.839 15.8383 118.271 14.4049C114.702 12.9714 110.711 13.015 107.173 14.5262C103.636 16.0373 100.843 18.8922 99.4083 22.4627C97.9739 26.0332 98.0158 30.027 99.5247 33.5653C101.034 37.1037 103.886 39.8968 107.454 41.3303C111.023 42.7638 115.014 42.7201 118.552 41.209ZM250.334 57.9767C255.713 55.6789 259.96 51.3379 262.141 45.9085C264.322 40.4792 264.258 34.4064 261.964 29.026C259.669 23.6456 255.332 19.3984 249.906 17.2187C244.48 15.039 238.41 15.1054 233.031 17.4032C227.652 19.701 223.405 24.0421 221.224 29.4714C219.043 34.9007 219.107 40.9735 221.401 46.3539C223.696 51.7343 228.033 55.9815 233.459 58.1612C238.885 60.3409 244.955 60.2746 250.334 57.9767ZM145.703 102.562C144.251 106.175 141.425 109.064 137.845 110.593C134.265 112.123 130.226 112.167 126.615 110.716C123.004 109.266 120.118 106.439 118.591 102.859C117.064 99.278 117.021 95.2366 118.473 91.6235C119.924 88.0103 122.751 85.1214 126.33 83.5922C129.91 82.063 133.95 82.0189 137.561 83.4694C141.171 84.92 144.058 87.7465 145.585 91.3271C147.112 94.9076 147.154 98.9491 145.703 102.562ZM78.0461 83.4911C79.6376 82.8112 80.8942 81.5268 81.5395 79.9204C82.1849 78.314 82.166 76.5172 81.4871 74.9253C80.8083 73.3333 79.525 72.0767 77.9196 71.4318C76.3142 70.7868 74.5182 70.8065 72.9267 71.4864C71.3352 72.1662 70.0786 73.4506 69.4332 75.0571C68.7879 76.6635 68.8067 78.4603 69.4856 80.0522C70.1645 81.6441 71.4478 82.9008 73.0532 83.5457C74.6586 84.1906 76.4546 84.171 78.0461 83.4911Z" fill="url(#paint0_linear_926_130)" fill-opacity="0.15"/>
<defs>
<linearGradient id="paint0_linear_926_130" x1="-79.6518" y1="-219.031" x2="122.797" y2="150.266" gradientUnits="userSpaceOnUse">
<stop stop-color="#09F7F9"/>
<stop offset="1" stop-color="#0038F5"/>
</linearGradient>
</defs>
</svg>
