<svg width="39" height="39" viewBox="0 0 39 39" fill="none" xmlns="http://www.w3.org/2000/svg">
<path fill-rule="evenodd" clip-rule="evenodd" d="M16.4978 24.3324C17.3648 25.1668 18.3889 25.8208 19.5106 26.2563C21.7422 27.1229 24.2257 27.0742 26.4225 26.1207C28.6192 25.1672 30.352 23.3858 31.2449 21.163C32.1379 18.9401 32.119 16.4551 31.1924 14.2469C30.2658 12.0387 28.5062 10.2854 26.2952 9.36728C25.184 8.90583 23.9921 8.66961 22.7887 8.67231C21.5853 8.675 20.3944 8.91657 19.2847 9.383C18.1751 9.84943 17.169 10.5315 16.3245 11.3896C15.4801 12.2477 14.8142 13.2648 14.3654 14.3821C13.9165 15.4994 13.6937 16.6945 13.7098 17.8983C13.726 19.1021 13.9807 20.2907 14.4592 21.3951C14.9378 22.4996 15.6307 23.4979 16.4978 24.3324ZM22.9888 24.5039C22.1072 24.5046 21.2343 24.3301 20.4208 23.9904C18.8065 23.3164 17.5227 22.0334 16.8471 20.4191C16.1716 18.8048 16.1587 16.989 16.8112 15.3647C17.4638 13.7403 18.7292 12.4381 20.3338 11.7398C21.9384 11.0414 23.753 11.0031 25.385 11.6332C26.2073 11.9507 26.9584 12.4285 27.5945 13.0389C28.2306 13.6493 28.7392 14.3801 29.0905 15.1888C29.4419 15.9976 29.6292 16.8682 29.6414 17.7501C29.6536 18.632 29.4906 19.5076 29.1618 20.3261C28.833 21.1446 28.345 21.8897 27.726 22.5181C27.1071 23.1464 26.3696 23.6455 25.5563 23.9864C24.7431 24.3274 23.8704 24.5033 22.9888 24.5039ZM9.97572 28.4775C10.4444 27.9984 10.8143 27.4317 11.0642 26.8097C11.314 26.1877 11.439 25.5227 11.432 24.8524C11.4249 24.1822 11.286 23.5201 11.0232 22.9037C10.7603 22.2873 10.3787 21.7288 9.90002 21.2601C9.42136 20.7913 8.85506 20.4216 8.23347 20.1719C7.61187 19.9221 6.94714 19.7974 6.27724 19.8047C5.60734 19.812 4.94538 19.9513 4.32917 20.2145C3.71295 20.4778 3.15454 20.8598 2.68582 21.3389C2.2171 21.818 1.84725 22.3847 1.59738 23.0067C1.34751 23.6287 1.22253 24.2938 1.22956 24.964C1.23659 25.6342 1.37549 26.2964 1.63835 26.9128C1.9012 27.5292 2.28286 28.0876 2.76152 28.5564C3.24018 29.0251 3.80647 29.3949 4.42807 29.6446C5.04967 29.8943 5.71439 30.019 6.38429 30.0117C7.05419 30.0044 7.71615 29.8651 8.33237 29.6019C8.94859 29.3387 9.507 28.9566 9.97572 28.4775ZM27.7857 35.3603C27.4493 36.1978 26.7941 36.8675 25.9643 37.222C25.1345 37.5765 24.1981 37.5867 23.361 37.2505C22.524 36.9142 21.8549 36.259 21.501 35.429C21.147 34.599 21.1372 33.6621 21.4737 32.8246C21.8101 31.987 22.4653 31.3173 23.2951 30.9629C24.1249 30.6084 25.0613 30.5982 25.8983 30.9344C26.7354 31.2707 27.4045 31.9259 27.7584 32.7559C28.1124 33.5859 28.1222 34.5227 27.7857 35.3603ZM8.28111 14.1525C8.69582 13.9753 9.02328 13.6406 9.19144 13.222C9.3596 12.8034 9.35469 12.3352 9.17779 11.9204C9.00089 11.5055 8.66649 11.1781 8.24815 11.01C7.82981 10.842 7.3618 10.8471 6.94708 11.0242C6.53237 11.2014 6.20491 11.5361 6.03675 11.9547C5.86859 12.3733 5.8735 12.8415 6.0504 13.2563C6.2273 13.6712 6.5617 13.9986 6.98004 14.1667C7.39838 14.3347 7.86639 14.3296 8.28111 14.1525Z" fill="url(#paint0_linear_856_2287)"/>
<defs>
<linearGradient id="paint0_linear_856_2287" x1="36.9996" y1="33" x2="-12.179" y2="16.5165" gradientUnits="userSpaceOnUse">
<stop stop-color="#8AE899"/>
<stop offset="0.429477" stop-color="#6BBEE1"/>
<stop offset="1" stop-color="#3F3CFF"/>
</linearGradient>
</defs>
</svg>
