<svg width="20" height="20" viewBox="0 0 20 20" fill="none" xmlns="http://www.w3.org/2000/svg">
<path d="M17.5 5C17.6105 5 17.7165 5.0439 17.7946 5.12204C17.8728 5.20018 17.9167 5.30616 17.9167 5.41667V6.25C17.9167 6.36051 17.8728 6.46649 17.7946 6.54463C17.7165 6.62277 17.6105 6.66667 17.5 6.66667H15.8333V15.8333C15.8333 16.7617 15.0333 17.4567 14.0888 17.4979L14 17.5H6.00001C5.04751 17.5 4.21834 16.8333 4.16918 15.9196L4.16668 15.8333V6.66667H2.50001C2.3895 6.66667 2.28352 6.62277 2.20538 6.54463C2.12724 6.46649 2.08334 6.36051 2.08334 6.25V5.41667C2.08334 5.30616 2.12724 5.20018 2.20538 5.12204C2.28352 5.0439 2.3895 5 2.50001 5H17.5ZM14.1667 6.66667H5.83334V15.7871L5.85001 15.7987C5.88285 15.8163 5.91881 15.8272 5.95584 15.8308L6.00001 15.8333H14C14.0521 15.8346 14.1037 15.8227 14.15 15.7987L14.1667 15.7867V6.66667ZM8.75001 8.75C8.86052 8.75 8.9665 8.7939 9.04464 8.87204C9.12278 8.95018 9.16668 9.05616 9.16668 9.16667V13.3333C9.16668 13.4438 9.12278 13.5498 9.04464 13.628C8.9665 13.7061 8.86052 13.75 8.75001 13.75H7.91668C7.80617 13.75 7.70019 13.7061 7.62205 13.628C7.54391 13.5498 7.50001 13.4438 7.50001 13.3333V9.16667C7.50001 9.05616 7.54391 8.95018 7.62205 8.87204C7.70019 8.7939 7.80617 8.75 7.91668 8.75H8.75001ZM12.0833 8.75C12.1939 8.75 12.2998 8.7939 12.378 8.87204C12.4561 8.95018 12.5 9.05616 12.5 9.16667V13.3333C12.5 13.4438 12.4561 13.5498 12.378 13.628C12.2998 13.7061 12.1939 13.75 12.0833 13.75H11.25C11.1395 13.75 11.0335 13.7061 10.9554 13.628C10.8772 13.5498 10.8333 13.4438 10.8333 13.3333V9.16667C10.8333 9.05616 10.8772 8.95018 10.9554 8.87204C11.0335 8.7939 11.1395 8.75 11.25 8.75H12.0833ZM12.0833 2.5C12.1381 2.5 12.1922 2.51078 12.2428 2.53172C12.2933 2.55266 12.3393 2.58335 12.378 2.62204C12.4167 2.66073 12.4474 2.70666 12.4683 2.75722C12.4892 2.80777 12.5 2.86195 12.5 2.91667V3.75C12.5 3.86051 12.4561 3.96649 12.378 4.04463C12.2998 4.12277 12.1939 4.16667 12.0833 4.16667H7.91668C7.80617 4.16667 7.70019 4.12277 7.62205 4.04463C7.54391 3.96649 7.50001 3.86051 7.50001 3.75V2.91667C7.50001 2.86195 7.51079 2.80777 7.53173 2.75722C7.55267 2.70666 7.58336 2.66073 7.62205 2.62204C7.66074 2.58335 7.70667 2.55266 7.75723 2.53172C7.80778 2.51078 7.86196 2.5 7.91668 2.5H12.0833Z" fill="black" fill-opacity="0.6"/>
</svg>
