<svg width="238" height="129" viewBox="0 0 238 129" fill="none" xmlns="http://www.w3.org/2000/svg">
<path fill-rule="evenodd" clip-rule="evenodd" d="M182.595 56.2927C185.712 59.2923 189.393 61.6432 193.426 63.209C201.448 66.3242 210.376 66.149 218.272 62.7214C226.169 59.2938 232.397 52.8904 235.607 44.9003C238.817 36.9101 238.749 27.9773 235.418 20.0394C232.088 12.1015 225.762 5.79874 217.814 2.49839C213.819 0.839547 209.535 -0.00961351 205.209 8.20989e-05C200.883 0.0097786 196.602 0.878139 192.613 2.55482C188.624 4.23151 185.008 6.68319 181.972 9.76781C178.937 12.8524 176.543 16.5087 174.93 20.5248C173.316 24.5409 172.515 28.837 172.573 33.1642C172.631 37.4915 173.547 41.764 175.267 45.7341C176.987 49.7042 179.478 53.293 182.595 56.2927ZM183.288 55.5721C186.31 58.48 189.879 60.7589 193.788 62.2768C201.564 65.2967 210.219 65.1268 217.874 61.8041C225.529 58.4813 231.568 52.2736 234.679 44.5275C237.791 36.7814 237.725 28.1215 234.496 20.4263C231.267 12.7312 225.135 6.62126 217.431 3.42193C213.558 1.81386 209.405 0.990681 205.211 1.00008C201.018 1.00948 196.867 1.85127 193.001 3.47669C189.134 5.10211 185.628 7.47884 182.685 10.4692C179.742 13.4596 177.422 17.0041 175.858 20.8975C174.294 24.7909 173.517 28.9558 173.573 33.1509C173.629 37.3459 174.517 41.4878 176.185 45.3365C177.852 49.1852 180.267 52.6643 183.288 55.5721ZM162.406 125.233C161.602 126.037 160.648 126.674 159.598 127.109C158.548 127.544 157.423 127.769 156.287 127.769C155.151 127.769 154.026 127.546 152.977 127.111C151.927 126.677 150.974 126.04 150.171 125.237C149.368 124.434 148.731 123.481 148.297 122.431C147.862 121.382 147.639 120.257 147.639 119.121C147.64 117.985 147.864 116.86 148.299 115.81C148.734 114.76 149.372 113.806 150.175 113.002C150.979 112.199 151.933 111.561 152.983 111.126C154.033 110.691 155.158 110.467 156.294 110.466C157.43 110.466 158.555 110.689 159.604 111.124C160.654 111.558 161.607 112.195 162.41 112.998C163.213 113.801 163.85 114.755 164.284 115.804C164.719 116.853 164.942 117.978 164.942 119.114C164.941 120.25 164.717 121.375 164.282 122.425C163.847 123.475 163.209 124.429 162.406 125.233ZM159.981 128.033C161.152 127.548 162.216 126.836 163.113 125.94C164.009 125.043 164.721 123.979 165.206 122.808C165.691 121.637 165.941 120.382 165.942 119.115C165.942 117.847 165.693 116.592 165.208 115.421C164.724 114.251 164.013 113.187 163.117 112.291C162.221 111.395 161.158 110.684 159.987 110.2C158.816 109.715 157.561 109.466 156.294 109.466C155.026 109.467 153.771 109.717 152.6 110.202C151.429 110.688 150.365 111.399 149.468 112.295C148.572 113.192 147.86 114.256 147.375 115.427C146.89 116.598 146.64 117.853 146.639 119.121C146.639 120.388 146.888 121.643 147.373 122.814C147.857 123.985 148.568 125.048 149.464 125.944C150.36 126.84 151.424 127.551 152.594 128.035C153.765 128.52 155.02 128.769 156.288 128.769C157.555 128.768 158.81 128.518 159.981 128.033ZM7.48829 85.8571C8.05794 85.621 8.57559 85.275 9.01169 84.8389C9.44778 84.4028 9.79376 83.8852 10.0299 83.3155C10.266 82.7459 10.3876 82.1354 10.3878 81.519C10.388 80.9026 10.2667 80.2923 10.0311 79.723C9.79538 79.1536 9.44986 78.6364 9.01422 78.2008C8.57858 77.7651 8.06134 77.4196 7.49201 77.1839C6.92268 76.9483 6.31239 76.827 5.69598 76.8272C5.07957 76.8274 4.46911 76.949 3.89947 77.1851C3.32982 77.4212 2.81217 77.7672 2.37607 78.2033C1.93998 78.6394 1.594 79.1571 1.3579 79.7267C1.1218 80.2963 1.00019 80.9068 1 81.5232C0.999807 82.1396 1.12103 82.7499 1.3567 83.3192C1.59238 83.8886 1.9379 84.4058 2.37354 84.8414C2.80918 85.2771 3.32642 85.6226 3.89575 85.8583C4.46508 86.094 5.07537 86.2152 5.69178 86.215C6.30819 86.2148 6.91865 86.0932 7.48829 85.8571ZM9.71879 85.546C9.1899 86.0749 8.56208 86.4945 7.87118 86.7809C7.18028 87.0672 6.43982 87.2148 5.69209 87.215C4.94436 87.2152 4.204 87.0682 3.51328 86.7822C2.82255 86.4963 2.19499 86.0771 1.66643 85.5486C1.13787 85.02 0.718666 84.3924 0.432738 83.7017C0.146811 83.011 -0.000233636 82.2706 2.78639e-07 81.5229C0.000235649 80.7752 0.147744 80.0347 0.434106 79.3438C0.720467 78.6529 1.14007 78.0251 1.66896 77.4962C2.19786 76.9673 2.82568 76.5477 3.51658 76.2613C4.20748 75.975 4.94794 75.8275 5.69567 75.8272C6.4434 75.827 7.18376 75.974 7.87449 76.26C8.56521 76.5459 9.19277 76.9651 9.72133 77.4937C10.2499 78.0222 10.6691 78.6498 10.955 79.3405C11.2409 80.0312 11.388 80.7716 11.3878 81.5193C11.3875 82.2671 11.24 83.0075 10.9537 83.6984C10.6673 84.3893 10.2477 85.0171 9.71879 85.546ZM221.037 93.8641C220.538 94.3632 219.946 94.7591 219.294 95.0293C218.642 95.2994 217.943 95.4386 217.238 95.4389C216.532 95.4391 215.834 95.3003 215.182 95.0305C214.53 94.7608 213.938 94.3652 213.439 93.8665C212.941 93.3678 212.545 92.7757 212.275 92.1239C212.005 91.4722 211.867 90.7737 211.867 90.0681C211.867 89.3626 212.006 88.664 212.277 88.0121C212.547 87.3602 212.943 86.7678 213.442 86.2688C213.941 85.7698 214.533 85.3739 215.185 85.1037C215.837 84.8335 216.535 84.6943 217.241 84.6941C217.947 84.6938 218.645 84.8326 219.297 85.1024C219.949 85.3722 220.541 85.7677 221.039 86.2664C221.538 86.7651 221.934 87.3573 222.203 88.009C222.473 88.6607 222.612 89.3593 222.612 90.0648C222.611 90.7703 222.472 91.4689 222.202 92.1208C221.932 92.7727 221.536 93.3651 221.037 93.8641ZM128.801 70.758C132.094 69.351 134.695 66.6929 136.03 63.3683C137.366 60.0437 137.327 56.3251 135.922 53.0307C134.517 49.7363 131.862 47.1359 128.54 45.8014C125.218 44.4669 121.501 44.5075 118.208 45.9144C114.914 47.3214 112.313 49.9795 110.978 53.3041C109.642 56.6287 109.681 60.3473 111.086 63.6417C112.491 66.9361 115.147 69.5365 118.469 70.871C121.791 72.2055 125.507 72.1649 128.801 70.758ZM136.958 63.7411C135.524 67.3116 132.731 70.1665 129.193 71.6776C125.656 73.1887 121.664 73.2324 118.096 71.7989C114.528 70.3655 111.675 67.5723 110.166 64.034C108.657 60.4956 108.615 56.5019 110.05 52.9314C111.484 49.3608 114.277 46.506 117.815 44.9948C121.352 43.4837 125.344 43.44 128.912 44.8735C132.481 46.307 135.333 49.1001 136.842 52.6384C138.351 56.1768 138.393 60.1705 136.958 63.7411ZM64.8539 59.0041C62.7716 64.1875 58.7169 68.3318 53.5818 70.5255C48.4468 72.7191 42.6521 72.7824 37.4725 70.7017C32.2929 68.6209 28.1524 64.5664 25.962 59.43C23.7716 54.2936 23.7107 48.4959 25.793 43.3125C27.8753 38.1291 31.93 33.9848 37.0651 31.7912C42.2001 29.5975 47.9948 29.5342 53.1744 31.615C58.354 33.6958 62.4945 37.7502 64.6849 42.8866C66.8754 48.0231 66.9362 53.8207 64.8539 59.0041ZM53.9747 71.4451C59.3536 69.1473 63.6008 64.8062 65.7819 59.3769C67.9629 53.9476 67.8992 47.8747 65.6048 42.4944C63.3103 37.114 58.9731 32.8668 53.5472 30.6871C48.1213 28.5074 42.0512 28.5737 36.6722 30.8715C31.2933 33.1694 27.0461 37.5104 24.8651 42.9397C22.684 48.3691 22.7477 54.4419 25.0421 59.8223C27.3366 65.2027 31.6738 69.4499 37.0997 71.6296C42.5256 73.8093 48.5957 73.7429 53.9747 71.4451ZM94.6875 109.96C96.279 109.28 97.5357 107.995 98.181 106.389C98.8263 104.783 98.8075 102.986 98.1286 101.394C97.4497 99.8019 96.1665 98.5452 94.5611 97.9003C92.9557 97.2554 91.1597 97.275 89.5682 97.9549C87.9767 98.6348 86.72 99.9192 86.0747 101.526C85.4294 103.132 85.4482 104.929 86.1271 106.521C86.806 108.113 88.0892 109.369 89.6946 110.014C91.3 110.659 93.096 110.64 94.6875 109.96Z" fill="url(#paint0_linear_924_198)" fill-opacity="0.5"/>
<defs>
<linearGradient id="paint0_linear_924_198" x1="-141.858" y1="-184.031" x2="48.9422" y2="201.924" gradientUnits="userSpaceOnUse">
<stop stop-color="#09F7F9"/>
<stop offset="1" stop-color="#0038F5"/>
</linearGradient>
</defs>
</svg>
