<svg width="80" height="75" viewBox="0 0 80 75" fill="none" xmlns="http://www.w3.org/2000/svg">
<path fill-rule="evenodd" clip-rule="evenodd" d="M74.2506 55.6009C74.2506 54.0208 75.5362 52.7352 77.1253 52.7352C78.7144 52.7352 80 54.0208 80 55.6009C80 55.6724 80 55.7438 79.9911 55.8152V62.6805C79.9911 68.9923 74.8756 74.1078 68.5638 74.1078H11.4273C5.1155 74.1078 0 68.9923 0 62.6805V11.4273C0 5.1155 5.1155 0 11.4273 0H33.0231L33.032 0.00892812C33.8623 -0.00892703 34.8086 0.285683 35.4693 1.43734L36.7905 3.73173H61.4217C67.5103 3.73173 72.4919 8.71332 72.4919 14.8019V14.8912C76.8664 16.4982 79.9821 20.6941 79.9821 25.6221V32.541C79.9911 32.6124 79.9911 32.6839 79.9911 32.7553C79.9911 34.3355 78.7055 35.621 77.1164 35.621C75.5273 35.621 74.2417 34.3355 74.2417 32.7553V25.6132C74.2417 22.4618 71.6795 19.8996 68.5281 19.8996H41.5221C40.4241 20.0246 39.2992 19.5068 38.71 18.489L31.3269 5.69579H11.463C8.31157 5.69579 5.74936 8.25801 5.74936 11.4094V62.8055C5.74936 65.9569 8.31157 68.5191 11.463 68.5191H68.537C71.6884 68.5191 74.2506 65.9569 74.2506 62.8055V55.6009ZM66.6086 14.1948C66.1533 11.4987 63.7964 9.42752 60.9753 9.42752H40.0848L42.8345 14.1948H66.6086Z" fill="url(#paint0_linear_963_597)" fill-opacity="0.4"/>
<path d="M75.0926 46.209C74.5535 45.6715 74.2506 44.9426 74.2506 44.1826C74.2506 43.4225 74.5535 42.6936 75.0926 42.1562C75.6317 41.6187 76.3629 41.3168 77.1253 41.3168C77.8877 41.3168 78.6189 41.6187 79.158 42.1562C79.6971 42.6936 80 43.4225 80 44.1826C80 44.9426 79.6971 45.6715 79.158 46.209C78.6189 46.7464 77.8877 47.0483 77.1253 47.0483C76.3629 47.0483 75.6317 46.7464 75.0926 46.209Z" fill="url(#paint1_linear_963_597)" fill-opacity="0.4"/>
<defs>
<linearGradient id="paint0_linear_963_597" x1="0" y1="0" x2="73.7179" y2="79.9036" gradientUnits="userSpaceOnUse">
<stop stop-color="#0038F5"/>
<stop offset="1" stop-color="#7BA7F9"/>
</linearGradient>
<linearGradient id="paint1_linear_963_597" x1="0" y1="0" x2="73.7179" y2="79.9036" gradientUnits="userSpaceOnUse">
<stop stop-color="#0038F5"/>
<stop offset="1" stop-color="#7BA7F9"/>
</linearGradient>
</defs>
</svg>
