<svg width="88" height="88" viewBox="0 0 88 88" fill="none" xmlns="http://www.w3.org/2000/svg">
<circle cx="44" cy="44" r="42.5" stroke="black" stroke-opacity="0.1" stroke-width="3"/>
<path fill-rule="evenodd" clip-rule="evenodd" d="M44 26C42.8954 26 42 26.8954 42 28V42H28C26.8954 42 26 42.8954 26 44C26 45.1046 26.8954 46 28 46H42V60C42 61.1046 42.8954 62 44 62C45.1046 62 46 61.1046 46 60V46H60C61.1046 46 62 45.1046 62 44C62 42.8954 61.1046 42 60 42H46V28C46 26.8954 45.1046 26 44 26Z" fill="#D9D9D9"/>
</svg>
