<svg width="80" height="80" viewBox="0 0 80 80" fill="none" xmlns="http://www.w3.org/2000/svg">
<path fill-rule="evenodd" clip-rule="evenodd" d="M79 40C79 61.5391 61.5391 79 40 79C18.4609 79 1 61.5391 1 40C1 18.4609 18.4609 1 40 1C61.5391 1 79 18.4609 79 40ZM80 40C80 62.0914 62.0914 80 40 80C17.9086 80 0 62.0914 0 40C0 17.9086 17.9086 0 40 0C62.0914 0 80 17.9086 80 40ZM39.0002 28.9997C39.0002 28.4474 39.4479 27.9997 40.0002 27.9997C40.5525 27.9997 41.0002 28.4474 41.0002 28.9997V38.9997H51.0002C51.5525 38.9997 52.0002 39.4474 52.0002 39.9997C52.0002 40.552 51.5525 40.9997 51.0002 40.9997H41.0002V50.9997C41.0002 51.552 40.5525 51.9997 40.0002 51.9997C39.4479 51.9997 39.0002 51.552 39.0002 50.9997V40.9997H29.0002C28.4479 40.9997 28.0002 40.552 28.0002 39.9997C28.0002 39.4474 28.4479 38.9997 29.0002 38.9997H39.0002V28.9997Z" fill="url(#paint0_linear_924_209)" fill-opacity="0.5"/>
<defs>
<linearGradient id="paint0_linear_924_209" x1="-47.6902" y1="-114.333" x2="100.894" y2="48.306" gradientUnits="userSpaceOnUse">
<stop stop-color="#09F7F9"/>
<stop offset="1" stop-color="#0038F5"/>
</linearGradient>
</defs>
</svg>
