<svg width="36" height="36" viewBox="0 0 36 36" fill="none" xmlns="http://www.w3.org/2000/svg">
<circle cx="18" cy="18" r="18" fill="#EAF8EC"/>
<rect width="36" height="36" rx="8" fill="white"/>
<path fill-rule="evenodd" clip-rule="evenodd" d="M17.9604 17.6823C18.4692 18.1516 19.0702 18.5194 19.7285 18.7643C21.0381 19.2517 22.4956 19.2243 23.7847 18.688C25.0739 18.1518 26.0908 17.1499 26.6148 15.8998C27.1389 14.6497 27.1278 13.2521 26.584 12.0102C26.0402 10.7683 25.0076 9.7822 23.7101 9.26587C23.0579 9.00635 22.3585 8.8735 21.6523 8.87501C20.9461 8.87653 20.2471 9.01238 19.5959 9.27471C18.9448 9.53703 18.3543 9.9206 17.8587 10.4032C17.3632 10.8858 16.9724 11.4579 16.709 12.0862C16.4456 12.7146 16.3148 13.3867 16.3243 14.0638C16.3337 14.7408 16.4832 15.4092 16.7641 16.0304C17.0449 16.6515 17.4515 17.213 17.9604 17.6823ZM21.7697 17.7788C21.2523 17.7792 20.74 17.681 20.2627 17.49C19.3153 17.1109 18.5619 16.3893 18.1654 15.4814C17.769 14.5735 17.7614 13.5523 18.1443 12.6388C18.5273 11.7253 19.2699 10.9929 20.2116 10.6002C21.1532 10.2074 22.2181 10.1859 23.1759 10.5402C23.6585 10.7188 24.0993 10.9875 24.4726 11.3308C24.8459 11.6741 25.1443 12.0851 25.3505 12.5399C25.5567 12.9948 25.6666 13.4844 25.6738 13.9804C25.681 14.4764 25.5853 14.9688 25.3923 15.4292C25.1994 15.8895 24.913 16.3085 24.5497 16.6619C24.1865 17.0153 23.7537 17.296 23.2765 17.4877C22.7992 17.6795 22.287 17.7784 21.7697 17.7788ZM14.1329 20.0097C14.408 19.7403 14.625 19.4215 14.7717 19.0717C14.9183 18.7219 14.9916 18.3479 14.9875 17.971C14.9834 17.594 14.9019 17.2216 14.7476 16.875C14.5934 16.5283 14.3694 16.2142 14.0885 15.9506C13.8076 15.687 13.4752 15.479 13.1104 15.3386C12.7457 15.1981 12.3556 15.128 11.9624 15.1321C11.5693 15.1362 11.1808 15.2145 10.8192 15.3626C10.4576 15.5106 10.1299 15.7255 9.85478 15.9949C9.57971 16.2644 9.36266 16.5831 9.21602 16.9329C9.06939 17.2827 8.99604 17.6568 9.00016 18.0337C9.00429 18.4106 9.08581 18.783 9.24007 19.1297C9.39432 19.4763 9.6183 19.7904 9.8992 20.0541C10.1801 20.3177 10.5124 20.5256 10.8772 20.6661C11.242 20.8065 11.6321 20.8767 12.0253 20.8726C12.4184 20.8684 12.8069 20.7901 13.1685 20.6421C13.5301 20.494 13.8578 20.2791 14.1329 20.0097ZM24.5849 23.8854C24.3875 24.3565 24.0029 24.7331 23.516 24.9324C23.029 25.1318 22.4795 25.1376 21.9883 24.9485C21.497 24.7593 21.1044 24.3909 20.8967 23.9241C20.6889 23.4572 20.6832 22.9304 20.8806 22.4593C21.0781 21.9883 21.4626 21.6116 21.9496 21.4123C22.4365 21.2129 22.9861 21.2072 23.4773 21.3963C23.9685 21.5854 24.3612 21.9539 24.5689 22.4207C24.7766 22.8875 24.7824 23.4144 24.5849 23.8854ZM13.1386 11.9539C13.382 11.8543 13.5741 11.6661 13.6728 11.4306C13.7715 11.1952 13.7686 10.9319 13.6648 10.6986C13.561 10.4653 13.3648 10.2811 13.1192 10.1866C12.8737 10.0921 12.5991 10.095 12.3557 10.1946C12.1123 10.2942 11.9202 10.4825 11.8215 10.7179C11.7228 10.9533 11.7257 11.2166 11.8295 11.4499C11.9333 11.6832 12.1295 11.8674 12.3751 11.9619C12.6206 12.0564 12.8952 12.0536 13.1386 11.9539Z" fill="url(#paint0_linear_1031_389)"/>
<defs>
<linearGradient id="paint0_linear_1031_389" x1="10.224" y1="9.97738" x2="25.4065" y2="26.9042" gradientUnits="userSpaceOnUse">
<stop stop-color="#3F3CFF"/>
<stop offset="0.520833" stop-color="#6BBEE1"/>
<stop offset="1" stop-color="#8AE899"/>
</linearGradient>
</defs>
</svg>
