<svg width="20" height="20" viewBox="0 0 20 20" fill="none" xmlns="http://www.w3.org/2000/svg">
<rect width="20" height="20" rx="4" fill="white"/>
<path fill-rule="evenodd" clip-rule="evenodd" d="M12.75 3C12.75 2.58579 12.4142 2.25 12 2.25C11.5858 2.25 11.25 2.58579 11.25 3V17C11.25 17.4142 11.5858 17.75 12 17.75C12.4142 17.75 12.75 17.4142 12.75 17V3ZM8.75 5C8.75 4.58579 8.41421 4.25 8 4.25C7.58579 4.25 7.25 4.58579 7.25 5V15C7.25 15.4142 7.58579 15.75 8 15.75C8.41421 15.75 8.75 15.4142 8.75 15V5ZM16.75 7C16.75 6.58579 16.4142 6.25 16 6.25C15.5858 6.25 15.25 6.58579 15.25 7V14C15.25 14.4142 15.5858 14.75 16 14.75C16.4142 14.75 16.75 14.4142 16.75 14V7ZM4 7.25C4.41421 7.25 4.75 7.58579 4.75 8V12C4.75 12.4142 4.41421 12.75 4 12.75C3.58579 12.75 3.25 12.4142 3.25 12V8C3.25 7.58579 3.58579 7.25 4 7.25Z" fill="url(#paint0_linear_641_116)"/>
<defs>
<linearGradient id="paint0_linear_641_116" x1="3.25" y1="2.25" x2="18.2416" y2="3.5576" gradientUnits="userSpaceOnUse">
<stop stop-color="#3F3CFF"/>
<stop offset="1" stop-color="#6BBEE1"/>
</linearGradient>
</defs>
</svg>
