<svg width="20" height="20" viewBox="0 0 20 20" fill="none" xmlns="http://www.w3.org/2000/svg">
<path d="M10.0164 1.23937C10.065 1.23937 10.1111 1.25152 10.1549 1.27582L17.4841 5.5407C17.5692 5.58931 17.6202 5.68165 17.6202 5.77886L17.5935 14.2576C17.5935 14.3548 17.54 14.4471 17.455 14.4957L10.0965 18.712C10.0552 18.7363 10.0066 18.7485 9.95803 18.7485C9.90943 18.7485 9.86325 18.7363 9.81951 18.712L2.49266 14.4471C2.4076 14.3985 2.35657 14.3062 2.35657 14.209L2.3833 5.73026C2.3833 5.63305 2.43676 5.5407 2.52182 5.4921L9.88026 1.27582C9.92158 1.25152 9.96775 1.23937 10.0164 1.23937ZM10.0212 0C9.75876 0 9.49873 0.0656135 9.26301 0.199271L1.90457 4.41555C1.43555 4.6853 1.14393 5.18348 1.14393 5.72539L1.1172 14.2041C1.11477 14.7461 1.40153 15.2467 1.87054 15.5188L9.19983 19.7837C9.43312 19.9198 9.69557 19.9879 9.9556 19.9903C10.2156 19.9927 10.4781 19.9247 10.7138 19.791L18.0722 15.5747C18.5413 15.305 18.8329 14.8068 18.8329 14.2649L18.8596 5.78615C18.862 5.24423 18.5753 4.74362 18.1063 4.47145L10.777 0.206561C10.5437 0.0704739 10.2837 0 10.0212 0Z" fill="#1B4ADD"/>
<path d="M11.5076 4.62207H10.4335C10.3533 4.62207 10.2804 4.6731 10.2537 4.74844L6.79805 14.2187C6.77618 14.2819 6.82235 14.3475 6.88796 14.3475H7.96208C8.04228 14.3475 8.11518 14.2964 8.14191 14.2211L11.5976 4.75087C11.6194 4.68768 11.5733 4.62207 11.5076 4.62207ZM9.62916 4.62207H8.55504C8.47484 4.62207 8.40194 4.6731 8.37521 4.74844L4.91956 14.2187C4.89769 14.2819 4.94386 14.3475 5.00947 14.3475H6.08359C6.16379 14.3475 6.23669 14.2964 6.26342 14.2211L9.71907 4.75087C9.74094 4.68768 9.69477 4.62207 9.62916 4.62207ZM11.0192 8.294C10.9876 8.20895 10.8685 8.20895 10.8394 8.294L10.2804 9.82499C10.2659 9.8663 10.2659 9.9149 10.2804 9.95621L11.8357 14.2211C11.8624 14.2964 11.9354 14.3475 12.0155 14.3475H13.0897C13.1553 14.3475 13.2015 14.2819 13.1796 14.2187L11.0192 8.294ZM15.0605 14.2187L11.9597 5.72049C11.9281 5.63544 11.809 5.63544 11.7798 5.72049L11.2209 7.25148C11.2063 7.29279 11.2063 7.34139 11.2209 7.3827L13.7166 14.2235C13.7434 14.2989 13.8163 14.3499 13.8965 14.3499H14.9706C15.0362 14.3475 15.0824 14.2819 15.0605 14.2187Z" fill="#1B4ADD"/>
</svg>
