<svg width="16" height="16" viewBox="0 0 16 16" fill="none" xmlns="http://www.w3.org/2000/svg">
<g opacity="0.8">
<circle cx="8" cy="8" r="8" fill="url(#paint0_linear_2478_386)" fill-opacity="0.1"/>
<g clip-path="url(#clip0_2478_386)">
<path fill-rule="evenodd" clip-rule="evenodd" d="M8.5694 4.70659C8.67058 4.51629 8.59834 4.28 8.40804 4.17881C8.21774 4.07763 7.98145 4.14987 7.88027 4.34017L4.1825 11.2947C4.08132 11.485 4.15356 11.7212 4.34386 11.8224C4.53416 11.9236 4.77045 11.8514 4.87163 11.6611L8.5694 4.70659ZM8.62586 8.13015C8.72704 7.93986 8.6548 7.70356 8.4645 7.60238C8.2742 7.5012 8.03791 7.57344 7.93673 7.76374L6.06063 11.2922C5.95944 11.4825 6.03169 11.7188 6.22198 11.8199C6.41228 11.9211 6.64857 11.8489 6.74976 11.6586L8.62586 8.13015ZM10.1838 7.07175C10.285 6.88145 10.5213 6.80921 10.7116 6.91039C10.9019 7.01157 10.9741 7.24786 10.873 7.43816L8.62813 11.6601C8.52694 11.8504 8.29065 11.9226 8.10035 11.8214C7.91006 11.7203 7.83781 11.484 7.939 11.2937L10.1838 7.07175ZM11.4632 9.86713C11.5644 9.67684 11.4922 9.44054 11.3019 9.33936C11.1116 9.23818 10.8753 9.31042 10.7741 9.50072L9.81795 11.299C9.71676 11.4893 9.789 11.7255 9.9793 11.8267C10.1696 11.9279 10.4059 11.8557 10.5071 11.6654L11.4632 9.86713Z" fill="url(#paint1_linear_2478_386)"/>
</g>
</g>
<defs>
<linearGradient id="paint0_linear_2478_386" x1="-7.15256e-07" y1="-12" x2="8" y2="16" gradientUnits="userSpaceOnUse">
<stop stop-color="#09F7F9"/>
<stop offset="1" stop-color="#0038F5"/>
</linearGradient>
<linearGradient id="paint1_linear_2478_386" x1="11.1116" y1="-1.73711" x2="9.86366" y2="13.2672" gradientUnits="userSpaceOnUse">
<stop stop-color="#09F7F9"/>
<stop offset="0.495" stop-color="#0598F7"/>
<stop offset="1" stop-color="#0038F5"/>
</linearGradient>
<clipPath id="clip0_2478_386">
<rect x="3.99902" y="4" width="8" height="8" fill="white"/>
</clipPath>
</defs>
</svg>
