<svg width="140" height="80" viewBox="0 0 140 80" fill="none" xmlns="http://www.w3.org/2000/svg">
<path d="M68.7499 1.25007L67.4999 2.50006L65 5.00003L62.5 7.50001L61.25 8.75" stroke="#A2B8FF"/>
<path d="M68.7499 18.7499L67.4999 17.4999L65 15L62.5 12.5L61.25 11.25" stroke="#FFA68C"/>
<path d="M78.7499 11.2501L77.4999 12.5001L75 15L72.5 17.5L71.25 18.75" stroke="#FFA68C"/>
<path d="M71.25 1.25L72.5 2.49999L75 4.99997L77.4999 7.49994L78.7499 8.74993" stroke="#FFA68C"/>
<path d="M58.7499 11.2501L57.4999 12.5001L55 15L52.5 17.5L51.25 18.75" stroke="#A2B8FF"/>
<path d="M58.7499 28.7499L57.4999 27.4999L55 25L52.5 22.5L51.25 21.25" stroke="#FFA68C"/>
<path d="M68.7499 21.2501L67.4999 22.5001L65 25L62.5 27.5L61.25 28.75" stroke="#A2B8FF"/>
<path d="M61.25 11.25L62.5 12.5L65 15L67.4999 17.4999L68.7499 18.7499" stroke="#A2B8FF"/>
<path d="M48.7499 21.2501L47.4999 22.5001L45 25L42.5 27.5L41.25 28.75" stroke="#A2B8FF"/>
<path d="M51.25 21.25L52.5 22.5L55 25L57.4999 27.4999L58.7499 28.7499" stroke="#A2B8FF"/>
<path d="M78.7499 11.2501L77.4999 12.5001L75 15L72.5 17.5L71.25 18.75" stroke="#FFA68C"/>
<path d="M78.7499 28.7499L77.4999 27.4999L75 25L72.5 22.5L71.25 21.25" stroke="#FFA68C"/>
<path d="M88.7499 21.2501L87.4999 22.5001L85 25L82.5 27.5L81.25 28.75" stroke="#FFA68C"/>
<path d="M81.25 11.25L82.5 12.5L85 15L87.4999 17.4999L88.7499 18.7499" stroke="#A2B8FF"/>
<path d="M88.7499 21.2501L87.4999 22.5001L85 25L82.5 27.5L81.25 28.75" stroke="#A2B8FF"/>
<path d="M91.25 21.25L92.5 22.5L95 25L97.4999 27.4999L98.7499 28.7499" stroke="#A2B8FF"/>
<circle cx="70" cy="34" r="1" fill="#A2B8FF"/>
<circle cx="70" cy="42" r="1" fill="#FFA68C"/>
<circle cx="70" cy="38" r="1" fill="#A2B8FF"/>
<circle cx="70" cy="46" r="1" fill="#FFA68C"/>
<path d="M38.7499 52.2501L37.4999 53.5001L35 56L32.5 58.5L31.25 59.75" stroke="#A2B8FF"/>
<path d="M38.7499 69.7499L37.4999 68.4999L35 66L32.5 63.5L31.25 62.25" stroke="#A2B8FF"/>
<path d="M48.7499 62.2501L47.4999 63.5001L45 66L42.5 68.5L41.25 69.75" stroke="#A2B8FF"/>
<path d="M41.25 52.25L42.5 53.5L45 56L47.4999 58.4999L48.7499 59.7499" stroke="#A2B8FF"/>
<path d="M28.7499 62.2501L27.4999 63.5001L25 66L22.5 68.5L21.25 69.75" stroke="#A2B8FF"/>
<path d="M31.25 62.25L32.5 63.5L35 66L37.4999 68.4999L38.7499 69.7499" stroke="#A2B8FF"/>
<path d="M18.7499 52.2501L17.4999 53.5001L15 56L12.5 58.5L11.25 59.75" stroke="#A2B8FF"/>
<path d="M18.7499 69.7499L17.4999 68.4999L15 66L12.5 63.5L11.25 62.25" stroke="#A2B8FF"/>
<path d="M28.7499 62.2501L27.4999 63.5001L25 66L22.5 68.5L21.25 69.75" stroke="#A2B8FF"/>
<path d="M21.25 52.25L22.5 53.5L25 56L27.4999 58.4999L28.7499 59.7499" stroke="#A2B8FF"/>
<path d="M8.74993 62.2501L7.49994 63.5001L4.99997 66L2.49999 68.5L1.25 69.75" stroke="#A2B8FF"/>
<path d="M11.25 62.25L12.5 63.5L15 66L17.4999 68.4999L18.7499 69.7499" stroke="#A2B8FF"/>
<path d="M78.7499 52.2501L77.4999 53.5001L75 56L72.5 58.5L71.25 59.75" stroke="#FFA68C"/>
<path d="M78.7499 69.7499L77.4999 68.4999L75 66L72.5 63.5L71.25 62.25" stroke="#FFA68C"/>
<path d="M88.7499 62.2501L87.4999 63.5001L85 66L82.5 68.5L81.25 69.75" stroke="#A2B8FF"/>
<path d="M81.25 52.25L82.5 53.5L85 56L87.4999 58.4999L88.7499 59.7499" stroke="#A2B8FF"/>
<path d="M58.7499 52.2501L57.4999 53.5001L55 56L52.5 58.5L51.25 59.75" stroke="#A2B8FF"/>
<path d="M58.7499 69.7499L57.4999 68.4999L55 66L52.5 63.5L51.25 62.25" stroke="#A2B8FF"/>
<path d="M68.7499 62.2501L67.4999 63.5001L65 66L62.5 68.5L61.25 69.75" stroke="#A2B8FF"/>
<path d="M61.25 52.25L62.5 53.5L65 56L67.4999 58.4999L68.7499 59.7499" stroke="#A2B8FF"/>
<path d="M98.7499 52.2501L97.4999 53.5001L95 56L92.5 58.5L91.25 59.75" stroke="#A2B8FF"/>
<path d="M98.7499 69.7499L97.4999 68.4999L95 66L92.5 63.5L91.25 62.25" stroke="#A2B8FF"/>
<path d="M108.75 62.2501L107.5 63.5001L105 66L102.5 68.5L101.25 69.75" stroke="#A2B8FF"/>
<path d="M101.25 52.25L102.5 53.5L105 56L107.5 58.4999L108.75 59.7499" stroke="#A2B8FF"/>
<path d="M108.75 62.2501L107.5 63.5001L105 66L102.5 68.5L101.25 69.75" stroke="#A2B8FF"/>
<path d="M111.25 62.25L112.5 63.5L115 66L117.5 68.4999L118.75 69.7499" stroke="#A2B8FF"/>
<path d="M118.75 52.2501L117.5 53.5001L115 56L112.5 58.5L111.25 59.75" stroke="#A2B8FF"/>
<path d="M118.75 69.7499L117.5 68.4999L115 66L112.5 63.5L111.25 62.25" stroke="#A2B8FF"/>
<path d="M128.75 62.2501L127.5 63.5001L125 66L122.5 68.5L121.25 69.75" stroke="#A2B8FF"/>
<path d="M121.25 52.25L122.5 53.5L125 56L127.5 58.4999L128.75 59.7499" stroke="#A2B8FF"/>
<path d="M128.75 62.2501L127.5 63.5001L125 66L122.5 68.5L121.25 69.75" stroke="#A2B8FF"/>
<path d="M131.25 62.25L132.5 63.5L135 66L137.5 68.4999L138.75 69.7499" stroke="#A2B8FF"/>
</svg>
