<svg width="12" height="12" viewBox="0 0 12 12" fill="none" xmlns="http://www.w3.org/2000/svg">
<path fill-rule="evenodd" clip-rule="evenodd" d="M10.0367 11.9299V11.4254H1.96371V11.9299H10.0367ZM6.0002 9.40713C3.42258 9.40713 1.33301 7.31757 1.33301 4.73994C1.33301 2.16232 3.42258 0.0727539 6.0002 0.0727539C8.57783 0.0727539 10.6674 2.16232 10.6674 4.73994C10.6674 7.31757 8.57783 9.40713 6.0002 9.40713ZM6.0002 8.90257C8.29915 8.90257 10.1628 7.03889 10.1628 4.73994C10.1628 2.44098 8.29915 0.577315 6.0002 0.577315C3.70124 0.577315 1.83757 2.44099 1.83757 4.73994C1.83757 7.03889 3.70124 8.90257 6.0002 8.90257Z" fill="#6EB2E4"/>
</svg>
