<svg width="140" height="141" viewBox="0 0 140 141" fill="none" xmlns="http://www.w3.org/2000/svg">
<path d="M45.2958 19.8706C56.2863 19.8706 65.1991 28.6936 65.1991 39.5714C65.1991 50.4531 56.2863 59.2723 45.292 59.2723C34.3015 59.2723 25.3887 50.4493 25.3887 39.5714C25.3887 28.6898 34.3014 19.8706 45.2958 19.8706ZM45.2958 27.2608C38.4229 27.2608 32.8519 32.7695 32.8519 39.5714C32.8519 46.3734 38.4229 51.8859 45.2958 51.8859C52.1649 51.8859 57.7358 46.3734 57.7358 39.5714C57.7358 32.7695 52.1649 27.257 45.2958 27.257V27.2608ZM45.2958 69.1246C56.2863 69.1246 65.1991 77.9476 65.1991 88.8255C65.1991 99.7071 56.2863 108.526 45.292 108.526C34.3015 108.526 25.3887 99.7033 25.3887 88.8255C25.3887 77.9438 34.3014 69.1246 45.2958 69.1246ZM45.2958 76.5148C38.4229 76.5148 32.8519 82.0235 32.8519 88.8255C32.8519 95.6274 38.4229 101.14 45.2958 101.14C52.1649 101.14 57.7358 95.6274 57.7358 88.8255C57.7358 82.0235 52.1649 76.511 45.2958 76.511V76.5148ZM97.5424 19.8706C108.537 19.8706 117.45 28.6936 117.45 39.5714C117.45 50.4531 108.537 59.2723 97.5424 59.2723C86.5519 59.2723 77.6353 50.4493 77.6353 39.5714C77.6353 28.6898 86.5519 19.8706 97.5424 19.8706ZM97.5424 27.2608C90.6733 27.2608 85.1024 32.7695 85.1024 39.5714C85.1024 46.3734 90.6733 51.8859 97.5424 51.8859C104.415 51.8859 109.982 46.3734 109.982 39.5714C109.982 32.7695 104.415 27.257 97.5424 27.257V27.2608ZM97.5424 69.1246C108.537 69.1246 117.45 77.9476 117.45 88.8255C117.45 99.7071 108.537 108.526 97.5424 108.526C86.5519 108.526 77.6353 99.7033 77.6353 88.8255C77.6353 77.9438 86.5519 69.1246 97.5424 69.1246ZM97.5424 76.5148C90.6733 76.5148 85.1024 82.0235 85.1024 88.8255C85.1024 95.6274 90.6733 101.14 97.5424 101.14C104.415 101.14 109.982 95.6274 109.982 88.8255C109.982 82.0235 104.415 76.511 97.5424 76.511V76.5148Z" fill="#557BF1" fill-opacity="0.2"/>
</svg>
